<mxfile host="app.diagrams.net" agent="Mozilla/5.0 (Windows NT 10.0; Win64; x64) AppleWebKit/537.36 (KHTML, like Gecko) Chrome/127.0.0.0 Safari/537.36 Edg/127.0.0.0" version="24.7.6">
  <diagram name="Page-1" id="nQI1sdtNu85v_ybSC34Q">
    <mxGraphModel dx="1183" dy="515" grid="1" gridSize="10" guides="1" tooltips="1" connect="1" arrows="1" fold="1" page="1" pageScale="1" pageWidth="850" pageHeight="1100" math="0" shadow="0">
      <root>
        <mxCell id="0" />
        <mxCell id="1" parent="0" />
        <mxCell id="nRoSArOt20eBQi5jllFo-1" value="" style="shape=image;verticalLabelPosition=bottom;labelBackgroundColor=default;verticalAlign=top;aspect=fixed;imageAspect=0;image=data:image/png,iVBORw0KGgoAAAANSUhEUgAAAsMAAAEWCAYAAACDl5pDAAAAAXNSR0IArs4c6QAAAARnQU1BAACxjwv8YQUAAAAJcEhZcwAADsMAAA7DAcdvqGQAALtnSURBVHhe7J0HfBzF2YefvdNJuqLee5dsyb13YzC26b1DQshHSOg91JAAoYWaEAIEEnoooRfjgjG2ce/dclHvvZfT3X6zp5N1kiX7JMstngf2Z+3c3Mw778zO/Gd2dk8Zmj5MRSKRSCQSiUQiOQnROf+VSCQSiUQikUhOOqQYlkgkEolEIpGctEgxLJFIJBKJRCI5aZFiWCKRSCQSiURy0iLFsEQikUgkEonkpEWKYYlEIpFIJBLJSYsUwxKJRCKRSCSSkxYphiUSiUQikUgkJy1SDEskEolEIpFITlqkGJZIJBKJRCKRnLRIMSyRSCQSiUQiOWmRYlgikUgkEolEctIixbBEIpFIJBKJ5KRFimGJRCKRSCQSyUmLFMMSiUQikUgkkpMWKYYlEolEIpFIJCctUgxLJBKJRCKRSE5apBiWSCQSiUQikZy0SDEskUgkEolEIjlpkWJYIpFIJBKJRHLSIsWwRCKRSCQSieSkRYphiUQikUgkEslJixTDEolEIpFIJJKTFimGJRKJRCKRSCQnLVIMSyQSiUQikUhOWqQYlkgkEolEIpGctEgxLJFIJBKJRCI5aZFiWCKRSCQSiURy0iLFsEQikUgkEonkpEWK4f8hVL2FsPhgvFXVGXL8cyLafLxzPPhU1qtEIpFIThSkGP5fQh9MUkYMvs7TE4IT0ebjnePBp7JeJRKJRHKCIMWwRCKRSCQSieSk5YQUw56KF2neoznL/zpm+V9NtFcqesXD+emJh6qq6I0mPJG3lCXHHtkeJRKJRHIyoQxNH3bCjHjeipEwQwyDvEbioTdSZS/HptNh9Ayi2lZGXuNmalqKabO3Or/RFW37YtSoUxkc4gxwpbWAtT/upEZRnAH9R1UtpE4bh2/OUtblWp2hvaMSwZizRuCXs5JFW6ucoX1H9Yxn8ukB7PlmPaXdyqGGDObUkRG9z34GsPwaqt4Toxe0NLSgHiTNg9p8QH2p2JobqautoiRrL/k1Nmf4yYM7fu2bT11oymPVkkzqlMjDbo8Hs6E7qupFwqTJJHkXsv7HHVRx8Piu9PVak0gkEomkOyfEyrBB/Bepj2Ok1xQmG88kwzgJo95XCOBK8lt2U9qShc7Di2i/sUQFjMFijEBRei6aztMLz4Y8Nm3Y3PXYkke9M87ho8ND5GPQuzmoqyVkbtjCln3VzoAjQE0em/eXdy9VQoDYSzOPUPkFwYM4Zfoggp2n/aVLfW3cRmZuGQ2e4aRPncaYBEu7ujuZGAC/9noNbCugSYtwNNqjKz7RxAZ74mmOJjrEfSHcTh+vNYlEIpFIunFCiOF4jxSSDIOINiThow+kVbFRYa8AvQGbYieveQfFjbsRCphASzLB/kMwC0HcG2pTLeVl5V2PikaRloIqRLXFp+stYhU9Rh8LRoOmvRQ8LRa8PVRUnQFzYAD+FgOKG6JMi6Iz+hIYHIDZ0xnoQKWltpp6a3saXfIQVeTtF0CAjxe6wxB+Sms9Fc6ylpVW0WQHa0PlAeXvQLtVrnia8A/yF7bqHOfdcZRf2BYYZMFL3/m5zsuEjyigonhi8vXBYtL3+H132V9fpaUUZu9jx6ql/Ly1noD0ocSbnZGcaPnoNLsD/TAZehZI++OIslm8OsvW4XetnjvQPtObLJhEvPZz17oxYPIX+bju0PFoz9vYw64dLa3efOpOnQ+kX3u8Bio72kC39niIa+Jw8Y2OwlK9l53FOsJjQnu8lnpraz2hqsJ/wjaz8YTo3iQSiURyjNGHhYT90fn3ccsZpkuxYmOvbYfjsOt05Fl3C0ERRLApAQ8hQOqtFRTVbUbv6YufXxKK3pOaur3OFDrxi04h1F7EnqIGZ0g3dAGkT51Ior6EnIoWITwUjPFjmT4qiLrsAmptvqRNm0KMrpmQkeMYHB1GVGIqSZFe1JeV0eC4U+tFSGIs3lVZ5Fe338rX+ycwZso4hqVGERYWRVJqPIG2Cgorm4WwaE8zzpbrjN9+Hi3yiBg1jrTocGKSkogLVSnPq6S1t9vIen9ik4xUZhbR4CJsD6TdPlNNDrmVB95a1l6LFTdyIhNGJBIRGk5CaiLh3o2UldTT5kxXF5TMxMljSIsLISQqkeSEENpK8qluFdYnj2Vskh8GgxH/8AgizU3kFNU5JisHcAibe6ovLVprVTW6yDTivSvJKm12hGt2x4+cxPiRSUSERZA4KJkIY7OYBNRiFWKzI06cI44oW1gkCSkJRJhaKC2ppe2AetDQETXmNIZbysgq0/Jx1r+HlahRI0mJixN1GYNvUxlNEWOYMiqBqLgEkhLDoTKPSsdSqzs+PXSdu+3Xfvi0K938cIhros52YB7utkVV9SdJ+IyczWytMJKU7E9DViH1zvrSOFhb636tqaqeoCETmTTYj7r8QmrlzgmJRCKRHIITYulErzeSZ9tHsT1fWKynVWklr2k7W6sXktuwGU8vfyICRxEeOFKLTENruWMFrlf0HiIZXdfD+ZHSVs62rSV4pwwhTiSheoSRnuZH5fatFLR2DtDByfFYN//E/O9/YP68Fexti2DEiFi8elrVUr2JTEvEp24ny+YtYMH3C/lxazV+6YOJOcjKWnB8CKUrFrJwwQ8sXLoPa2Aq6fFdlpQHHM38wMFjGOxTxrof5jvynr8kk9bw4QxP8HbGMZM8LAVj2XoWzFvED/N+YG2+jrikUPQigZpdy/lhYzH2tmI2zf+BReuLDrpvuD8oSiMVQph5+/g48tTsDkofQ7p/JRt/mCfsWsC8H7fTGDqU0al+joI54oiyZQRoceaLeljAD8uzsEUNY4SzbO4SHO1L7rIfWDD3B1Zl2wgbPpVR5mwWC18smLeUHdVGksXEp8O2Q/m0g4PV+YD6tYdrQNEd2HY13L0m+oMSEkWkZxUF+U3YiwsoUYOJiepcVj9UW3PFIYTTJzAmspnty9eT35vWl0gkEonEhRNCDNv1YFPasKk2bKjYdIr4t40WWwOlDZnkVC2non63GN8t+AUOxuSfLL7T+yCtjxjOGWfN6XKckuHv/BSshVvZUWYhLSOa8MGDCa7bxZYc5xKfE2txJjtKmttX5dqq2bM5h6agOGIszgguKEozuSsX8sOqHOqs2rmdxvwSalQffAOckXqgKW+3GNDbB/y26lzyaxQsQvwdUZRIEuMUcrfsoNxZZHtdLluzGwiKCsfDIUA8MQi9Yre1IaoExW6lfNtyftpU2mWrxZGmqbkFjN4YtRMlgoQ4Dwq3baOkUfOxgr0+n027yjEmxLfvsdXixIs4WzviQEvFHtb9vJa9FT0Lwd6oz9tLifCPgih7diENYoJWklsoWqXWHurJK6pFMZtxTMnc8mk7R6vOe7oGxkT33h24c030Fa3YIdERGCoKKRBViVpGQVGbmGhE4bnfJ+62Nb2YcIwXZWhh+4p15EkhLJFIJBI3OSHEsE1YqToeiBMCR4x/2rniNN1qb6a2qYi61nJsHjo8TCF4mAOxH6RktpKtLFr4Y5djeWbnw0KKYiV/805qQoYyUgyumRtzaO4m8hpra7quytVWUd1mxNyDGHZgMAnhk0Da8NFMmDaN02amE6jo0R/EzpYWTSG0ownqhnq7EPw9bEYdSHxMWHR6wtInMHFy5zEyRkhOUbh2WVZJ9q4SdHHjOW3WJEYPSyE2xHTASt2RxtvLC5qb2x/68rFgUeqpruzY3tCOtaKKJjFJ8tEWYHuIo4nmlppyymp7fgNJb1itbc6/BHa7Y3LW2lldIsguri6dkGgCt3zaztGq856ugQ0FwuZecOea6DP6UGIiDNTXt+IXEkRQSKC4sOqwB0YRtf/GjnttzRQ/lrEpvjRkbSev7ui2Q4lEIpGc2BxEih0/tK8Eq9jFoW0ldIhjcabhoffGbI7EW4hgm6LSaC2nqaXSIZp7xdpCU2NTl6O5295CRXviXvOOzoCX54GJaSKqKzoRJkRQD+OwY0/wlKmMGSSEelMpubu2suanrRS66KmeOVghjhAO+1upzM8lJ7vzyN61nY3bCmgUn2plb8hdz48LlrN5dylNniGkjJ/GtJFhXVY5jyTa1pOAQC+a6+vbVwhFvqrmr+4uc9STaC1Os7Q4B1TdAbiWQUy7Dhn/ELjh004ONzM36eEaaOtp768Lh7om+oo+IoYQvQ1T1FBGjR7lOEYk+gh3+RMV0/5kpLttzaCWsSuzCnPqKFL8T4huTSKRSCTHCSfEqNEmrNTpDY59jar4W9ULgaLzwOBhJsAvlbCwifj6p9DWVk9V1Taq6/bSJoRxf1FVE4kjkvAq2szabIWEEan4dNtPaQkI6vKkvxIQSJC+AaHNDsQnjAifevasWM22zDwKSyqptXrgfYQXeftFfR31Nk9oKqawoHD/UVxWSWlBFS1CnGjF1puM6FuqKc7ey/a1y1m8uRyvmFjCHEuhTnp5vd3houXvHTWYJL96crIq2gMbNbt9CA7u6lTv4CDMrbXUawuudeJfEScopDOOlpYpJJroIC9xZkVb8LX4+rZ/oKH4aQvKh4cbPu0TR8ivB8Oda6IvqKpBCN5gKN7Cwu8XsHDeQufxA6uzmvCNjsYi6sDdtlaTs5fsnevZVGwgZdwQQjz7b5tEIpFITi5OCDHcoDQSZEwk0CsWu2JH9fAmyC+d2KjTCQoaTmtLDeUl66gs3eBYHfawhNBm630/o+JpxOxj7nZ477/1akoaSoq5gh1bCyjbuZUCQyLDk306BZJADU5iZEKAY6VM7xNBxohY9CVZPe9VbG6mxW4hNNq//fVUnn7EjxTlcX58XKGWsCerlaghI4gN9NLWRfHyi2Xk9BlMHx7S7gNDNKNOmcb4wcF4C0GiePoSHmBG19xAQ8cOhOYWWvV+hEX6YHQsJ/afzvryJygiiqThE5k6MojGXVvZW+uMZCthd1YzoRkjiBN2a49EeoeIOkoLoGZPFhWa4BRl2yvihKSPJF6IXx0GLJGDGTM+nQizdqehSUymWvCMTCUl3AeTJVDUUxphh3uVuONTdxlAv/YFd66JPuEVKSYgdorzisU13XUyUJVXSKNZfK5t43enrTnRtnIUb1rPPmskI8bEY+qywi+RSCQSSc+cEGJ4W81i6tVqIgJGkhZ5AcGBQ/H3TcbaUk1p2RoqK7eieJsJTJ6DwTeKxuo9NJZsdX77QHSh6ZwyY3qXY/q0wY6HrFRjLMPT/KgWA35hq4Ji0wRAMd4pw0ny6Ry0a/fupj5mDKedOYfZ04cS2rSXtRsK9r96rAuteWzdVi7SmMTMs0X8U0cSXJFLySG3SRx9NPOrd6xmfbGB5AkzmHP2LE6bmoa5ehfrtpW1R7Dms2VjPkrsWE6dM4c5syeTEVjP9jW7qO4of3U223LsRI6ZyoyxMYe1faKjvqZPH8eojATCjHXsXfETyzOr2u0RaP/UCrs3FBpImnAqs4XdM8aKyVPOWtbtbZ+hOMq2S4vjQeL4GSLOaUwfFU7r3vVsyGl1fF6+czP76owkj5vKtEkZBNfuYm+N4+v9xpHvoXzqLgPoV3dx95roC8bYKALaiiko6WGfck0+BaIOImPFdFFcO4dsay4othp2rd5OrY+Y5KR3vXsjkUgkEklPnBA/x6xXDPh5RxLsk0ZwwFAsvolUNO2jsHwVja2VeFrC8TAFOh6ya24opLFqL631JWIU7/2BoP6iqr6kz5yM374fWLGvVeRrxGBtotkdYav3xGzS0VTXhP0I7A3ty0/guoPjxx9MXkKQNNHSQ/lUnQ4vb2/0bc00tWiP+vcgTjwM6Oyt2HrZxD3QNmtodhm9DbQ2NvfqZ61sRpMBq4hj6ymOhw7Fauv/q8t64VA+dZeD+fVI+LSvDHhbdKOtSSQSiUTSH06IlWGbaqWyKYesiqXsLP6G3PJlNFmrMZiCsQSlYfJPwNbWQnXhSmoLVtNaVyRGz4EXwt3RxmNbk5tCWMPWSkNd7wLteEMRlrY09i7aFLtdCM5GmlqFr3sRJ2qbtVchfKTQ7GpubDmon7WyaXF6FMIabfYBF8Iah/KpuxwLvx5L3GlrEolEIpH0hxNCDHdgtTVRWbOL3bmfUVK1EQ9zEB6eFiryl1K2by7NNbnYheCUSCQSiUQikUjc4YT4OebuqKqNpoYiqko3UFO2mdamiqOyEtxOi+MVWYVVLcKO42yFSpijV1qoKa/DeqKsnp2INh/vHA8+lfUqkUgkkhOEE2LPsEQikUgkEolEciRQxo0eL8WwRCKRSCQSieSk5ITaMyyRSCQSiUQikQwkUgxLJBKJRCKRSE5apBiWSCQSiUQikZy0SDEskUgkEolEIjlpkWJYIpFIJBKJRHLSIsWw5IRHMTUzMaMZb7t8McqRRPrZfVRzk/BVCyYGxlcDnZ5EIpFIOpFiWDIgOH7zRH90m5NKG+PP38enL23ixYvrsDjDJQOL9HM/8K/h9vs28tVTuVyeZHMGHgYDnV4vqB4hZEyaxOh4UcsHmfS4G+9oo8qJmkQi6Qcn1HuGVbsO7xHnk3DuDAITw/H0bKOlYDvFn7xG1uoSIe3bf+nK+8LnmHRZsuNvDbW1jubCnRR9+A+y15Xvj3fEGHwDkx45Ay/rz2y56hnKDzM/05SrCTNuIGfeVuw9pKWVd+JF5Wy95gnK7Ef/175UuxdBv/krQ2f6Uv63X7Pt50bnJ0cO1d7G1N/s5OmpbWz6Lp4XvvVld32nGFfx54X3Yhm6ZC+nv95wwHkHQ+/4mFdnreO22U+x9ki3CxfSb/0Pb1wV7TyDtqYq8jYv4t3n/8H32S3OUPfonpbavJD7pv6RpQNQnkP5uYPe/Nsd3ZhoFt4eiLmmnJt+V3CAz4ddncY/z/BuP7HZqK1sYs3SEl76rI4S5y8+au3tthfSuDwEtv1nG9fPtTnCbnk+lcuCFPZ9uZNfftH+s+zqhBhW3ByAvvuv4NWXc9v1+ax05j/2V4N5eaYnhd9lcsH7TY4wNSOC+ff78vl9O3k1v+v3D1Ve1W4nJKWGX/0im4ujvXnryVT+sUfv/LQTd9upu+kdDtqE1i9lNENDG9i5egcVtm4+c+JuvIOhMwYTGx9FsJ8Rg95OS00JObtyqLA6Iwi8ooczJr6FnctEHtpPGh4CVfR9gSmjGBThQdXONewsP7K/StpX+442x7t9kuMH7+hhjEnwcZ6Ja0mtYvfP2yg9wr+ye6zy7YJPAuOGR5w4K8OaEDbNfoix912Ov3UjeR/8ne1vfER5QyJxd/6B+IRO55kjIlFLl7DjL0+wSRxb3/iMajJIuPshYjo1wxFBtRsIPn0qng31tBn88eys536h2sMIOftiYocG0lvXrpWXsiIa25wBRx0jnoEm1IZC6kubnWFHFuOoQh6c3sLWjwZx83/8DhRoQjy0CocJPdXz+XGAWrea1+65n9/f8wCPvvgleVHn8PDf72OqT9/mpzlfPSfS0NK5n+fmFztDB4ZD+rkDN/07LN2CucFGnZ8PY2Kdgd2pr+HV5/dxz8v5vLHKxpBzEvjHteYDtmdk5TcxeLgfFi080peJfkKclTo/7GBHGfe+kMU9zxextkWlck2B+Fuk/Uo5O5xR9iPSiRjnzzB3VhcPUV5Fp6N8bwDPPD6Id4rq+cUNJWQoPaTrZjt1O73DwTuShAhP6vOyDy5w3Y3XG15hpI9IIdSzloJ9e9iTVYbdJ4rU9Ai8XHxvMhqhuZEm4Q/38MDgKSYItmYamt3+Ur/pu31Hl+PdPsnxg7Uim21btzuO7CohJFoaaTwKY+WxyrcDxwQ6IhQP0eGeMGKYiPPI+OUQmj79PauefIO8hYspXfwFmY+9SHFtNGET4x3RVHsgpggjav4GilavpGLtKsp++ozt/5hLkz6BkJFBjnhHDN9TiBprom7FCloIECLRGd5v4jCHQ1N+bo8r2vvLW5RP7+txRxZFV03xM9ew5Nd3kbP7yPe8qt3GGaeXEFgSwYtzvXpcLRexaBPXlrWtY3Dtfn4cYC1l2+KlLF2ylIVfvMn9931MXtAMLp3TtzbakL1WpLHMcWzIH7hVeff83MGh/atNFMekeVK9rop1rV6MyPBwftINm5Wta2pZsrqaD9/P5vfftxI1LYSZYmx3pXVPAzmpFiZ5QfhoXyK3NrCrW5JKTTPL1tXx05oGykQn21zewBJxvmRTCzXdy1PYyJ4Af2YPdp4fFPfak2I18tqH4VSFl3DJyJ7i9q2dHjq9/qEtNgQnRGMRbTK7oH1lvCfcjdcb2qpyQGwcftYitm/eR1FpOWWFWWQWNqPz8cfHOSJpbcVk0okJdjPutmhFZ6V0x2pWrNhEXr0z8AjRH/uOJse7fZLjC1tTLVVVVVRW1NCmiAllc9NRaTfHKt/9GIKJCNFRX1p24ohh39ln4FP2HTs+3YfaMYjphPm2PBq0nQ/epvYwYh3isaW4sKt4rK1HjDGobZ334QJ/9x4zXrqOkCm/ZdRL7zP97beZ8If/IzCg6yCjeoQRdMk9jH7p30x992Om/PUZBp2Rhq6HFSTjzNkE6HZQNC8PG/54d9M1qn08GW9/wbhLO5fFtAEm/N5PmfHYhXiINLXZSugdH3PqR19y2icPEm5UsFz0V8e5dsz4160E7M/bWV4x0of95kkm/utjpr3+CsOvGuNIyxXVI5zgS+9lzEtvMfWd/zDphT+TMi0GpVs8d/yi2r2JfPDz/TZpx5gLhCHdUO1xJLzwRZd4HceU341xxmrHfT83MjTJTulmP3b0ejtFpVVUdZut47vdz7sSOvNOXvvyexb9+BUf/vU2Tonqemlo5R184d28+J/PmffTDyz87mPe+PO1jAt1RnCi2n0Zdc2fePPLr1m0fAlLF4v0XrmHMxIMzhi9Y9+1nV0tOiKjo5whWnoKQaOv5E9v/oevFy1k3tcf8PeHLiS9j6vHHTjEyPDL+MPrH4j0fmDR3A/4233nkGTsKT13/NzBwf3rwOLDyBiV7bvK2ZEH6YN8Dmij3VFENWzf1UCjwZPYbr421dezvNyHCUM8mD7CyLp1DegO7ebeaaljxQ4PTplsdqwSHxw3yuvEus2PNY2tDEvr6a5J39qpxsHT6x+KTzTxYlCoycmj5iB17W683vEhMMiDlopy6l2+31S6j8xd+dTtn0sb0br01hY7IclDGTNxAhPHjyQjzr9Lm9Guj7Ahk5gydfL+Y0S0mB0dBiqe+EUlM2z0WCZOmsD4scMYFO3bra26Z5+GqngRGJvG8DHt6Y0bPYSEEO8D+l130PqX5ImTGJMQQkjSkM58Y33R99s+TwJiUtrtmzyBCWOHkhxh7tLvup+ve6j2AFInT2JkbOcMV+ubQgZPZPLwyK42egYSN3g4Y0Wek6ZMZOKEUaJfCsJL1JQr7pRDIyBlPJPHxBEUnMDQMeNF3HGMHhpHgKHv5dBwr71o9g1cO9Bwtxx9y9eIdkPB2tDU6+KHu37uG27kq/chetAIxmt5jhpEWGAMo6dMINm///l6h0fgp9RRWth0YohhbatAYHoozRtWiOFZQQ2bwqAn3mb6e58w6fcX4eMjLvpy5+1h3xhMFtG5Fua2nzsxjBqOmQKqttc6zrWL2xSuPQqUQejIGoo+eY3MbzNR0s5m0EUj9g+Gqt2f0JueZNgZkTT+9B92vfpP8rJ9CPvlg6SNc+5tdKLaE4makYy6+QeK82totZvw9O/WMYdGYfSy0ViY7wzQiMEYrqetuIA2R0NQqP32OccWj02fbsGmllL8ZvuWD+3Y/NynVLd/cX95SZtKcP1S9v7rTfJzjASecwvJozv3FGqdT9jNTzB0Tjj1i99n1+tvUVQWTtTvHiYhtbPxuesXEZOqL55qt+ntn2lWW2gq6OkWfSUl7zy53/ZNf3ma3esqUNUGarbvdcbpm58xtBEk9EpJ+cGUj92xwta2f4Wt+7kL+pFcfKEXS//5HM+++TNN6Rfxx8euJNrl4jae9ntevHcahtUf8tdHH+Op17+mIPEqnnrsMiJd4516O0/eNJa2pW/z5AMP8PAz/2FHwGweePY3pB+qswiNJEI0l6rKMmeAaAlxl/PU8zcwonkF7zz7FC99uBbDlNt54dFzCT5Uej2gxFzGk3/9HaPbVjnSe+799Xifeg9//aOYxHVPzy0/d3AQ/zrRDzGToWti844WNu1pxSvNzCjnZwdFpNkmuiqPbqu+HvpWftpoY9z4cCYnNrBsvYqXp/PD/iAGkaUr6/Ab7c/4Q27HPXR592PzpFRcsAH+QuUeQB/aaQcHTa/vaKuIYfGReDcXkVXc+351d+MdFIMZk6jHpsau97HUpmrKyupo6RgIDSbMWh34hRDUVkb27n0UNHjgH5NKXGDXwbImd0f7rdY95bSqom9t6P8kQbXrCUoZSka8L81luezO3ENelUJAfDqpYS6Ny037NJ+FpA5jcJQ39cU5Ir0siluMRKRlIHRk39H8p+UbEExAa3u+eTU6/GJTifV38Usf7AtOGU56tIkGzb5de8mvEzYnZZAY5CIP3M3XXbyE+FFU0Q5c7y6IMJOCTYS1j4OafSbihqUR6V1H3q6dbN28gz1FrZgiUkgUk7IO3C2HVr/ejoL4ExJopTR7L3tza1H8okiJ8ROXnxvXswvutpeBbgfulqPP+epNmITZzc093/Vxu730lUPm6030UM1mKyV7RVlFGwiOCxXTkCaa+n6DyoHWtiIiLKgVJZQ2WU8MMYwuAUukjdq9u0UBfIi87mbCvDex+8Wn2Vc1mJCQJiEuK9rjxgmxSS3NFSo6ccHpLKFYJl3L8CuH0yaETF5OezSIF6JPjCsVi9j10gcULVtC4YevUpAtrtOQMGccQcr5YkbsQcmrD7Ljs/mU/ryA7BffprzVF//09q0ZHSijziQirInyH5dhs9VgbdQmtd32ScRo9pXSkO+yMcYjGnOoGCCK2o1TdHaaM1c5tnjUNRnEjCuXykXtWz4cx7aCztVxR3lttCx9lW0fzqV02Tz2/vMb6vETAtultcefRcIEI2VvPMzOzxc44u37h4inhOKf5mqje35RdEL8bnPaU6VioIT6ggM7EkVXR+OG9njlq9fQ6DuDmJFG6j57nK0/VjpjCfrgZzHlRtNFbW29N19F18gTN23mkg/bB8bu513wqWHBo0/y3jcL+O69p3nwvZ0Y0icyIcD5uaB15fNcMftybn3xM35YsZrl8z/luY83YBg2iXEu+8KjB6dgqV/OW898woLFy1j83X94/J57+NOrK6nprikVPZ4WMciYzARGj+UXD19BhnUbC+YXOSMIt5x7NunWH3nujpf45LuFfPf+89z16mq8J57N6QcuxB+S5PPOYWjrYpHeiyK9BXz73rPc9cpqTNMuRMyTuuKGnzs4qH+djEy3YKxpZJOYM23e3UCLr4XRve0bdgOdXmHLuhqUSYGM2lfLj/Ui7HB6NHFN1a+sYZ3Rn1nDnWG94E55O1FoFQLXw6On66MP7XQ/vafXH3T+0cSJtl6RnUfDQR60cjfeQTELwYOVhsZDbKdyxFNpLdnLztwSystLycksEPl6YDJ2XkiKTqW5tspxq7WqxY6eFhrdqZLeMEeSEGagevcWMh35llOQuZfiVh0+vi77dNy0D0s4sSF6KnZvZW9+qYhXQs5ObUubF74+/Zi5mb0d+TYX7iUzrz3fvMx86oQssJhd8nXXPh9R3lCF0l1b2OOwr4y8ndlUqEI4+3XcbRW4m6+7mDT7RF01urRhnRGTtxgHm1xulFuCCfZWKc0SdVBZTW1ttfg7k+3bMylsX9dqx91yIESXyMPeUsyenXliol9OSc4+iuqE3jd2W3RxB3fby0C3A3fL0dd8HfWiTSjbH0A+ALf93EcOka8SGE2MxUrRjm1kF5dRWiDK2qBpo+Z+i2ElMFzoSBsVxeXY7K0niBgOixGzhhIa84SA9BxJcIZC+ScvUbh6NcWLNtOqK6Qhrz2qR2QEXoofkb//kFPeEceb/2TszTPRrX+VjS8vwdYhIn2iMIsJVN3qJftnoWJ6IlRgC9Y60aKcYebRo/Bu3ELZVqe49jLhnZ6O2aCt7hY44miodiNhp0/GUPMz+Wu0VZMq7a4rnv7B7RGceEVFCY1RSJPrwnBYNCaPVhF24MqqOUIolMoi6ntpm1p5PdkrxG2JM0Sg3VsWDcta19lbGEcOx2TfTtlql810QkxoK1HWepcwN/3iilHYoLMVCDHvDOgB7RaY1+TbGfF/w7F+/zQbPtzWKegF7vr5iFCXxV4X1xeIwb5FTCYCXOYINqI5/e6/89XSH1j04zwWiuP7+yYKdwix7u+MJMjfuYd6y0T+75HruOjsUxg/PIGA0vUsXLCOgm4PGykBZ/CsI63v+ebT5/lNRjVfP/onPnIpbmykqP/CbPa4DPC1e0TnQwTR/RCScVERWgHJ1msiXHSo4mjLEukpkf1Kz120tz2MGWSgdU8jm8V527ZGdokOecSQbsu9fcDRfDOr+GBVDZ8urHbcLen+0og+Ib6rNFSzYJueqRN8tVb/P49WL5EJ4Xg05JNd2vuTK+7GOxR60d4MNNJ0iAcc9GJw9BBT+vIy1xVoRfynYrX2vCLuLdLWibR7WVxyC+/AALypoayss8NVdPVkrV7Oqr01zhD37fMOCBCDfA0VFWL20oGjkaq02VzC3MRDlNFDSNAu+ep1WtPF5pKeu/aZRHm9bDUInSn6Mp3j8PL1wayt2rqoDHfzdReD2SSur26reo7VYrtoGy6dnRg4VJFLYEwiUREhBPqJCbWhlbrKSmpaOoW0u+XQVsy1uUC9EI+d45uGHZs2w+xhfDsY7raXgW4H7pajr/kqot0cbLXVbT/3kUPla/H3Q2+toqKmo85Fq9CK0dwgrvi+o21NDdEenLOWUVyhTcy1e48nAjHRGIWAFP0wRMYK4ShmpHvaK1IRYtGrtZhG551lc1QkasMadj32MOvEsfbhO1nxm1+w5uXvaWh1aTRClGqNuD6vUzAqulJy/3AZy15e4TjXHOYTG4VinsLQfzvFtbbX9qGz8Nz5IXsXC3HYQeBMokYYaV71k0hVj6KvwyqS9vQPEOl0XrTmyEiHuO0yAdLKRzH1+V1XelS7ECwRQpkWF/Ra4Vp5qc8VnYMzQCNaWy0uEROEzkHLJMpLWR51rvlGR4p45TTmu3RwbvilO6ZwIbDKimk4yDXtMeoGRt40GftPz7Ph3xs6JyWCPvlZo6ubDh+bKroQFxwnYuBwmqjZN/72J7h1uierXn6YO26+g1u1440NXb8naPrhJR74+3IaUmZx7Z1/4IXX3+GLBf/l2asG49ntFpxat5yXtHTueJMNzSpl817imXliRuHiGw8PIclUtWuRhb2qaGP6fuhILT1l8K/50CnoHcfrlwlp3UN6A+lnXzMjRVPds7cRuyiSvr6BbaWQPtjnAL+4i1Y/itrM+3/P5cVV/RdoXbHzw8oavEf6M0XUQ/f6PSz6tcf2IAxAevrgWGJ8rBTvK6C5y6DaFXfjHQqzY2Ng4yHffOOIZ2ug3lXLiQHTu/tqogtGx9sTmjjUovPBMBlNIo1GGnpsTp3ldte+9vREPNf0zN6YaBWir++GOt4QIfzX4DofEGFGkZ7rars79mkLFBazEcUjmMGTJzr242rH2GGReNbkdpn0uJuvuzjSaxHix9UvDvuacV0YpqGI3VnltHgGEZOUQvqw4YyeOI6hkcKvzn6jL+XAqK1wt1HvMlgpulYKNq1k5W7XQdQ93G0vA90O3C1HX/M1egs/2lto6uHuSp/83EcOla/R6KntraJzDi3KYNJhb2gSLaYfeIUSEaSjtayMWm2s5wTZJmEUgk9flt8utsJD8bIK8etcCDXHxqAU5lAvHKbaPTFHBEHBdko2b6Jm62ZqM/fSrH3YDV1MpHBnIY1dtxZ3Q4jFcD22Te85hLXjePRB1t59PT8/8jH1bS6d46yZ+HsoGGc/zqkffi6Of5M6SDjZL5COm0ja6rExzNchbl0fdjYKUaprFeU7YGE4Xohh7WHAgh43le8vb1GhmFN14q35y1YkRG77ubYf1xQmLoqirqLa4FilzhfC1xkgcM8vnWh7kU3hxoO+zUKXejUj75iFbvVLbHxtRbeZrIb7fnbQqke7jn0shxhRB4x0pkwMovGnf/L4B4tZtWYta8WxLrebSBdob9ZY9+6fufUXV3D2KTM59axf8MA3DYy/8SbO6f6SCGsle1etYc2yd/jn18WEnXU1Z3XbVdPWJjoYofq6eECvndtweRbUbbT01L1f8ECHoHcet93yAO9vc0bqYAD9bBhqJl30NumXDWbFeyPEkcYVYQqeqSZGOuP0ikHBQ8hSbS/t0aBxdTXL9b7MGixc4Aw7PGzaXIDGpoHqbgcmPVUMiTEJwSjVeeRWHdhHduBuvEOhPexmNInesFkIHmeYhurlQ2hogGMPqeNcxDNpGwgbu74JwUuIJZ22etTDyoC2l9F4mG9P0NLwNgufigwOloa79nWm17W8BpPZsYLd0EdDHf7TtiQIwe+aXvuqrQhzdsDu+08IKm2PbmU2mzdtcR6b2bRuLas3if7cOdlyN1930RYXTI6N401dxgyj2YROFWEuAl7R2agr2M1mYdOKZStYuXoz2dUKvjHhdG4CdK8cGjqzuX0Fso8294T77WVg24GGO+Xoa77aop1J23shxH3PJrnv575w6HyFbnLsJW/uXETTWRDNRcynRMn6MTk3RYj2I8ZVr6hhTJk+WRzjhE9OAEyRkagF2j41gU10xrpIfAaF4JlwOgnTwqlfv8q5WhEthJmOtqK8HgRXVyzau3nrhSjtvJPRA0b0oo5slfuodorr6i3baDEkEJAW3jkzVTKImh6HbedHrLv/LlY7j+0/ixmafwCdj9AZ0Gmrby7iRiWM0NHx2HdspLL7YO8diclfE8OueypccZa3MJdWl/I6VovL86jfL5YseIjBU1W1G07taK9kCx2dgpq5kQqXqZV7fnFFe/hP2Ch83lOjVOIuYPh9F+G57TU2vPwTLV1lnRP3/Lwfuzc5YuIQG990lH4auIkW0UHrPT1F59+O1qEPG5J8wAUUO+u33PV/UwkVdjn2fpdn8dPCTVTpxUxUFKUntHgb3vmITbqxXHVNepfy5hQUQUQ8yS7bwHyS4ggSE5b8/fvfO2nVboEq+l5v8TvSs0DV2jUOQa8da/ZUodNrt9eckToYQD+PHmzBq7mG5x7exXUPtR/Xf1hLq4+Z0XHOSD2grQpkpJkxWVvJ7f4O4SNFSy0LNipMGmZyvIHmsPFvZFAA5BYe3lsO9jNA6RnCEog0tlCYVXLQ/tLdeIdGh4e2t0W7veoM0YRWYEwaKfH+YgLvDNQGP6MY/MRo7ZqfWRv9tFW4HvW4GKiNov1r6qDfNuqFfcImYV9HCo7VsIRRTJ6YTMD+WyXu2qfHoKUnzjvTMxAcZEatqaaqzwtp2p7armXT+qGgIHFBN1RT02f/6cV1Ly7zljpqqmuora0V/9aJsdSMv69oW/uveXfzdRelvYrE0ZGqtrATJPxir66i2mmf9tBUcEwsEX7ty0naFo82YWuttiqm2sSUsAN3yyF84Fwxb+zHQsKBuNteBroduFuOvubriZe3mFAKgdnzaqv7fu4bh8rXA4NoAor2C7fOPAyhIQQ4tmb0fSahigEwIsyErSaXTes3sMF5HPdiWHvizzvETKv2hL12BW38nty8cBIee5PJT/4W3/z32fFZdntkj1jMIUK6FPSgElxwzEyjRMSiwl5XM9vJoSazDsPEX5J+wWmETDyF6F8+zOjH7yE+VbQKZ0ejHzuH8KA6Sr/+lJp9e6h3HtX5Qgz7uorhWqozC2Hw+aRfPIPg8TOJv+MR4uMKyP3vTweu/qpt2EWD9Uo/lZAx4wnSjpTQzkbnLG+jy5szOt4GoXZZBS6kdl8NyrCLybjkdEImzxb5/onkQWXkf7pwf4fprl9USxwBTnuCJ4/Hz0dcl57h7faNGYPJ+dov1XMsg+7/BX4ta8hbUoN51ARnnPEEJrg8neamnztQdN4s2mDBc2gJlwrtfuTJYunPBXhOvYGnbrmIWbPO4Mp7XuDGsfYDxFKT7yDO/vXdPHjbRZx+yhROmX0x99w8k6D6nWx1NtMeKf6Kd+ZVEHPeNZzu8tzjnq++ZqvnKdz53C1cfMZpnHnF7Tz32/E0/fwVC3oQh4XbMqn2HMXFt5zFKdOmMFU7RkXvF7N7vvyaLX5n8vCzv+XC2TM4/cJreeyVV3ju/pmEdutYB8rPjv3CaQZad9Ty1Z4mtmU1O45NP9aw3W5kZPd9w3oDQ8b6Mm2cP5dfFc9Tsz0pWFLOQtflDTdR/byZMtqH6WPNhIim5B1sZpo4nzbcC79eOm8xtvHTymrUWCOH27y0VY/0OSUMwY/Fq9oH9cNhoNJTFR/i4vxQy3PIq+vZDxruxnMHbZWvpkZUoiWKtKQIgoNDiE4dSpqY0Fdmiwl4x3Wua384yHUPYsfT89qA2RGq6k34BQQQII7A4CB8RDOy6Y2O84AAf4z6vtrbLAZ3K4p/LOkJ4cK+YCKThpIe5UldTiH7F8XdtE9Lr662DSUohrTYMIKCQ4kZNIQEv1aKcvoxsRCiQ3s2qtkQTKrDPpGe8F9igJ2KvNLON3G4bV8jtTVteIQlkhITSlCgKG9iOiNGDiJae+Hz/vTczNdt2qipFVb4RZMaGyLyFekNziDW0kxBTpnLOKjDEh5NQnIc4aI+fX19CYpIJDnCk6aScpe7q+6VQxOFjtvt3VbM+4+b7WWA24H75ehrvmKCYVNRLMFEhAb1cB252V76zKHybRFtWUUXksQQ0RZik0Se0Z5iIqBgCY0jsvsbuw6BLiCCMK82yvLyqRMTxgbnoY+KjP6jM87xiWoh4PTz8a9ZTN76EhS1nKpFcx0/qFH07Xvs+3YjrR3L81GTSZydRN28tykXmrNX1FhCLz4TS+63ZK/tPaKi2GjYsgVryDDCpp1G+IThWIwVlH3yItu/F4JbEXNVu5hlXHsTobZ5bH9zLVZtI6MTW/h44ieYqfr6R+ptihadll3baAnKIGzqTCLGDcLYvJWcV/9K7o46R3pdaCuksS1RCM7TiDplOuGTpxFk2EbuGucTVs7y1s97S5TX+V01jYirZuC5/TPyNre/YUMRM6jGbVtFOYYQOmUGYaNFvtZd5P/zRbI2VXfm66ZfdBNvZvxtlxEh7AmfkIqX+L5n0kRh31TCJqXQtvwbqqtFmvGzSDlrMJ6maIImTnV83nH4ta4gf1O5Iz13/NydsmwvEk8p4PwRsGudD3nNB8Zxh7CJl3B2UhHfv7eMwo584qZz7enBbP30U9ZVafWmUrxhPeXBQ5k2aw6zpw8jtOYH/vatjTnT/Nn48RdsrGv/bsP2jWQZU5h8+hmcde4ZzJw8iMCqdbz75xf4Kq/z/l/I+Is5N6V4f76KYicvS8+kKy5glH0Jn6+rcsRTq7exfHMzcZNO54xzZjN5kD/ly//Fo099SZ7oDLpjz9vGbiWNU8+7kPPPnS2E+0xmptXy7acbqBP5qDUivY0txE+d47Dv1FEx2Hd9xwuPvMKqHu4GDIifff35zeW+FC/I58t9LgKluY3wsSHMNDXz/vImbMK+sGHBnJthYczEAGaN9WFIsJ3NPxTw8Ad1VHfUj+rBhDnBJJVU8p9NLtMR1ZMZ5wUSsLucL3Y6lz1GRvDRbRHMnuRDpLaNKcqXWVraw2Ht17XkO9OMGhnCmSFNfDq/nioRZiuyiWsrkFRPGxsXlrO2tu/l1n5COXpyPs9eWUntwhQeW2FwlLG/DGR6xqhBpARbyd22j1p772m4G89dWmurafKwEBQaSmioPyZdI8X7drGvpLnzOjcGERfpQ11hNpUd7U31ITQhFM/qfApr2mdt2uA4anAsYWFaWr54iu97+gSLv0MICfGhrayImh6ukd7Qsm+uqaJ5v30BmPXNlOfsZndhQ+cDv27ap6XXVF1Fm6c/weEivSBfvNUaCjN3kytE1P7yuospiNgIH2r27KElOIG4qGB8DK2UZ+1ir/Cf2kf/adEbq6qwevkTGhYmDn9R3hbKszPZXSRkVkd67ubrJoqI31pTQ6uXHyFh4YSKujLaasjbtZsCId468lUUK3X1dswBoUREhhEeHoK/RUdD0T4yc2r2t33tH7fKoRoJjo/AUl9EblW/dpp2QUvWnfaixRvQduBmOfqar0MnNNgwi8lJeESo47pyvY606G75uY8cOl8b9fXic39//Px9HGXI2ZlJmfY61rBgoaGKKdbajRtoC35hKSkEqUXs3lPdRa8p40aPP7zp/hFGmwUF3/wBwzJ+Zv1tL1PTff+o5KTFO76MZ+/KZozBxPLvY3nwMwtN/Z6dSnpD+rnvqJZabrkpl4uGNFG1OpHbXw4k9zAeeBvI9FRdEIPHp+Fbup01u6u6vNXFFXfjSY4SwWlMGuRNzpqNFLQcxbo4VvlKJEeR435l2DG7KTMQesZ5RI2PQefhjcE/FGO4F9aCSuz9nI1ITnzaqs18tySQYoOVoaF6lqwx0iTbw4Aj/dwPAuu4ZJSOxR8l8sf/+lBxuP4aoPS0xQWfuMEk+DWQtT23y6/AueJuPMnRwzsohki/Zor2lh/V6+9Y5SuRHE2O+5XhDvSDziX10tkEJoThafSA8m9Yc+M/O/eZSSSS45JJZ/7C+deJzfLv3nH+JZEcfaJGTSBeKWBXmQfJd97Dtheepam0mLFPPc/W55+hLmefmMAkknHH3QP6mSPfyJHs2vw91WUlvX5PO5dITlROGDEskUgkEsnJyoQXXyH700+Iv+iS/f/W7sl0fOabnHrMP1t5+42OzySSE5Hj/wE6iUQikUhOcmp27CD1uusdq7CVmzc4zmPPPo8tf3mCqi2bj/lnrTXtD/1KJCcicmVYIpFIJBKJRHLScty/Z1gikUgkEolEIjlSKEPTh8mVYYlEIpFIJBLJSYlcGZZIJBKJRCKRnLRIMSyRSCQSiUQiOWmRYlgikUgkEolEctIixbBEIpFIJBKJ5KRFimGJRCKRSCQSyUmLFMMSiUQikUgkkpMWKYYlEolEgmJuYcqwFoxq59s2VUszU4a2YubIvYHTkZ2nF4pLvhKJRHI0kWL4CKD16R5HcPAYCBzjjoesfonkZEfFysRL8/n21V28ckU9Fme4g6B67nlkJ/NeKOTq1DZn4MCg6qKJueYVzn7tZy5/8xWS/ZwfSCQSyVHmpFVDI2PPYfPIsUw4yGrEkJiz2Tz+ys5jzCROPcTqhaqauW7wJawfexY3m4+OIFbVJNJencfMW8c7Qw6OqnoRctPbzPn0M0adYnKG9h/LjF+ReuZQ9Ie5smO55p+c+dH9hLikow76Had++TEZQ4+OLw+G98UvcdZX8/cfZ3zyKac8fRfR8Z7OGJITGa3ZRc5KYcYsP3S9tOW4G0/hwX+lEe3aRicM4Z4vpzA97ti30b6iqm3MuDGbv19cT/H8BC55MoAyRXF+KsgO5NcPxDG3tY57H8nl1jS784PDxzTzD0w6PZ76eX9m8dN/Ia/B+YFEIpEcZeTS4EHIKl3F7Tt/chxPldc5Qw+FSqvdRqutjZajNTZ6xGEJhcbCLGfAoTDiHWhGrS+gprjZGdY/VDWC8PMuJ3FYMDZnWH/QtIUlKhyK86l3hmnoY6PxRoTlOgOOIZaoKNSSH9n8xB9Z/cSjbHhrIc1RpzPswevx1594QkjSHR2R0xKZNM0XD2fI/zqmsWU8cqqVze8ncP07FnbVdh0SFEVHeaYfjz8cz7+KGrnu5nKG6AamrftEx6Gr+pEtn31L8dadNNtcRLhEIpEcRU5yMawcdDNDQ0sZi2oKHMeaJvduESpKI+9nfsaY9fP5Z+NR6tyjY7Dom6kvKHUGHBxFqSb/8YuZd9VN7N15uCs98ZiFhm0syNYSdoYdGnNsA6NCXL0fhSXSE1thHo3OEA1zVCTUFVBX7Qw4RqiqPz6RPqj5G8hb8TNlK5dR/O0/WPvRVggdTWisM6KkR+IzGoj1lBOG4wltVfjsORUEFQXzzNfi2jvI9au0evPyu8FURpRz1ZiBqce2libwMp40Ew+JRHL8ogxNH3ZCjFDatoa3g4p5YF8bF8UlkuFhp6Qhh5ez1jOv1RlJMCH+PF73y+OXG9exwdm5q34TWJ0WyHubvuVvLe1hjvQCi7k3y8qlsUkMMdgpFun9TaS3wCW9DlIiz+DTyBpuX/Mzi3oYNNTAyWxMjkXf8VnrXn63fiU/9xDX35TMHbGpTDaZsdibya3P5tXcLSzqIV+3mPoQc+6OZs/vbmBP4YH5aaiqkbjHPmfoiM75T/V71/Lzx4XOs06UiKmk/voKogZF4+Xjgb2uhOrl77D51UU02cUEQlWIuP8rRk/ycn6jK2r9fFZd8Rcqeii7ObaOX11ayuXj2vj2j6k8ub09jqpOZsTHf8Dvm9+y5N32FW5V1RH98DcM93ubhXd/SKszvUPZ14FqiCD0kl+TMi0DS7AFe2UWJd/8g21fbsfuYlvwbf9l3OCFrPvQQOKVp+DrZ6Nlz2K2Pv93yis67BvJkHefIuznu1n02hZHmIYy4xHm3B7LnluvY3eOM66b+bpTDlUdw7AP/kzw4r+Q6XUmKZOS8bSVU7Xw72x6a+1+n2iohkjCLhP5Ts3AHOhNW/keSv77N7YvzEZ1xutIL2jx0+z2PJvUKckY2sqpXvQaG/+1skt6A+nn2Xdt5ckME99/E8qr35jJbe38fn/Q2mDwaYM449JwIoIUGnbnM3+FN5f8n5nF1y9nRWlHeVXM6fHMvDaWhDhvPK1NFK3IYt6b+ZQ5+wJ1ZDp3/TEGk0vZO1BVOzuem8dnS9o/07ZJXD2miLd/tZP8Dp9OGMK99/uz+tal/NTRBlQDcRcP5rQzggkJNKC3tlK1p5hl/9zBVjFv7MAd+zTUQWnc+nQku1/ahjprEMOSPLFW1rL9gy0sWNzoUr/u5auhqg088c5exi9NZuYbh94uperqeeqtfQz/IZUz3/Z2hvYf49lvcf4lVSz/1e3kuLQniUQiOdqcYCvDYVwZbmBJwRoey8+mwpjGE8npJPSyv++QKKFcE+bJ0sL29CpFek8mpRPfn/Rqt3HHriWOLRXPlruubXZF9Uzm+UFjmaEr5z+5q3isIItiYzrPDhrFmH4+dGeKikLXVkh9sTOgR1TKP3mU1dot/jeX0qS20Jh/oBBWSSP1j/cTH7KXva8+zupH/sSWBRX4zL6L9BkdA6ZC9ZdPtqf1ySZsagn5r2lbB9qPNU9+RJUzZgeaCL757r3MezaHs33M/OOxRJ7Z5vxQIzwWH28bDXk5zgCNOMyRetoKcveLNPfsE/FUf8LveI6xZ0dRt/hdtr78CtlZPkT9+lGGTOwcyDtWfFGGEDW6hvwP/s72r3agG3wewy4frUVoj+gTg48fNBbltZ8LVNWT4BHpKA27qHIGu52vm+XAX/hFe6Jp6KmE1vxA5muvsG+nnqAL7yZlmL49jkBVA4i481nGnBlB7Q9vsfXv/yS/LILYWx4jdZCL0HCmpwydSXj9Yna99ho5WUaCz7+LtLEu6Q2wn+e9msLDCz0ZfN4+vng1iycurD+slWJdShKX3BJDYFkBP76yjWWbvJhwdpBomV1RIuO5+E9pxLeVsvz1rcz9vAKPSUO45s5wTB11m5XL189t5NNnN7M+W0XNzuWLZzeI8w18JsJXbW+P1hc8Jg/i0l8EY1+zm2+eXc9nr+2j0DeKc+9PJdylf3HLPhcSz4yBlbv59pVMtlWZGXvbcCZEOT8UuJuvA0MbgWYoLjM4Aw6BzUCJuLAD/QfmQbrWxgZRkSY8Dl9XSyQSyWFxYolhQzPf7V3FvyvE4FW6gZvzi9FbIpnuZl9+AIYW5u7rmp6HTySn9CM9pa2axc4tFetbex8s4oISGaMv4oVdq3izPJdvy7ZyW9YeKrzjOVdosv5giY5w7LWtO8imXUVppnHLcspWiqNSxZNi6vJ7ECNJU4gIb6bw7WfJWbaaio2rKHj7GdY++yxZme1bKhTFTvOO9rRqGwzo7LmUz9e2DjjT35K3f0WwUwTncabJh5ceSeOsP4Tx/hZD19uycVGYKKEuz6UQHnH4hEFDoYtAdsM+B2mXkj7Zg4KX72LLh99RuHguu5/5FyUtvgQOSXRG0kjAJNxnK1/A1mffJm/xInLf+5sQdOAdGu6MI4iLEfY10VjRgt5kRB8YQ/BFDzN0mpmazz+mrMNsd/N1txxx0SJfG00LXmDDu99S+NP37H7xv2KyEYhPgq8zkiDxfNImGSl+7R62fPy9yPdbdv31C2qVMAIHBzojCWKjMIr0mn96mbVvfemIt/OVr6jFT0w8XNIbaD83ePHtB9FccGMaD873JM1FFMcYemiHhyB4YjhBLWUseHwXa38sYfNHW/h+WesBYjh0Viwx1mLmPrqTNYuK2PrZDj58pxzD+ASGhrTHUarr2b2khO0/FVNaKwJq68gUf+8QYTuWlFJQ3j3VQxOU7IdXYynLXs1l+/Iydi3K4es/r+Pz98todtkX4I59nXhS+9Nm5n1RxPYfc5n/zF7y9X4kjuxM0N18HYjJiPbop9VtbaugdW0eHn2vLw2HFvcU4tdowjMwjbhhSdgLNlEuH5yTSCTHmBNLDFtr2Wt1/i2oa6kXg7iJ0J7v1h+aXtILOYIvB4j1skBzNbtcBiB73Vpmr/6MR7SBuI+oagiWcCP2ojzcHVNM0ZHobPnUFzgDXLG1YRdyKeSiW0g8exZhowZjspRTvXQxlXktzkidWLQ9vRUF1PeyxWPqJTn8Is6bVx5K5ew/hfDJjm4i2Il3dDQetkIaXB+Ui4zB7NFCvesKtpv2WcaPwdi4iZJNart4NZkwZmTg42mjscCl4M4V3+oVi122COhFPs201tRpyr89JDoKb5FvzO+/ZM6H4njrTcZfEU/9Z39k1cdZIlp7PLfzdbMcHjFRQrDspEiIsv14eQkLVWxNTc4AMI4eidm2lZLlLo8f6vRCvtixNnSGecRG48VuihcX7LdZEznCIHE5uDTAgfZzB0IUz/0wmgt/l8Z98w2MvjSfawc5P+sDvgHiIhUittLl+c+y3Abhla4EhnmLiWI9FXq90GE6x2HPr6NOMRIgJkFHiso9NbSYQph2WzJjZoaQMFj4pbJSiOsqql0eFOubfVYq8lwutIoGKsQM2NOnswN0N99jQwwZf/yJS/+5hIteepMM8/f89MQr1PTQH0gkEsnR5ATbJqF2G+y088PpSHtO70j2zXpn2q75aqJEW2vr2PfXNxIwCz3aXCBUpJvfN4eLUba0kPqeVoSy/suWd5fSHDCZ5OvuZMwfX2LGOx8y/qKUA16Kr6oWLJFCSRZ1fQOEK3l7fagLqeCmG4u55ZQWfLp5vIN2UZ1PrauojokWcqyIhhyX77hhn7bX2F+IPsU8ndH/cYrXD7/g1MfOxXPHe+xYWOOI50DEM1FDfU7nE3qKUsK+e89j4fNLnSHak+9R0LiG7Q/dy4qHXqOkQaV16cusfmcNbU6/9ylfN/3sEyXyrcnr+gChY5W6nPq8TiVoEZMJyvKocfWfsNmoxcvpFK8+kdoDibnUlDsDNGK1VfliEeyyKj/QfnZBNbUw66xy/m9WDQFVZnZWOD/oC0oP7Ui1H9C69OKCU1JSufHDWdzbcTyVSID4THcEn9yy/ryTT94pozUxiin/N5Krnp7G7e+fwmUX+HZ5bVvf7BP9k8uivKJU8M3VC/n3h53bstzN14E47cGLh6ZfX9IoIeuNm1j4xE0seul5irwuYNJvzse7u10SiURylDnBxLAYOJx/taOdiwHCpS+1Of7uFk+IFZ2Id+Augp7TO5I47BP2uCdb3SAgBotZpb7Ada9t76hqoBBEJtTCvB4FrKI0UPXfJ1h+4xXMu/g85v3ubnZu1RN0/tmOAborQogLXd1clNvrk+jbvojjjNuSeGNPG+f+LpP5f83njhnN+Lu8nklVTVjC20W16+q2KTYGfasQgkXOAIF79gmBG6GnbeNbQrhq4lUcD97Nz7dezQ/3vU+dtdNWvRDch3p1myb6LJEhULCNok0bqNj0OXnrG/EcPYnALsV2P193yqHtSbZEBwm/dK0rLyFyPe0izFnljn3PEWYozO0aT4hcg034b388TyHqg0W8rukZY2LwsBV0WZUfaD87MLdw5hX5fP6PXfz51DY2fZzImTdH80kvD30ejOYGoQrNBiH2OzEHeB/QodnEBadmZ/PJQ6t41+V47+EN2tbbPmPXOpHubV3X3r/YuwhVKzmfbuX925fwwmXzeeoXS/jkByuJ1wxipMuFNND2uZuvgyY99cJmH4uL4QfFjq9oZg1N/Rs2FKWVxn2rKd2+ipK1n7Hxp614DZ9NpNwzLJFIjjEnlhg2+JLksp/Xx9uML42UuayG5TQLOeXpxyCXeElGX7zUBvK73+XvJb3S7vEErdqSjBgEOx8x6h95LcI+L38Guaz6KJbRLBh3EY/69EOIx0VjppKG/M5b5gcnzrFHtknbh9ttUFfVGMKv+Q0Jo9pHTcXeQlvBZirzGqGl5cDJhHcUFhG12eWhsp5oLTHz75fjHaL49UwbZ9+QydyXCjg/vKO83ui7bU1RiSRybDz2rWspd2bsvn0m9GKAtZfvFcJ1A5WbN1KxeQvNnskEDY7UEnLG01ZetZXSQ726reNBvhyatYmMYqd01Tra/McRPsTVh+7l63454sQkQVyiIs8OuaKtxoeNToWsLZTtXxD0xUOIFC35Dmu0SU/E2DTUzLWU7V9AjsUs0rOKund9a4RjVb4sj1rnlqEj4efU2fl8KUTwH6fZWPefZCGCY/nz9yZRt92EpZuUbK+k2TeC6deGEhzkiV96NDNPO/C+Q2WJKLwm4LZWkrO5ynFk57ai6MXk2GWLVAcOQStM6s2qqjJxnflZCHHZ3x8Y64OHvZkqlwdYg6anMOvyECzCB5qr26obyVxWQaNwmF+oM5Kgr/YdCnfzdSAmR9nC5vjE5i4/wdwrAU2kB4o+tmBg9pF5eGkquK19giGRSCTHEH1YSNgfnX8f10T4pXGBlwd+PgFi6NcT45PI3VEJhDTt5i/FZVQ7B/f6FpVRoYOY42fEZjeQ6DeYeyMjaavcyBNVtVid8RzpeXsSbPHHcpD0OqjTBXFZSBRRSjMNOjPx3r4keNopaml13CYPFgpzgsmPBBGe5hPDJJONvMY2fLV4XooQJM0OAVLdqjAuLI0z/UzoVD2R5hhujhnE4LYsni8opEDtmu+h8Bh7MWmjDdRn1qJExWOJ6zhi0NUJ0dOkoPokEDwqHUt0DObEcUTPECIpZxNN+gjM2v7hunxaHa9xiiDmlrtIGRGMtaoFj6AYfMdfzuBzM2hb9Bo7N5aJAdbFPn08kRdNxmyvp7HVB5OWvqWFxrJ6h4Drjq3Bk42r/flwqQVrWDP+hb6sdTyc1IKSPJuYiYOwKI2oQWlEXHELyRmVZL2kvd6sQwq6a18tHoPOIXrCYCHXxEwpSJT/9P9j2I0X4Vcwl/xd7T+goq34Bp9zPeHWpeycv7X396x6jCT+V1NQl79F3vb2NVW1WE/AeacT1LKe7PVljjB383W7HB6jSLh2MkqbgeBgT1T/JMIuuIXUiZ6Uvv0ieTkdKrcOXZrId3waPvoW1GDhv8tuIWVkE3l//yvFJc79MKIcWnr2n/8lytG+Bu94G8RFVxFcOY/ti/c4621g/awxdHIN+pXR3PlyMPN2e9LYx3beHVtuLdUhoYw8K44J5ycyVvgkc0UDsWkeZH+dR35De/oNpQoJ5yUyNE2HXeeBf1oYU347jBmT7Oz8qpxaFzsURUWfHMWI0WYMDW14RgrRGycEf1UDDc7XnLWU64ibE0f6MAM2m57AUXGcfmEI+nWZzPupfv+WGf2QRM79ZQyRRhttJi+CkoIYc0mc6DeqWPV2CRXOSYDb9gUHM/50Hyp/zGJPSafN3XE3Xw1F8aA2pJbLpjbTuCKADXW9p6u9Ai7jkkJuTDXyweuBbBqAd6j7jP4lyTG57PniR+p7u/YkEonkKHBivWc4sJgHsm1cEptAuodKcUP2Ae8Z1vA3p3BPTKoQpCa8bA1sqdrGM/nZ7HV5l2X7e4tL+EOWjYtEeoM8tPcM95yehnaLeVLkBH4fHkacwaP9fcL1mzh761Zyxd9zki7jmeBe1o2bd3Z573GAsO/OmBQmmiz4qM3k1OXyz9xNLGjte1UE3PAek87qvuSj2ZvPnjt+ReY+BWXmn5hzywR0PQw4qlrAnjuvJXNv+2eew69i6HVnEhgViEHXirWygMplH7L93Z9o6raKp/nE/6KHGXHhSMw+BodAsi7+E/Of/9kZw31Uy2ASf/c74obH4aVvoDlnAznvvUH2lsouwtpd+1RzGvHX/47E0Ql4eVppLdpB0Xdvs2ve7v1vulDVBNL+8SrxmX9k/osrHGE9ocZcw/SXL6b6yfPYvNIZpnoT/YdPGB7zLUuv/wd1HWm6ka+GO+VQE37FKS+eS+ULf6Z19q3EJftiq9hD8edCkH6f2UW8O/K94UYSRsUL/zXSLNpT3odvsm996X7/qXG/5JS/XkjVk+eKcjjD1BEMfe9pQpbczo//3OEI0xhIPx8ptMVMQ4CJ4DAdDbl11I4fxUN3eLOo+3uGM+KZ+ctYEuO8MbS1UrGtkGX/3k1mD68iVC0BTL87gzEZJkxeOvH9FtY9vIjvN7ukNzSBWSK9+BhPDM0tFG/IZsGbuRTXu/gFL1J/mcEp0/0J9Dega7NSm1fO+rd2sGJL55Kvu/btf8+wiy094W6+Hag+dTz3YhbTa0K56/EwllQemLb2ruXY6SW8dlMZ9vnJXPiGscudhf4Set18Ths2n3m3/YXKI9xWJBKJ5GCcYD+6UcL161exSnackpOB6Q9zxp2R7Lrht+wrlm3+UFguGM9tv7Dx9eVr2OzygxWSg+OdXMHffl/EOE8jy74N556PTDR2TKB867nr9iIuHdZC5YpobnzRj+xuk+L+4nPBB5x9Hux88QG2C+Xf2tDUz4eIJRKJ5PA4wR6gO7x3R0gkJxLaT1Er1kIaDvpjKicvunA/UiaEOI5Bs1M4/3x/WreXkNX5kg2JGzTvCeL6O5J5ZIE3lghrl4cSsViJ1Zt454UULn524ISwRu33L7BlTwCpd33Cha/9nWQ/5wcSiURylDnhfo75N+tXs1KuHkhOAsLu+ZLR8V/y041v0iDb/AFoK8G3/yrAsdXA1tBC2bY8Fr26hyznT2hLjn9UVY8hNBG/YB0NmTtpHkCxLZFIJO5ywohhiUQikUgkEolkoDnBtklIJBKJRCKRSCQDhxTDEolEIpFIJJKTFimGJRKJRCKRSCQnLce1GI4aOdX5l0QikUgkEolEMvDIlWGJRCKRSCQSyUmLFMMSiUQikUgkkpMWKYYlEolEIpFIJCctUgxLJBKJRCKRSE5apBiWSCQSiUQikZy0SDEsOW5RzC1MGdaCUZU/kig5uVEtzUwZ2ooZeS1IJBLJQCPF8EmIpi11+uN3UFWxMvHSfL59dRevXFGPxRkukZy0BNVzzyM7mfdCIVentjkDJRKJRDIQSDE8AKRPzmDlLWP2HytuiGf6cbqaqapGJj4zk/s/msr0lMO3UTVYGHvvJG79cBYPfDmbh76aw2+uMTs/7Tuq2saMG7P5+8X1FM9P4JInAyhTFOenmlAO5OVPx7P0Ft8ezztQpySxQYRv/mxC1+PtBCafYCvNmrnDTo/m9tNNePRi+8jrhrH53/FMOIJla/dpBjeEHx/+c8cvE24YyebXYxnp8rk6PoFVnw7llrhjXw532zPZgfz6gTjmttZx7yO53Jpmd34gkUgkksNFiuEBIHtHNr//ZrfjeG5XkzP0eEWlrcVGm9WGdQDGU9+zMzh9go59b2/kkyfX89ET6/j+h/77wDS2jEdOtbL5/QSuf8fCrtpuTVSIGmE6to7Fse7nHWwt5I5ndnH703msaVapWJ0l/t7J7S8Ws90Z5cRBYciUKK6bYsbLGSLR+B/wi5vtWVF0lGf68fjD8fyrqJHrbi5niO74mJRIJBLJiY4UwwNAY2UDP2XVOI71tcf3io2iNLP2Dz/y9BUrWL63c8W1vwSGm1Cqy9j4XQm7V5Y5jtzC/vlAWxU+e04FQUXBPPO1JzaXFeFOhFgQQqGtrSOP7uftKNVNLF5VzQ8r6ygVHzWX1rFInC/a0ERVj+lKJMcC99pzB0qrNy+/G0xlRDlXjZFiWCKRSAYCKYaPMtrd2sDIUB67OJ1vbxjJwmvT+cepQaR7dh3YtHgJaTH84+ph/PjbEXx6QRTThsXz882D+IVP3wdBddow7nduY9COB9/PIEHLpBvR10/jwXfTGTI5jV++cRr3fjiD3z6aRlq4M4JA+5bepMNTHAYPLUSHh1nvONcOvct+ZC0L05B4zn9mKrd9OJO7/z2Fq2+JIdzSUxlaGJFip3SThe323gRru1iw2rqKh87zvtGxveDcSbG8++oYVr83ii8fiWVmWE/2HRzVFMKbn47kyWvi+fLdsXx/XwjDx8Ty6dtj+emZeE71d/WLSuCgMJ7881AWvT+WVf8eyps3BJPq5RJnRDxLPx3Pls/Hc99Q4Y+hSaz4fGL7do9Px/HclANtDJ0cd9ByaPURlBHG008Oc+S7/PWh/OumEIaYu8dTSD4tnndeGc2qD0bzxUORjDeKcOfnfUXLN+mUOP798ihW/mc03z0Ww4yz2rdd/Dq0M9Uj5ZdDoap6xl2QxH9eHc3qT8az/v1RfPWoaBdxzghO3LFPQ02LZcGno/jDKQE8+PgwVvxnLItfHsQDU73Qa87YT9/bs3WLhVWNbQwf3OoMORDvxOlc8evruPbSiUR69N0fEolEcjIhxfBRRvEP4S/nRjPCWss7i7N5fmMthoR4/joriCCXQVIfGslTM0OIrqvgH4tyeDvPwGXDfej3mubmffu3Mcxf3uIM7AUlmHFzPMj8cDvffVyCNSWeC+5JIKDDvogEfvWf04VQnsXlp3uJ6HFcLf7WzrXj11d2PvKmRMVx6SOpxLaWCuG1he+/Kkc/Pp2r74rC1EUUCAxtBJqhuMzgDOgJG62OlbOO73Y/7wc6X66cpWfxx/t4/L+VtCRF8NRdkcR1t88tPBgeYeXN98ppGR3LX+bA++8WkxcZxm1nCzXpRIkI58U/xDHWVsO//rmXJ76sxXtSEm/cHkRgR75ZJTzyQib3Pr+bz3JEWE4xDz+/S5yL44XdvLOjPdp+3CiHEhXGSw/FMbq12pHvU9/W4Dk2kdfuCCbYJZ5HajQv/jaM0MISXngti3d2eXPdHDP9m3KI9pwSzfM3hRFTXsbfXs3ijc0Grj7D74D2fET84gbGiXG8cLU/trV5/PG5Xfz+nwVs8w3h0XtjGOLqP3fs24/ChDNCUFYX8NirOXxfbeLym5P4ZaTzYwf9aM82AyVVYlLtLyL2gt5kwdtDTFbFv0bZy0skEslBkd3kUSYtPYT0tiqe+yaPj3ZV8d3GfG5fXoNXfDBnuLw2ITHJn1hrNS99m8/HmVV8tVYI591t/RbDSnU9ezq2MZTYnKG9YGll24tbWbGwiK2fbee/n9WgTw4h2c/5eXkR3zy8mncfWsX8Va2o1cXMFX9r59rx1fzOPcNhp8cQZRWfP7qTNYtK2Pr5Tj58pxyPUbEMC3ZG6sBTxVP8o62M9Yai1POn61ZxzjvteXQ/7xfmNub+bR9vLqrkqy+yufPLOjyF/6d2lLdPKOxcUcCX3xexqNCDwk0FfLqggG/3QGRYpxgedHqYmBBV8MTjOby3uJIvv8jhpveqMI0N5xynX5SaJhYtq2Lu0koya0VAbQMLxd/fizDt2FTRrTW4UY7Bp4YyrFXk++f2fL/6MpffvV+F98gwznapj7QJov21VPDsU3l8+FMln32yj+fXt9dPf0geH0BCSyXPPpHL+870nlreekAHdET84gZxyWZ8Gqt4/Z8lfLeymgWLS3joyR3c958qahx3P9pxx75OPChespfHv6rgu59KefLZfDZ5+DBphN75eX/bs+IQzB4HWfGt3/IdH3zwCR+8v5C9rf2eQkskEslJgRTDR5loHy+oa0To2v3UVTRRiReRLqIlzCxkR2MzeVZngGBPRXO/b1P3ifo6SsqdfwuqCxpoE/aZAtvPFWszxZuryBFHSZUd2poo2VTpONeO4pLO9cMATQCW1lPqshjdnFNHPUb8u6yQHUMamtjtUt68gmZaMOAf4AzoI+2reu23u2229r+1f1y3KseFinZQ0kSWhw6zSXEc1vwmShVvYiOckfqKG+WIDfOGsiYyXeqjNqeJcryJcck3zF/YV9VMrkv7y8xr6vfKcHiAaM/VzeS45JuZ33xAekfEL26Qu7eROlMAv7slmitP9WfyIG8CquqEuK4nz9ZZcX2zr42cfJcLvaqFnDobJsvB7nwMDIqi0lJXQ4P1qPQYEolEckIjxfBRxqAXA6uqdhO1qhAFCh4uK1BKT7LjgO8dIbrnY9fsEyH9yFyvlVd8vwvO9HUu5XXQvywOH0f5XBD2aeU9kutpBg+RenIsX743nhUdx5+jiBa56rv7xV3cKIcjXxGvi58d8brm6xDu3epD7f69PtDjM4s9pHdE/OIGjcuzufO9Khrig7j+16n844kR/PD2SF45z4Sn8E8HfbNP+NWlQhSlhoeuXcuVnxxim5K79LcyJBKJRNIFKYaPMlbnEmFXbaCIimhfSeygpkWMol4euN6pDzIbTrgKc6yM6ropIWf5bS6rjg6a9NSLYvtYuki6/0ms2upxThF3PrKV37gef9zJW7udkY4AjnxFfXSpEVEfWvtrc6kPh/4TkVzjKd2/1weq621g8cDfea4RHGCgc8NAOwPtlzbHjqCeyivan8v1pig2Vn2+j/+7ezOnXLma8ddt5I5FbUy4Ko6LXIw+VvXWFTu+Zu1GgOy+JRKJZCCQvekA0+oQfxwwyHeQV9ci1J6JFJdVJEuwN4G0UlDtDBDsKayn3hjE9ZP8STTriYoI4tb0g/wYq28KM86/gLOnxB9XP19cWdIMIRa0u8sdeMf5YKGJqnxnQAeqJ9nFEJ/Y/D//E8w52r4RIWgqt9Wxcku941iRa0PRdxWlHTheLnDAJKrvOPINMZLqUh8+cUaCaSa3wBkgKKkW8QK8iXW5o58aY+x3h5G5s45an2Bu/EUAyUF6ogeHcPeplq4r2YKB9kteuUjP35skH2eAIF6Uw8veQkGpM0CQOC2aBy71J0y0O5EcTdXN/LC8liq9gahQZyRBX+07IgQ0kR4obCno7w5uiUQikbgixfAAU1DcSLXen4snBTEjwY/p2hHpibdT3GVuK2ObRwB3nhXNpan+nDk8hhcn+tOUVcb3DY4oDhr3FvD09maSRifzwXUj+eTsYArz6pyfHoh/6hBSwoOJyMggwdsZ6IIpOYiUCSGOIzZMSHW9keiJoe1hI014HSHxWbogl3zPcM54KI0xM8IYcv4gLr8mmNa1uWytckZyoihezF9rxHN4BVdGOQP7iepv5JTx/pw2wYdQ0cq9Q304VZyfOtLY+VaMY8jOBSVstITx+O9juHx6AGecHsmzfxrCK78NJsxlxVJD2/+p7dclMZhbZwcxZ0qAOPxJ9+17OXYuLGGzZxAP3B/LVdMDOfecOP5xZQCNa0v41qU+dq2qJs87iLvv0+wL5IJLErl7vJ5DPHrZK43L83h8UTPJ56fx2T/H8s39IeRvqnF+2slA+6V4WRlrrf7cdF88V4tynHd+PH8510L16nIWu7yZrN5s5sJLE3j8l6GcMcGf06eH8vA1IYTUN7Ap1xlJ0Bf7jgTaq90yzq5kmOrLDyt63zeiqtGccu3/cf0FIw58a4tEIpFIuiDF8ABjyy3gkdW1BAyO4/Gzknn67BSemhZEx4Pmak0p936Vx0aDH9eeksCdI31oy8rh1vkVVGpLUk4UxcqCH3Zw1r+2ct1HW7ngrZ28VtL7Ptba/FzKmlppKsqlqMUZ6ELcRaO47IHRjmPWJC8UUzDTneeX3hJDiDPeQKMWZPPJn3aR4x3GlBuGMuf8YGyrt/P+8wU0upS3g22fhzO/oZ7f3l3CtMDDGMSHRPLCvWm8KETLWG+FoHEJ4u9BvHh7OOnOKMcStaiY2x/LYZNPIDdcn8wfrw4lpqiIux/JYV0P71he//E+Xt2pZ86vknnmzjSeuSORi7q9A9cd1MJibns8h7VeAfzf9Uncd64v1rX7uOGlcipc6qNtVz53vFZCWVQYd/w2gV9nWHl3bu+TsUOhKK3MfXkrp/56E1fet4k5N2zj5Sz1gA5owP1SVso9T+Sy2sOvvbxn+9C0OosbX6mgxqW8JXP3ce+X9QRMieXRu9J4+oYYJuuqeemZbBa0dMbrq30DiaraiZ1ezLPnNJA/P5T/uKxsH4BPANozkI1lRT1eZxKJRCLpRBmaPuy4XTaIGjmVgg1LnWeSkBGpfDXZzpOv7eartv/dAc47uYK//b6IcZ5Gln0bzj0fmeSA/j9I6HmDWXi1XQjKnXzmIjglB6L61nPX7UVcOqyFyhXR3PiiH9kub7k4gPjpXDs7kfwf3mbhnv/9PfgSiURyOMiV4eMYD19T+zYLcZyWHsmfRvrQXFDN6qO1N/EY0bwniOvvSOaRBd5YIqx0vp1XciLjEWZu36oijtmnR/PUub407qhiZbMzgqR3LFZi9SbeeSGFi589hBAW+AQGYKCS0qL+bmyRSCSSkwe5Mnwco60Efz3V17FP0NrcQnZhBa/8VMjKBrmKJjnxcKwE/9JPu99Pa30rWTtKefGf+fzcjx/JkPSOtkU4cdYvmRmWyZfvLqdU3lWRSCSSgyLFsEQikUgkEonkpEVuk5BIJBKJRCKRnLRIMSyRSCQSiUQiOWmRYlgikUgkEolEctIixbBEIpFIJBKJ5KRFPkAnkUgkEslxgqIojkPyv4v2hijtkBw/SDEskUgkEskxxsPggd5D7zyTnAzY2my0WY/C77hLDoncJiGRSCQSybFCAU8vgxTCJyFanWt1r7UBybFFimGJRCKRSI4Rer0eRSeH4pMVre61NiA5tsgrUCKRSCSSY4ReL4fhkx3ZBo49sgYkEolEIjlGKDp5j/xkR7aBY48UwxKJRPI/jGJuYcqwFowuT6+rlmamDG3FjHyifaDov5/dF0I6ryDiMkYyfvIUpk+fxMRxw0mN8sNwktSjb/woJoyMwWg/sLyq3Zvo4eMZk+jrDDmRkGL4WCPFsETyP4aq6vHwcJ5I9qNpFJ3+5BANGipWJl6az7ev7uKVK+qxOMMdBNVzzyM7mfdCIVenyqfZD4ej5mdjJMMnDCfO0kJpzh527S6gosmDkLRRjBscjIdTIKqmOMafOpEkn/+9tq7zMmE2edHzDlsdniYzZqPBeS6RuI8Uw8cxqqowLGQYt4cE4iHfSXhEyLj7CzZsXrv/WLNyPp++fi9nJ3k5Y5xYqGos1767mNUrPuHGIT23GVU1MPTiW7j14qEnfLtSDRbG3juJWz+cxQNfzuahr+bwm2vMzk87UVUjE5+Zyf0fTWV6ysCWWZ02jPu/nMSUiAPTVSYO4R5h14PvpBPXzdfhv5rmsLfjePDjoaT0UB/uxnNFVduYcWM2f7+4nuL5CVzyZABlru+uzQ7k1w/EMbe1jnsfyeXWNLvzgyOPZnrkrBRmzPJDd6K3v6PoZ//YRALbctm4ehtZ+cUUF+aQuWUda3ZV4xmVQLi3M6IY1rXb7vJVxRKJ+0gxfFyjY0hgBtcFBnJiSrMTA7VuJX+/427uvOMeHnr2c3KjzufR1x9hhu+JOFDbaG1uobW1mRabM+gADGTM+QXXzkk/4duV79kZnD5Bx763N/LJk+v56Il1fP9Dk/NTV1TahEParDasR0/3ETUkCM8GK81+gcTHOwOdVP6wxWGvw+alPdncjrvxXDGNLeORU61sfj+B69+xsKu2a1evKDrKM/14/OF4/lXUyHU3lzNEd7Tau47IaYlMmubLiX4D42j5WbXrMJs9URsbqet2XbcUbGbFz1sptgp7YkcyeVQMJnFlRw2fxKTJQ4nwUMX3PYgcNpEx8X74xQ1hzORpzBga6kxB1Ig5nJQRo5k4dSpTJo9jREoYJhc7Vbsev5jBjJw4iWmnTGPqlDEMTRBtu2M12iV9n+h0Rk+YLNIZzdB4f/TCdr/YdEaOF9+dOokxgyMxu+MDgy9RgxIIPox2qeJNcKIo76RJTJ8+hcnjh5IYeODK8cHKfzDf6YLjSYv2R9SM41xy4iLFsERiLWHLwh/58Ycfmffff3DnXR+QG3waV5wd5Ixw4qAoBfznNzOZMPka3tzxv780FBhuQqkuY+N3JexeWeY4cgsPVLuK0szaP/zI01esYPneo+MXVfUmYYg3jauLyLGaiRnu6fykndbcqv02Zxf3fgvd3XgdaKuVZ8+pIKgomGe+9sR2kCVCpdWbl98NpjKinKvGyAG9LxxNPys6O5WVdaLBx5ER49tlj7AiJsDNTc20qQrN5VlkZlfSgpWqnN1k7sqhyiGeFTy8jJij0hkcaqM8O5OdeSI9DUscY8anEWKvJHfXTnbnVKCEpTN2RLRD7KricvJNGcvo1AB0lQXs2bGTrOJWLPFDGZnYsSmkPX1TRBqpQU0U7NtLXqVCQPIwRo0eyaCAJoqz9rCvsAHPyEEMS/Rxfq8HPHyITBWiXgjulOD9y919RrPbL3kkw2K9qS/Yx9Zte8ivNxIzbChRXi51cIjyH8x3qs2T4JRRwtbRpJxEe7f/F5FieIBQzSNZMO4C/hAUzYODzmHFmEtYPOxUHgi0oHe5Faj9BGOgOZUnB53FojGXsmrkmbwZn0Cq6yzcdyxLx13BlgmXcZ+/6GD9x7FiwlVsHn8lm8ddznOBnXEnxJ/H5uGjGOmah98EVo07k1tcLnh37RsZew6bR47lXP9RvDvsYlaPOp8vU0cxs+s47jbj//A96+ffy3BX+057lOWb/stNLrerVdWfsdc9yXvzFrJiwxrWrFzAF28+yDkpXWfxWjKBI6/iz29/xoIVy1m++FNe/8MFpJg609JQR9zN3E0LeOjcU7n/7a9YunoJC795nfvOjOtS3p6w79jGjhYdUbHRzhD38x1+31esX/wwZ512J29+9yMrRDm+fONeZsV23eWmbYEJGvcLnnzvc5HeMpYs+JQ3Hr2MjG6r0W775YynWLtpzf7tHuuXPsKkbuVUpzzMYhFn45Yl/H6cgjLuHpZtWdcef9MqnjmjM77b9rnhZ9UwnSeXrmHRn6d1vRY8TuHJn9cw94HRWobO0EOjxdSbtP2BOgyOpUUdHma941w79C77gtu3MLRvn3BsMXg/g4Qe8oq+fhoPvpvOkMlp/PKN07j3wxn89tE00sKdEZxofgk+PZ1fvH4q93x8Kjc8kkhcb+O1TzBxMSpF23MozIGojMCjtC2ghREpdko3WdhuP7Twt26xsKqxjeGDW50hfUfbehN70TB+9cap3PvZbO7/SPjvz4MZ4rIaro5M505RFw9/PYs5w0T7G5bBvV+f0V4vX87iwmku9TYojVu+nMGcU0OZ/dQ07vlkJre/No5Z040orm1I/G0aHMe5T0/ltg9P5553p3D1jVGEuIodgarqCJ89mCv/NoO7PhHx3pnOr+5NJD7IJS1TNFd/eQrn/jKd3/5nJjc9FEPUuEFc/8FM7nh+MCku/W47R9fPjdlb2FZgI2jwWKZOn8iojGRiQoUwVjrtsjdWU1bZIOSxnUYxSSwvr6VZtNkOPChj65rtZBcUU1TdJASjgai0eLzKd7Bq4z4KSssoyd/L+vX7aApIIjlY+66Otspc9mzdxLod2RSWlJKXuYU95XYsIYEYXB5mMyjl7Nq0j+LSYrK3bSOv3gNfS70jrKhUfG/3JnaJCZ0psOv3HOgtRKQMZ9K0saSG2CnZtY6fl22n3A3f9oyR4BAj1qI97MwppqJc2LRlA5t25lPrTNO98rfT3XcaalWmsHENO0tshKSMFqJ4FMmRPiJu97YiOd6RYnhAUZgQloRStYXH9m3k+1Y/Lk+ayC9d7kUrXmm8OHgUY9Ui/pW1iieKSvEOmMAbiXEEdnTyjbt5ZM8y7t29nM8aRFjDbh7evVSci0OEv+Oc0PedQ9vXThhXhnmwuGANjxcW0GJJ46nkwQfseRxIjLPu4bnbxmP76U0evfce7n/iHbYHnMEjL95Mhku+StxVPPfqrYxpW86/n3yMp95eh3HmA7z2xJmd/tuPjvGXn4+y6HWeeOxV5lckcOljj3FNt9vVBxAaRaTwSVV5uTOgj/nqR3PFZWaWvPY0f/7791QkXcLjz/yKeNdyJFzNCy/fzKjmn0V6j/OX91djmH43/3jqAoJd4rnrF9a+zV133sOdd9zNcws77e7Czv/y6H0Pct/v/8QXe1TUPV/yyO8fEOcPcL8If2+DM57AXfvaOYSfW5fwpbDJf8ZZnOoiHL1mzGKKpYj5X60VGfZhwItI4Ff/OV0I1llcfroXSnAcV4u/tXPt+PWVLo8wbd63f/vE/OUtzsBeUIIZN8eDzA+3893HJVhT4rngngQCXMqrS0vh0huj8SnMY9Er21ix08zks/yF9DgQ3fBAIvT15G9pIHdXMx7pQcQ6PzuiGNrEhBuKy9x8kMhmoKRKTPb8+/+Al8fkQVz6i2Dsa3bzzbPr+ey1fRT6RnHu/amEd/gvK5evn9vIp89uZn22aH/ZuXzx7AZxvoHPRPiq7e3RXEk8MwZW7ubbVzLZVmVm7G3DmRDl/FCgRMZz8Z/SiG8rZfnrW5n7eQUek4ZwzZ3hmFzqzWNyhhDJ4ehEe5j30ka+eS+XqphELrknHr8u7dmD6IgWlr1TjG10CheKCeKqf+dSGRHLaed0eTTuqPtZoZni7atYunQ9O3IraTOFkjxsjGM7QmKgextO2qqrqBcp7UcXSJA/1FTU4Wk2YTQaHYdJrae2xQMfXzH50Nlpqiokt6QBVafHYDTjHxSKr6fwm7eI60xKo62mZn/6iq6JhgZxZTQ3Uu+8QBShOFqaxWTA4Ll/i5aqNxOeNJSJU4UIDraLMq5m2c8b2VNYg9XV1j7TQkN9G57hyaRGBWLSa/lbqS4upc7qjOJG+Ts4wHcdWOsoEiJ/+dJV7CiwEpyi1ckIkiIs6LsLfslxixTDA4oXxeUreLwkm+8qd/Pk3m1sEgPsJP/OZdVBIcmMsOXyxO51vFeRw5fFa7kpr0jMlNM4xxlNaatmUWUecyvyyNQuWmsVCyty+V6EfV+ZzyZrfzuIQ9vnwNDM3L2reFPY91XxGu4sLMfTEslUN/v8/hCbnoqlfhlv/PkD5i5YzMKv3uXh22/nwZd/ptYl37QLL2B46w88ffNf+OCruXz17ye45a8rMZ1yGWdFOCPtx5eS7/7IE29/w9yvP+Dpu99is8dgJk7yc37uRNHj7WPGbDETFDeB6x6/mqHWLXw/t8AZoY/5+lQw98FHefvL7/nm3ee49R+r0Q2ewjSXVcZB55/HkNaFPH2Tlt73fP3W09z8t5V4Tz6fM13iuesXpWwHP/2wmB/FsaGw2RnaFaV8B4vmzuf7735gV6UIqMzkh+/mMU+EzZu7kM3Fne3KXfvaObifFUVlxX/nUWCezJlz2gWFqnoyY/ZkzFnz+GqLI8h9yov45uHVvPvQKuavakWtLmau+Fs7146v5nfuq1Wq69nj3GKQW9LrJup2LK1se3ErKxYWsfWz7fz3sxr0ySEkuzSX0ImhBDSXsvDxTNYtLmHzR1tYuNbW497XmGGBeIoBNLcQCnZW0eYbSHyC88MjiRAp2hVtdVtzKbSKuB4e/R+4g4STvBpLWfZqLtuXl7FrUQ5f/3kdn79fRrPTOVpd7F5SwvafiimtFQG1dWSKv3eIsB1LSiko796veVL702bmfVHE9h9zmf/MXvL1fiSO7PR26KxYYqyi/h/dyZpFWr3t4MN3yjGMT2BoiDOSwL5uO69c8xPvv5nDzvUV7F2Ww/ffVGIYFMr+O/0OdBSv2MuW7/axq8BA9cZ9bJq/h617wC+s24OZx8DP2oNx9pZqirIy2bTqZ5Ys38TeOm/ihw8lwnDodNXu4szLG6Po/0LTJzF5iusxgmijgrcQiBqKOZzUkeOZduopTJs8luEZ8QQesIjSQ/oa3SbP3U7RhyaTnhCCZ2MOm9ZsYV9xPW0HE8EHG/5cPtNEfPEO4Z8qHaFpI5g4YzpTxg8jJdKCrsNON8uv0WPZXLE1ULx3K2s3ZdNgCCI+PYXQIzhmSgYWKYYHlBZymlxWn1rryBE9pUnf2WvEeYmet6WGLMUDs17vOKzNNZRiIbaHzmVgObR9Dqy17O6YOQvymuvFN73wP4IXdt723dRbJnPD47/l8vNPY9LIJAJK1giRtpq8ts4eLi4qEvKz2afXxKvJcVj3ZVGmRBEb54y0nxpy9lU4/xaU5pJb3YzZr+teYCXgbF5cvoRly39i4dcvc1NGFV88/CDv5TsjCPqUb002e0udfwvq8gqpJYQwV5GrpVeYRaaLbq3NzKKCKGJcVq7d9ctA46597bjh562f8e1uLyaddWb7Spz3dGZNNrFz7tfs7eNj74q1meLNVeSIo6TKDm1NlGyqdJxrR3FJT+u0blBfR4nLonp1QYMYlL3ERNUZIPAJENdKdQOVLtdHWW7DATdFVdVEwmAvbJnVaM3IvrmaYrR9w0f8Ij8mVO6pocUUwrTbkhkzM0SU3YSxslKI3Cqqbf1tp1Yq8ly2FFQ0UFFnw9On04eBYd4gxFOF6Ec7tsnY8+uoU4wEuExS7TozQ26YwB3/nc19zjsId98UKiZqBsxdXkurYrdqtanSJuZOqk1rSyJMBCnH8PUM2v7X9rsnnS1NE8a2xgrR5rOo0vkTEtSP4dzaSis2ijb9yA8LFx1wLNleIfL2I3VUOuH6CvZsWMWSH35kybJVbCnoedLdV2wFW1i5aS+V+mhGTZvEqNQo/Lqtz3TQ2iouPE8vvHssqjfe4nvWls4xTmmrIXvzapYtXsqqdbvIb/AmIn00w6KdGbhRfnfQ6sfgF0nqmElMGR2DviKLLSs2UdTvti852kgxPKCITtP5l4aiFPHQhk+4sqjeGSIuGO036H2G8+WYy1jRcWQMJlpMaY/8LzIe2r52usbTpvKOvrhL4MDSOP8v3P3SMhrSzuD/fv84f3/7I+Yt/Ya/XZuBp8tSgsGgR8n4DZ87xKvzeOtKIdF0eBwg1oXdLjYrylL+MH0qV7+a5QxpR61dynO/uZHf3vQaa5tUyuY+x+PfFWpfcMboY77C3E6LBcJ+VVuycOkXtfQ047rGsws/d03PXb8MNO7a186h/awouXz+9Wb0Y+ZwVhiYTp/FRO9tzP0qxxnjOMBRTy4IBeTwgEtghx5xjacKv3T5noaYCMTEQIkQw6qHgq6umoISiBwSdOT3DXezz20Owyzrzzv55J0yWhOjmPJ/I7nq6Wnc/v4pXHaB72GUt/3hrQ4UpYJvrl7Ivz9sdIZoP2OroKSkcqPLNpl7n0okQHymcy4ga9kn/Ho0p4/Xseft9bzfcRfhw4qu/VxfOZp+1gWSMX0GkweJknVboVTMRrwVG60trqURbc4dHdZWS22THv8AH4fw1/Zga4dd9cYvxBcvbUwy+uHnZaVkz26KqhqwqoqoFwUfn84tBIeDtoLbWJbD5p+XsWprEdagJMZMmcyYwTEEOQzopLG6GqvwRWT4gWrZEBFJkIeNmur28UzFA0tgmLBd+Mtupb6qmKzN28hvFOUNdN7ucaf8B0HzgzEwmkHjhAgem0ywrZgdK39mxaZ9lDYeVuuSHGWOuPySdMWqqYb6Xdy5fQG/cT12LOGtBmekPmBz9ItiQHCcOREjtk50BYe4KXxUsGkrK4qua0MTEwJFDEM2FwMVpYrV/3qEGy49n9MmTGbSaZdxz5f1TLj1di5wud1ptdpQ9/yXuzXx6nL87oZ7eGuzM1Jfaatk94pVrFzyJq9+WUTYOb/ivGDnZ076lG9X3euoD628rgO7ll67H1xw+MmmLVbsx12/DDTu2tcXir/4mjW2YZxxTgozZ03AsGEe2pzjREITVt3rV3t9Vhc/CfQjA4gSjT7qmuk8+PkccUxiQriCx+CAI79vWAzu2h5NH4u7g7EdXzM0NPV/OFAUKzmfbuX925fwwmXzeeoXS/jkByuJ1wxCuOKIYRMdoJqdzScu22S0472HN2hbjZ34kTLSk9ZVu/j6i1IhiNrvIOQUHt6O1KPqZ3sV+QWNeEWlMzItmjB/M0YvM37hCYwYEYexoZDCamfc5kaaVS+CYqII8Dfu/zGOnlB0DeTsLkUfncGIxBAsnh4YzP5EDRnBqKEZRGs7Q1rqqbcaHOn5mTzEJMNIYPxQUkIGVj5oorihNEuI4p9ZuV2I4gBRtinDiHR9uLxiH3vKIWTwWIYlhhMgHGr29Scsfghj00PRVe5md2lHfDNRGRmMHJZEkMUgJvFmAmNiCfUWgrmq/cEbt8p/EPSRQ5k4SqTfVtIugjfspaTBJtI9rJYlOQYMbGuWHJIc0bFoGwwr60pZWVfmOFY0tYrBxE7bAX2WELSOwbeb2HUhp1koaE8/Brms1iUZxYxWbSD/EM8LHQ1yC4pAzPTTXIRbYkoiXrZCCvKcAYKEs27hvt/NIEyoDc0XTWV7+WH+Bqr0YUS53O7MKRDqySL8t3oVq1audhwr91SheLRhc7l13R+0fNf+6wM26sfxy19mOJVPO33K1y+epM5XeOITE4kv5ZSWOAMEjvQiEkh1eaDMJzWeIArIdVm4dtcvfUNMRLTxu7vYdcFd+/pE9fd8tbSR9Nn3c9EEPau++44Kl9X3LvimMOP8Czh7SnyXn7c91tRViYtKCBHXV5WGxJoP8GPskCA8msqYd/dy3nAeb71Tjs0niIREZyQXbNqteTGAHqpDdiue6kl2McQnNrvnu4Am0gO1Ou/l3rTGIeojaHoKsy4XYsLRTrWHjRrJXFZBo94bP5droQPHnQQRr7f25y6VJc2a5qFha+c2mexc0Z/qRd+5/7q0tf/t0dnetSJEp/geXv5Hws+9oAhBWL17I5uy6vCOSmPo2AlMnjaBMRkxGOuy2bR+D7Udb40Qwmz3zjKUkEGMGjPskILOWrydtdsrMMRmMH7aNKZPGk2qfyt5W9ezp1q7p1VJ5pYcrP5pjJ08nRmnTGBIWC17c7vfURwYFJ2NhuJ9bFz+M6u3FeKai/YAXMHmtWzNb8InbjCjx09g4vjRZCT40logyrGxgFanEFWoYfem3VQaohk+YSqnCLtHpQbQmrOVrXmdWzwOVf6DoTYKEbz6Z5YL/xfXawsIh9uiJccKfVhI2B+dfx93+EbEUVec6zw7zvGM4Beh/uSU72BJa+8XRHmLwsTIDM4267ApnsSYo7khbiK3BKosKi6iyKV71h488jQncIGfBbOtDbO3L8lGHzyttZQ5Xw1T36IyKnQQc/yMQuAYSPQbzL2RkbRVbuSJqlqsHWLDTfsi/NK4wFTP10UF5Hd81zua64ONbC7Zzeo+7oGqL9Ix8qJLmTMpVAxIFhKn/YK7rx1P28K/8dT87P32eY75FX+67RwGm1tps4QQnz6RK66/lDHGTbz314Xscz40WFFoYMI113DWMBM2vS8xI07j+vsf5uaZdha98zNFHQNC+CSuviCZ3G/eYWl+7zaHTrqcC1OL+PatnyjQbKnbRUXM+VxxVgy5n8xjj9NX7uYbPuUKzo824j8yFR+diZix53Hnb2YTkv0Zz761nmpneSuKPJl0xeXMHuUrhmpfEiZexN03zMa85jX+/Mkumvrol+CMqYwfliiEVjypo09hYpyVvOxGfMV5QqSe8txKWp1pKkobhoxzOH9KNOa6ZsyxiSSnxOBZmUV5U9/sc9fPGlq+WU2xXHrNNOLalvPaw1+yu5eHQf2HTmdaajCWECN1WzMp66Xd+Y+NZ1hkPZu+LKe2wyYXTMlBxKdaCBKKIHxIOEmRdqoK2vAS50FigtZQ1Op4P6zv6DhGxDWy+bMyajrSiQ5l8lRvCubmklPTHtbY7M2QM6JIStWLKYWBkPGJTJxsxs/XLnyQR269IoSWiVHXJhKZlcVnIr3aylbqK1qoKdCTeF4kfsV5bNrZ9b5Ni8GH0aeF4u/VSovRm0DNvgCVmhIrqku53ImnKB7UhtRy2dRmGlcEsKHuQL90oN0SzrikkBtTjXzweiCbGnuOe6j60A9J5NxfxhBptNFm8hLz3yDGXBJHvHcVq94uocIlvtav6ZOjGDHajKGhDc9ICyFxJvRVDTSI/tFBcDDjT/eh8scs9pT0bn9DqULCeYkMTdNh13ngnxbGlN8OY8YkOzu/Em3CcV2KayciklGnhAr77Nj9LSTNGsS44R6Y/dT99ab9yMPwi0No/XkvO/MMxJ0Rh/++fWzOVIk4NYlkazHLfu68fTdQfvZofz/gIVFoo6mqVFzXOeQXlFBckMOezL3kFlfT1OUumxB4daXkZueSn19IZZNdiEg7NYVZov8/8EdbtPqw1ldQkJUjhHoJRbn72JOVT0WDSNTZpuxNVRTk5lFUUkJh9l72ZFfSUF1EVm4FLSKONlHvKf2G0myyCmuxu7Rha1U+WXmd/VFviCuJ1voGWjr6dCeK2kZDZbEoXw55RcIPuXvZvTubwor2LRyuqC21FOeIeFq5NH/tzqKwqqmLPYcqf29lc9DSIMZgMbM7RFncwaZtUpccM6QYHijcFJtqWzlL6qwk+SdyfkgSp/v6YG/cy1N7N/JzDwN+UX01OksM54clc05wPKcHhqFWd+ah2KtZWttCtG8s54bEM83kQVbleu7Py6XERVgfKzGsNOzk53UNRI8/nXPOn8OUFC+yv3+JB56ZT6nLA2D1YhaeZUxl6hlnc+75ZzNrSjpB1Wt460/P8Fl25yxerd7C0vUtJJ1yFuedfw4zx8Ri3/k1zzzwEss7bhNq9FMMax1f7l4d0665mDHqYj5Zrb12wf18HWI4YTV/fa2FM279FRdOS0Ld9TVPP/QP1tV2rjKo1ZtZuqmZxClzOPu8M5g22J+yZa/z4GOfkutSP+76ZervP+QvN53B7DmzmJRoQvGMYoz4WzufNUZlybs/U+LSYRdv2SsEzAzOu/h8zj5jJqfNHAsrOn3lrn19EcMa9hyFwb+cRfjSV/njN/t6/aGCVruZmLgglLKdrN9eQrNrW3bhUGI4+fopXHJVFEOmRpIU44FiMBEv/tbOM4ba2e38nrtiWC2vIqfKk7jxIs1pIUToKln8YxtDRnt2iqqACKb/IoSauVvZmOlyC725Fb9J8aRb6ljxU10XkasWVVOs+DF4ViyjZkYxdJqwL9HKprmVNPcjXuk+T5JPK+Xi0bBrjZkc5yTHFW2vc+z0Ev52dTU182N4eKmh3/XRsruCUi9fUqYLkXtqNOmj/cVEq4LlL+9gYw8/glKTWYuSGs6I2TEMF2UYPDEIdYOL8HVTDKt11ezZbiN4XDQjZkYzeKgF9uUz7/lMspziVCtSzTZRz0EBpE0TPhsfgE99EQsW2Rk2zqvfYlhjIPzsrhjuQBOJdpuVVmub+Kt32uOJGL3UaXe0aKpI1+q4bXTgd7T02qyt4nP30zySaBbY24Qf2rQ9+73bs79c2lY3d+L1Uv4jjRTDxxZlaPqwg98HOIZEjZxKwYalzjOJ5PhH+9GNf89ew29PeZTVx8GAcbyhjL2XuW/MZvWts/jDT7LzP5J4J1fwt98XMc7TyLJvw7nnIxONzjap+tZz1+1FXDqshcoV0dz4oh/ZfZzoSto5XD97Gf833zAi6Rstrm96khx15J5hiWSgEWOdlBUHov0K2NTzTie0YjHfLO3fDw9I3Kd5TxDX35HMIwu8sURY6fLsv8VKrN7EOy+kcPGzUggfDofrZ20LheTkRraBY49cGZZIBhDHyvCcNfxu+qOskivDXVC9TuUvi55myNe/4cynXH7uTiI5iTF4eqDTd/25dsnJhd2mvaVHLhAcS6QYlkgkEonkGKHT6TB4afuG5eT55ETF2tKG3fVl7ZKjjtwmIZFIJBLJMUITQW3aqqC8VX7yIepcq3sphI89cmVYIpFIJJJjjPZzz3oPffuLGuQWq/9thAjW5j7aGyTkfuHjAymGJRKJRCKRSCQnLXKbxGFgNA7Mb7NLJBKJRCKRSI4NcmX4MNDEcFNTD79KI5FIJBJJH5DbJCSSXujYVmKzodqPjGSVYvgwkGJYIpFIJIeLXq9r/yU6KYIlkoPSZm07Ir/WJ7dJSCQSiURyjNBerebhKYWwROIO2qRRu4My0EgxLJFIJBLJMULvoQ3DUghLJO7iIcWwRCKRSCT/Oyg6OQxLJH1CUcT/AzuBlFehRNJPFHMLU4a1YJTviZRIJD2gWpqZMrQVM733EQM9qEskJwMDfd3ow0LC/uj8+7jDNyKOuuJc59nxh8FgoK1N/p74yYaKlUmXFvHaXflcEefNhwuNNMoBTSKRdCeimpefyOI3E220ZpnYXHHg+pPjwTk30XkFETtoEINSk0lOjCYyLBATzdTWNWM/CbZa+MaPYmSCBxWFNbR163NVuzcxI0aTaq6jsKrFGXpkcdgzOJbomGjHERUVTnCgPyZ9E7W1rahyXDhi2G32Af3BErkyLJH0AVVtY8aN2fz94nqK5ydwyZMBlJ0gHZ6qpnHnN2tYu2EV//5liDMsldu/Wc6qtWv44IYYR5jk4Gj9b+SsFGbM8kN3mJ1x3I2n8OC/0oh2SUedMIR7vpzC9LiB6+j7S/ivpvHQV3P2H/d/NIMbHh3EkFg5yLtFdiC/fiCOua113PtILremHcbP7hojGT5hOHGWFkpz9rBrdwEVTR6EpI1i3OBgPJyvnFJNcYw/dSJJPse+/Qw0Oi8TZpMXPe8Y1eFpMmM2GpznRx6HPZ5tVBUVUyyOkrIamnU+xKSPY+LQEPRH6DVgkoFHimGJpA+YxpbxyKlWNr+fwPXvWNhVe+JdQln79pExeToWTYAlTGdy4A52HL83YI5DdEROS2TSNF/cX9M7cVEbyvnxiXV8JI4v3sylIiyG8x4dQopFDvSHQlF0lGf68fjD8fyrqJHrbi5niK5/fvOPTSSwLZeNq7eRlS/EV2EOmVvWsWZXNZ5RCYR7OyOK9qnotD2VzlPJkaWthoJ92WRn55C9T0xSNq1m5fZKPCJSiPN1xpEc98htEoeB3CZxcqGtCl/w6zzmqCHc8ZIvpSfcbclgJl11IaEbllI3LYWKd+fRcO4t/J91HT+HjiA88yM+XVfrjCvpHYWo05JIpozli2qwHYbq8B8bz7DIejZ9WU5tRzrRoUye6k3B3Fxyao5tG7OMjGNUXA3L/prNvoJGyvdWsX27jozzYwmtzGNz5mGsdJ5EKDYP1pbYufisCgKzgvmhoLNe3dkmodp1BMcnEWQtYldBnaaynZ8ILVZXRnFRBbWtbXjHjmLcoBCMHgYswRFExQTQVlRCXZuBqOHjSTPW0eCXwtAhg0jzbyK7tMGRhs4cTnJGGmkpycTHhBPo3UZtdT1WtT0f1a4XYnwQ6RmppCYnEBsdgp++herKRkf7V+0e+9OvsyQxND2VpLhQEaeJispWfOMGkz4ohdTEGELMNmoqa/en3SsGX6JSI/GqrKLRGdc7OJZIUz0FuZW0dr/uVAOBsdH4tZSQU9b+/n8Vb0IShd2Dk0lJjCM63A9DUxVVTV3b7cHK71q27r7rzZ62Rh2BCRF41uZSUtc++Tmkjw9ha6cdNVR5xzN82CBSEmIIDTSi1lVRb+06yeqSn+hTAo0qdVV1LnXamV6NKV7kK+o2KZaIAE9aaoTPXaTNQPjR8XlwPKmBUFfbhO0wx8+B3iYhxfBhIMXw0UU1RXPNf0cR72Vixn3DGT/YSmFzJJf/ZQTTJ3tRsaaMyibnha7qiJgziHNvH8qs61KYck6MuED1VO+spNoZRyP6+mnccoeZyqIAZv9hOHOuFuJkhBf1Oyoor3dG2k8TV/1fJQGrw3lunaczrCvj//A9Xz8Yycp3llHi7BzV0x5lxRc34f3DR6yp7LDPn3G/foRnnrqfe+66hd/+6lLOmhhLw46VZFZ2djDatR406ioeevpP3P/72/jdNWcyPtbKzjU7qLR2lkMdcTffz/sTCYUFTH7gJZ584Hdcdd5EIqs3syKz2rl3rV0MJ+34gCUhFzOo4Bt8zrkR5r1H06Q5hG7vFMOqaiTjsnt59LEHuPeum7j+yvM4dYiFos3ryW8fPx0Mv+8r5j6eTH7eGO77+xPcf8vVnDshgsqNK9lb09lRuRtvYMvbif/pf+CT95/kd2f5se3z5RTYun7ewcHiqSPTueu1Ucy8MpnkMAUlTIjWK1OYdkUyUy9PJKRwDzty2uNr5TAPjeesu4cy+9epTD0rksRYldLtNdS3dqbprhhWxUAfd/EQLrwrg1nXpjLtwliGjDTSvK+c0mpHFAfa4GBOj+eMe4Yx5//SmHaeyDfCJuqtlkbXsgxK49Y3hxFY2kjSDaO58IYUxs0Mxreukn3Z1v1iyyGGExrZ/FkZNR3tuVJPzEWRhJSWsGZ9+95Mt/N1sxzuXpfu+rkjvarSQM54ZASzr4xn6DAv6kR6FV3SG1g/u2Irg8FCDA+v8+f9TZ0C2B0xrCgqbV7BxEQFYrYKMVTXsn+PsJBrjnFIO7dZm2lsMeAf7EnNvkyyiyupbWihTfUgMC6J0IAAArybKM0roKS8lvpmMX5Z4hg7PhmfhmJycwqFf+34RieTGGSlqKBWfFfBN2U8Y5JMtJYUkJtfTI3VSEhcPOFKOQXVor2oekf6IX6++BpqKMgrpUHxIzw+mhD/IEK860RYCTWtXgTGxBKmKydfiOQe8fAhMjmDYUNEet7NwtayfolhVXSjfiljGRmjoyI3h+yCSpo9g4lLDBEThELqOurpEOW30bvverXHEEBMXCBtJVmUaO3LDR8f0lanj0N9fAgJVijPyaVQXAyKfxRJSaEirwJqO/pISzzjxqXgI3yRm1NAeZ0dS1QySZEKFflVtGptZ3+d+eHv3SjKVUhJTRuW8FjiglVK8qqxijINmB81/3iFkibEckJ0IAZbI3WHsddd7hmWnOR4EB3RwrJ3irGNTuHCM1RW/TuXyohYTjvH4owjYk3O4Oobw9Ft3se8lzbyzXu5VMUkcsk98fh1v4B0wYw704M9H23ju/cLqI+J5/x7EgjsHs/QRqAZissOf0+acdY9PHfbeGw/vcmj997D/U+8w/aAM3jkxZvJcMlXibuK5169lTFty/n3k4/x1NvrMM58gNeeOPNA+8TlPP7y81EWvc4Tj73K/IoELn3sMa6Jd37sxMMjlx+X1TJu1o1MTt/Csh/teHk5P3RinPUwrz54Ch6r3+O5hx/m0b9/QV7SL3jumau77G91oB/NFZeZWfLa0/z5799TkXQJjz/zK+L7Ee9IlFfDKyicYJMBc0go/j3PYxwcNF5WLl8/t5FPn93M+mwVNTuXL57dIM438JkIX7XdGU+gRMVx6SOpxLaWsvz1LXz/VTn68elcfVcUpgPKcWg8Jg/i0l8EY1+zm2+eXc9nr+2j0DeKc+9PJdzVf5HxXPynNOLbtHy3MvfzCjwmDeGaO8N7zDfxzBhYuZtvX8lkW5WZsbcNZ0KU88PeCDDhJ3zTWNXsDHA/X3fL4cCN67JPflZEenM8yPxwO999XII1JZ4LRHoB/bCvr352YDNQUgWB/v1bQGnM3sK2AhtBg8cydfpERmUkExPqi0EI5Q7sjdWUVTYIAWensbqMciHamp1CUsODMrau2S4ETTFF1ZpgNBCVFo9X+Q5WbdxHQWkZJfl7Wb9+H00BSSQL0aVdZ22VuezZuol1O7IpLCklL3MLe8qFwAoRosZlX6xBiONdm/ZRXFpM9rZt5NV74Gupd4QVlYrv7d7EruI2TIFdv+dAbyEiZTiTpo0lNcROya51/LxsO+X2/okl0YsRHGLEWrSHnTnFVJQLm7ZsYNPOfGqdabpX/na6+65XhJiPSY/B11ZFWZnoJ9zK49C2duBhVslbs4l9BaWUFueza+0GspssJCSJ8U74VMsvelAcptrdrFm3h/ziMorz97Fh9W7qjHGkxhidKbVj0Fexa8NuYVc5ZQV72ZhZhs0nFGGOk4Hzo1qVKep0DTtLbISkjGbylFEkR/oI3/ZyzRxFpBiWnGDoKF6xly3f7WNXgYFqceFtmr+HrXvE7DVMKFUn9nXbeeWan3j/zRx2rq9g77Icvv+mEsOgUBI7NXM75ha2Pr+NlT+UsPWrTD7+oAJdUhipwc7PO/BU0fSRdQBuBsSmp2KpX8Ybf/6AuQsWs/Crd3n49tt58P/buw/4Noq8b+A/Nduy3HtvsWMSpyeQXiHtjhpKQu9HOeCABO54n+OB43i4BDg6HB0SCIRytAskcXovpJDqJE7cey+SLVuW9p2V17FcYiuxc+Do94X9xBqNdnZGK+1/Z2dHb2xFjUOsnTznKgxtXItFD7yAz35YgR8+eg4PvrYDnlPm4vfhSqZTfFD809N4bvFyrPjPZ1i04GMc0A7A2HG+yvPN5F/vObBhG1SzLsWoI5uxrloDTbs7Uhq3LsJVU6/Evc9/idVbt2PLymVY+PkeuA2dgDHtx8F5l2PF/zyDxd+vxPJP/omH/rUL6gETMClMeb6FE/nORX1lRZ8/gBmz52D27CeQamx7cHHUVT5VlRHpm4pxZGMRSuQO9JpaHBd/p4m0tE0lyC9rzR86PRqRliKseOYofl4n9qtvj2LZkjJoR8RgSPv9ygmBib5wryvBlrdzcGRbKY6ty8Z//m8Pvl1aCrNDx2LIjBhEnyq3EIe+SbOXqxsdj8HN90w6cEPNxgNY9V0hjqzPQerzJ5Gn8UXC8HY9lSo1dAYN3DzV8IwIwLhH4xHVVIXDm1qDYWfLdbYedk58Ls+onb0acfiVQ9i+Rt6+I/j6m2poEoMhNumUc9POLVRoFN8dWu3ZHfhVMKPoyE5s3rwXaTkVaPIMQeKQUZgwfiQSArrvXZY1VVXC6NgTpw5AoB9QXV4LN4Mn9Hq9ffGUjKhp0MLbRy/efhvqKwuQU2yCpNZApzfALzAEPuL7EB4ir7IqWVN19an1q9T1MJlsgLkORuVil9iV0GBuFBGYG1rOvyWNAWH9BmPsRBEEB9lEHXdhy9ZfcKKgGpaz7DVs1gCTsQluYYnoHxkAT/Edp1JbUFVUglqLksWJ+rfo0HYtPKIwYvJETJg4QZykTMa0KaIevk3IPXQYBXI5TpXhxLa2qCpEfutHT2yRCQUFRuj8fOEtJ6j9EeCrRnl+PhrVDttrzkd+hQq+AWJjHE5EbFVVqHWol7WqFvXi3RFvraJ32xGWWhSKk6Jtm3ciLd+CoCR5Hx6GfuFev+oNhwyGqY+RYLOPjZIg/zy5ZJW/ZUWaSHKcd9CmNmDQPWPwyNcz8ZdlM/C4WBb8MUTk0cHQPpgz1qK0UvlbMBeZxGHHHV6nPaj1XO6RdBi9xuOeZ+/FvCsvxrjh/eBf/DNWrdiF3KbWesRGRgB5WcgQBwyDl6d9sWRkolQViZhYJdMp1cjOKFf+FkpykFNlhsE3UEloplaJA+fun/Dp6s346ss1qBBp7a84WsX6Z//lfaz+eRu2bduELWLZ8OQE8Vof+PsrmVpUZ+FkifK3UJtbgBoEI7R9MOxEvnNRX5lKZUNtQS5KjF1/2Tqbrzv+oeLLv8SIEocZnszZteJgqoefqOKZqjhRjQbPYEz6UyJGXRKM+AHigFNRIYLwSlQ5XJYPCPUQEb0R5eLsRg5e5cWWV4talR7+HU4mLCjPdbhUXW5Cea0Vbt4tYUozlU8U5imfoUffvghTExux99VfsKtYySA4W66z9bBz4nN5Ru0s1ldcpvwtVOWb0CTW5xmgJAjnpp17j3xjnK2hCoWZx7F/51Zs2rYfJ2s9EDd0MMJ13e+zUvtgw90DepUGIQPHYfwEx2UYovQqeIjARqYyhKH/8NGYNG0KJo2/EENT4hDQdjex67B+Wbue8vYd55qQRAyMD4ZbXTb2/3wQGaJdm7oKgrt4yvE5OYgvShPtU6lGSPIwjJ06GRNGD0FShJe9B9XOyfrLOq2brKkaeRkZ9huTM7LLRegooTbrAI6XilBeDkadKMOpbVU0NYgSHINcwWw2Q3IXAagc0cn/qhpRX6ecgShUakmkNUCl92hzAmO1igOpI8kmatC6/t5ux1OsJhSdPITd+7Ng0gUibmASQv57E4F0wGCYzjvyl238nSMxfbQaJxbvxdK/7sQn8rKsHG2/HhQif5uvG/vjTr5x2+frgbrUF7Dg1S0wJc/GXX9+Fm8u/gKrNi/H67elwM3haKHTaaBK+QO+VQJS+/LxDYgUH11thy8OcVLgUEGVajP+d/JE3PR2ppKiEJGvynYQSx5fgBdXliqJreTx1uMe+yceneqG7a/+GX/8w/24V17e2eNk+0nisWi/9k3oRL5zUt9fgUYjKtX+4Gmvr/jSda4Trw3L1qP4akkpGhMiMeGu4bhx0SQ8vHQK5l7l02Z6N7lcVVJ/3K8Er/ZlYQLk85eO5cqXVJU/BZWqHMtvWoOPltUpKc0kYwlS5c/P08eRZZZQsykNKzea7ftRC2fLdbYeduJhmxT747Y71Rm1s5J+inidfNh3TDw37dxOm41wjv19srd364vlQMtaV47sA5moVPshOPAsDueWRjTCisL967F2zboOy6Yj5aJsX/QfMRBhmnKc2LcTm9aux6YtO3HQsXuyB6z5B7Fj/0lUaKIwYtI4jOgfaR+G05nGRgvg5g6PTqvqAQ/xOosIFluoRKCadWAXtmzYjJ17jiHP5IHwgSMxJEopwIn6d6up1j6OOD+/QATFaThZaoVPXCKCNcp75WQZ3W6rQqMTX4Tt9nmtSFOJchrk/aRRLk8Lt07a0E1OFM+f6TvX2+0o78863wj0HzUOE0ZGQ1OeiYPb96Ow/QnxfxGDYToP+SJpuBsadx7Df74rQeaBSnHAEEvBaS66icQ26fbH4sDZ/qBVr7Ff7vP2cogg2rHKPdUqddsPllot1mcTzymPBZWqErs+fAr3XHclLh4zHuMunovHvjdizEMP4yqHni+LxQrpxNdY0BKQKst99zyGjw8omXrdIEwaF4S69f/Ck4vXYtuOXdgpll3Zp5lpokP7iUBBDjPaN5MT+X6d+vY+q1XsPO16b5rrK55zuOxpk/cJh6DSTrxOLfa/toG+Bdn/PoSlD2/Cy3NTsfCWTfhqrQUJN1+A4Q499XK5UlYWvmo5AVSWT5/cJw8NPjtWM4r3VyBrTwY2rq2H79R+GOynPKdwtlxn62HXYX+R/2/7uXS2nZ11btvZBh8DYKo/i8OuOgApk6di/AViI9oFQiqDHh4qKxrtkVALsQ+1a5ZONdWgRnyv+fl726+yyTckyYtN8oBvsA/c5U3V+8LX3YLiE+korDQpMyyo4O3tcOm7B+Sex7rSbBzYugU7DxXCEtgPoyaMx6gB0Qi0b0CruqoqWERbRIR1jPR04REI1FpRXdV8R6QkAkKvgFCx7aK9bBYYK4vEseAw8upEfQOUsTHO1P8MqNQiIEzPglEbgsQ4n+b3yokynNpWhcovGMEOJ1zyeN3QUB9x0ipfERGsNagWrwsIDYLKYV+RVIEICVCjvqYGNqd2jma92Y7yfqMPiMIFF4kg+MJEBFmLkLZjK7bvz0BJu57s/7YzfKuJzjGfJEy98ipcOiGuBz9zbG0+EGrlILSZvKqoJJ9Tj9vw8kaww4HOI9wTHvI4KYdLqnaSG7KKgLgE82m3LSe/EBBf5skOAW1CUgLcrQXIz1UShPjfP4i/3DcVoWI98qX5+tKTWJu6D5WaUEQ6XGbNzi8Q2wdU7NppD0jlZceJSqi0TWd1sHeOGQ2N4svBzU18DTaTe4uHDerf+ReGbxz6hSh/C97REfBBGUocLqPbOZHvXNVX3n6v8CgEG7o+CDibzx6oiiyny1VRbAaCvRDicCnZI9ZbVK0elXlKglApTwHl64Vg+2C/ZgEx3tDazBDHnFMCJydhxrxg+9zQcuzcVFWH41vKUacRBxuHNrWXKwdchyqaTwDFkpXTCJVG6vH+Ipeb8+9M5GgCMe4qcRB0+Aw4W66z9bBz4nPpbDs765y2s389BgbI+3gnXXbdsVUiL78O7pEDMTw5CqF+BujdDfANi8ewYbHQmwpQ0DLbhbkOZskdgdGR8PfTn/oxjs6o1CZkp5dAE5WCYQmi3m5a6Ax+iBw0DCMGpyBKvg2jwQijRWdfn6+nFmqtHgFxg5EU3LvhgxwUm0oyRVC8FTuOiKDYX9RtwhBEOMzLLJVn4IR4/4MHXIghCWHwF2cXBh8/hMYNwoUDQ6CuSEd6SUt+AyJTUjB8SD8Eeumg1RnsM1mEeIiAubLWnsOp+p8pYy6O55vhGZOECA9ny+h+W1vYrD5IHBaPIIM7dHpvhCcPRaK/BQUZ+eJEQZwIyuWdKIEqbACG9xPluevg5hWI+OEDEKoqw4mstuvrXu+1oyZiMMaOEOtpKm4OgvedRLHJKl5/um/S/x5OrdYDnFqt9/kNnoxJ/YPgFaxH7aHjKHW8bKLzwdBrgtG49SSO5uoQOzsWfhkZOHBcQvi0fki0FGHLVnner0Y0hUdgxJQQROhtsPl5od+MC3DRUC0MvhJyluciR7k5ymdkLIaFa6Ef6AUPtRp+gyJxydxIeOfnIPXbStTLR0SFSqVFTXAN5k40o267P/bVdvwAGwvVGH71dZg1LkQcFL2QMOkWLLhtNJrWvI6FqVn2qWpkbqNux9/+dBkGGMS2egUjbuBYXH/3dRil349PX1uDDGWKnPICHcbcfDN+P8QTVo0PooddjLufeBIPXGLDuiVbUdhyp3jYONx0VaKo2xJszuu4Xc2UqdVyl2PpZhG0nxKDi++aBf/9LVOrVaIxZjbmXDoOg/Ri/w5IwNhrHsENYwwI9G/C3s//jb3KlF9hE67HlVF6+A3vD2+1J6IvvAKP/mEmgrO+wYsf70WVUl9n8/VufVuFznsDy9+Zj9uuSUDGl6tPtW97zuSTp7nSJEZi2EgDdKYmuEWIYDbWE5pKE0wNzflNpSokXBqHQQO14tRMi4Bh0SLIioD7wXT8tKr21H7QUKZG7KxYDByig9WqQcCIWEyfEwzNnuNYtdF46idnNYMScPmt0WJ/tqLJUwQ6/QIx6tpYxHlUYufiYpQrnxNTiQrxVyRgcLIaNrUWfsmhmHDvEEwdZ8PRH8pQ09J+QUEYPd0bFeszcaJYSetEh6nVTDUwhsXgoqmeKF9ZiFKlfZwt19l6OPu5dLad7euLbTtFXGdT2PV6OyvkXrKUawtwf389Pns3APvrWp93bmo1EeNWlKFW5YVQEYhERUcjJjYKEeJEAFU5OHIwA1Ut9xpYTSJ49UJYTCxiogJgLcpDlUUDvyjxfdlYhOyytjMhWGvLUNagR1hCAvolxCMuJgL+WhPyjh4QgadFlC1OzGrVCInphwT5+bhIBGqLcaJIixDvBhRkl4vT587XbwiNQ6hWnDDk18CmtLubfxSivOs6nx5NkD9fFmMlinLzUFZvhcVkQoPSnnLHQU1JKeq0fgiPEW0gluioCAT7alCXfxwHjhSIbVHyihOnyqomeIs4IiE+HvHx0Qj318KUk4ZDma3b0139xV5x2rbrbGo1+Z/66ib4iW0L86hFbnEdrMbybtrYiW2VmrfDt+oojpgjMCglEf3EPhDkabGP6T1W0thcuGCT62T2tJeXkBCHWLGvezWV4vi+NBS3jCJR1tehXhpfRMb6oaEgG+Vm+SpLL7WjnE+cP5nzjyEts6x5XmTltWejt6dWUw0eOKT31tbLIodPRP6+zcqj3x75bsn6+rYfDuoZddhIXDFzEAyVe/HjDwdEWNb6YbHPM/z5ABgXpeLbrZ6Y9NokxK5eg0/+Y8OIv8/ATNMvWLiouZtRcvfE0D8MwoTRPvDWNqH8QDZW/uyFmx7wxpZ7t2JLYfN65flHbx1fiu/elTDi9ghE+EioSS/A+jeP4ahjvKiQvGvxz1cyMbk6BPOfDcUmZd5gR35Db8D8R6/F2P7BcDMW4PC6xXjhleXIcJjfWITvuPiRx3Hv7KGIDvaGtrEaJRk/4+uXn8dHu1rvGpI/64Ejb8L8h6/G6KRQeFrKkbk3FR+89CbW5bReVrLPu7t4Jrbccwn+b0fnXzDyzzHP//FTTN92L2Y/t0dJldMn4LntLyN+8Rzc8E5z97Wk74c5f3kCd0xJRrCbOOvf9SUWbUzEv56Kw/uXXY/3cprLkOcP/mj6Tjy5sBFXz/8dBvhZUXIoFW8+80+k5rSOC3E2X2/W15HfjKew9JmZ8C78Bo/NfQE7HeagdeRsPsnLH5MXpGBUiic83dViuxuw58l1WHmgOb/8JS3Pfzv9lhjEx7hDazajaE82Vn+Yg2JT6zqb88Vjxq0xiIt2g87cgKJ9WVj9QQ6KHGazkOCO/remYMpkPwT46aBusqAmtwx7P07D9oOtXZH29aXE4RKxvoRYD+iaGlF+uABbPkrHcYeeZvs8w4sikO6wzZ2Rf475zmll+PSmw8hWDlxSWBzueKs/tP/eiveWNk867XS5TtbD2c+ls+1sX9+kdvUYMwiPP+GHXQ9txsaW+aF7uZ1lkmRDzORivPPHUthSEzHnfX2bINBd38mdaF2QRETh5q6Hu9aK+joz5JEinRGnbPZxoxZ5LmEnet7k4UoaD094yDdfNVjE69u+Rl6f3qCHpqkepnrn1nkuydun0zdfLairt+B089XK9dKKesntZRbt1VW+rurfG7pt4y62VR4OETt6IuKMv2BTWoW8IniKY1u9qHv7G+pa2Ncn4hSdeM/M7e6TO1O/pXaUWcS6bY5jyXqIwXAPMBju++wHyYniIHlz60GyOx6J5Xj9z4W4yE2PLT+G4bEvPFHXgzPcvswe5M78GfdOeQa7umgDZ/MRyc7mc/lbJPkYxYldIa4b0oCK7VG4/xVfZLW7SehMg2FyTR2CYRfX28EwxwwTneGx1nwiEHc/koinVnvAK9yC3rmNpA8T7edUEzqbj0h2PuwsXhbEaDyx5OUkXPNix0C42W+2P4roN6x3PzcMhonOhtED330aiVtf9UM5ezqJqBOqAn88/FQk3trqftqrR6edv5aojSaUnTiMtLwzvQHu/CN/kqRe/thwmEQPcJgEERH1hPyLkM7cREdEzeSb5yzynNO9iD3DREREvxL5F8CkXhz7SHRekyQ0WXp/Fi8Gw0RERL8WCWhssMAq/748EZ2W3CMs/wqhPJtLb+MwiR7gMAkiIupNKpXKvhBRM0n+Tw6Az2G0ymC4BxgMExEREfVtHCZBRERERC6LwTARERERuSwGw0RERETkshgMExEREZHLYjBMRERERC6LwTARERERuSwGw0TnKZWhAROGNEB/DiYoJ/qvM8QjdFASNA77s2S4AKEDY6DtZgJSycuMCYMbYTiXE5USUZ/FYJjoPCPBgrHX5eHHt4/hreuN8FLSiXpKjkM1Oo3y6L9DQgBCrnoJl77yJaZdOw46Jd0uYCpGPvE1rlj4DyQldrGnBxrx2FNHserlAtzUv/d/ypWI+jb+6EYP8Ec3+raw2yfhrqs8lUfioGvOx5fXHkB6u19/cjbfuSIHIJEzk5CMEmxcVQVbF+VKUhOm/jETL02x4pf/RGLR9wYcq+l4zquJuxhJt1yD8P4RcNc1oO7YWhx94z2UlNiUHM7Rz3sL025IVB6J8m27cWDuE8hraLuNzuY7l7ym3o4I/W6c/PEArH34F76SL/sjZhp24IPPd8PUg3pIUjLm//gpLtv3CKY+uUVJPT1J8sDkp77AC1f7Ycv//B7zlxuVZ86OM/WQJD+E3/0Rpkz0RMmKl7Hnx1RU17buo5KkgUfS7zHolj+hf2QxDi28EwfTO34nS5INwcm1uOfOQsyNcsP7z8ThtWPsCyKiZvw2IJdVsfYgvnhuj31Zufn0JzXO5jt31IiYlIBxk3ygVVJOx/PCUjw1zYIDS+Nx9xKvTgNhRFyOC/+xAJGGNGR9/CoOfL4V1qQ5GDF/DjzOcEhF4/YPsOu5p+3LsV/qRGPlw2hWnnTgbL5zRZLCEXbFPCQMCYJVSeuLJCkSU26+DTdcFAzRij2jS0BMBJCXdVJJ6I4ngoK8YKvJQXpuz0p3th7a4Q9jzOQglHx5H9Z/vqJNICxTqaxoOPEDdj/7IA4XxSHlD/fCX91xH1ap1Cg77otnn4zDh4V1uOOBMgzqJB8RuSYGw+SyGnMqkb6j1L5kFZ3+0qmz+X5tcq/wpbPKEVgYhOf/49Zp76ckqRF83S0IqFmOPX99FZlr1qHgOxEQr8qDuv8QBHQXbbdjzd6D0h3bULJ9HxrVeqAwD7XKc46czXfuxMEQBtTlZ8mRkZLWFyUiLloEsJknIPW0HvFxiNWYkZtdqCR0TaWqwDcPXYyxE2/G2/vP7ApCR93XQ5K8EDtzBvTF32LvipNd1lfVeAQHl62AOewKJI84/U6savTAG58EoSK8DDeOYjBMRM04TKIHOEzi1+GRHI2Lb4lDvwR3uDdZUJGWj00fnkB6kZJBkDs4DYPjMOOWaMTGuENXb0bR3mys+SgHRcaOB9Wgm8fjnstquh3+0F0+SRRsGBiHS26LQXysB9ws9SjcnolVH+ShtN2QgO7qIQ0fiPlPR8Oz03JsSPvnKnyzqfU5STLhuSUnMXpzIi55v3VYhyNJGoZBSxYhZMvDWP9empIqzorjRiO8XwPK1+yDWSlP0kUgdO6dSJqYAkOAB5rKTqD469dxZE1Wh8BEkgZg4IevIGLvE1j75l4ltSNn8km6cIRcK8qdlAIvuSeyIhPFy/+Fw98faTNERNKEIPiq25A0bSi8gr2A6nyx/R/g0Oe70SjySZIK4U/8gJHj3JVXtCUZU7Hz+hdQfob1DfrT17howBrsWaZDwg1T4OMr905uwKGX3kRZeWs+VfhE9L/zekReEAV3by1stcWo2rYEB95eh3pb2/brilyP2S9twT+mn6Ye4sTmwfFPYWtLPdzEfnXPA7hj1jDEBXugrvg4Nr7/D7z43Uk0ONRDNWshdiyKw4dXzMU7WZ1vjyR5Yu57G/HEmNbnj7xxJW58N0951EoTMw0PLbgTM4bFIthXh8aqQhxe+zaeeXYFckV9z7ge0niMee8VhG29D98v3m1P64qknohxb7+EwI23Y/nSQ0pqR5LaiIUfZ2Do2v743WIPJbUtj4TJuGpqP7jXpiH1m20oaOq8fYjo/KAJDQ59Wvn7N8cnPBa1RTnKo98enU6HpibejPHfJIVG4/qFAxFbX4SdX2bh4OEG+I6Jx4SpOmSnlqHG2nzQUkXG4saFyQgpKcD2r3NwNFtC5PQkjE2uxy8bamBxCApknkNjMCq5AYe/KkZFu+ccdZdPFRGH6xclI6xMLjcXaVkSomYkYUyiEfs3G0+V61Q9zPUoz6jAsW2lMEeEIKwqF9+/n4HD24qQtr0IGUdMqK1z2AZdPa69oRqW7aH45thpbnLyGYPEG0bBvOYdFJxs3XelqnzUZhah6VQg4o/wx17FyIk6lK74AtkbRJAcOg7xl0+B+pfvUF5uz9bKfSTibxkL6+YPkHe0ixPEbvLJY0TDFryGUZPcULrqK2Sv+xkmrxGIu3wm9Fk/oDiveZCDPd8jr2DUDH9Urfs3MldvRY1qAKIvvxQ+ZatQkCGPwVDDWpGFsp83IL/IH2EDVSh490UcTRWPN29AwbptqCiutge6ztbXXu6cGxGs10LtnoGi1LUoLTQgaNIlCDUcQeauArETiPUhGcn/fBZx7nuQvuRTZKZuRLkpHlGXXQ7vku9QmHkm3xsamEtPYPemVKzKC8TU4WqsXvg03vpGPF6VitTlG/BzXpX9vZOkQMx+/iMsnKUT+9ViLFu+G2URkzHvphnQb1+G7cXKKoW46XfghqG5+PrF1TgpAtXOaVFXegS71ouyDmkwYmwkjn75CtZmKE8rJKTgkaWv4xqP7Xj/1XexVGzbXmMSfn/DtYgvWIZVxywil/P1sNONQOI1k2Dd9TYy0k3NaV2x6RAw6RqEmbfhyM9ZSmInbBIGTy3HhfW+eH+nm5LYlnvkIAyN84FOXY+8QydRqXyvENH5icMkqE/xnxKFWF051jx1GNvXFOPIyhP46rVcGMMiMGSQkkkInR6NSEsRVjxzFD+vK8ahb49i2ZIyaEfEYEiQkukcCJkRg+hT5Rbi0Ddp9nJ1o+MxOFjJJDhTD1WVEembxHMbi1BSIxJqanFc/J0m0tI2lSC/rN0B2k2CfGi3dBVnxUbBE+WozelmzGfClUgep0fRO4/h4JcrUbDhRxx77TsRcIYiYECAkslBTAwMInAw5rePktvpLl/ydRg4Xov8N+bj4LKfRLkrkP78hyhu8EHAoAQlkxB3BS6Y7I2y9+dj3yc/oGDjGmS8+hbyK/TwvaCfPYtKZYM5bZt9eEaNSQe1LQdlqVvtj+3LwdzWnman6xsPz3DAWrYah15cjNwN65Dz6evIygQ8QsKUPEK/CQgPM6Ng8YvI3rIL5b/sRP7i57H7xReRefzMhhjI42Lz923A+rUbcKRWB50tA9v/vd7+2L7szEJ9Sz0umIf7puux/h/34al3v8NPy7/Gq099jqOqcAwaHticR9EvPhLIz8HJLgZRq1T1yNrZXM6GEgm+yEdORicXEwdMw5ToOqx+7W/4bNVW7Ni2BT+8/L949M9P44uDzfU9o3rIdDoRPovYtUkOpJ3RCKvY99WaNvNNdEKFRpFPqz39RVHjwZ/w2Wdf4bOla3CykYEw0fmOwTD1KQEhHkB5DYodBpxKh9Lwxpz1+NHhqrt/qB4oMaKkQUkQzNm1MEIPvwgl4RwICBXbV2REuUYDN0+1fbHl1aJWpYe/CKJaOFuP3qaNjYY7CmDq5oKLfuRwGKyHULzNYcYAtUaEETZYTB1nEVBFR8DDifV2l89r9Cjo6/ajeL8EjadeLJ7Qp6TA282Kuvx8JZfYvgtHiu07goJNlUqKHGwdwuG7ZmPtW3uUlFZekeJNL8+HsVFJaMfp+npHw9sXqNq+wT4Uo5kI2axmNFaLN7MlTURlNrGvBV/9IBIunYHQEQPg6VWGqs0bUJHrsFOeocT4GKA0F5mnWUXUxIsQbf0FG1dXKymC2BfVkGCsba2HJIUiLtoT1uxsdNGH2kZMfDR0VlF2Zy9oaoIFBoy9/QncdePlmD5xCGJ9i7FvZSp22Hvp2+quHr82lUpCQ201TBaOKyZyBQyGqU9RyXtsuxkPVCIAkey9W609OBqN+NvW7kAmXienqM/wJrEzIZerSuqP+5fNwOMty8IE+IvnHMt1th5nRKyuXY078I6MFJFcHowd49k2vKKi7MFKtWPwGBUpwrsyGLM7RjAG8Zy6UQSbDpfhO9NVPvnmPr+YKKgMkzHy8+8xa5m8fIdpf78cbmmfIm1Na4DXvH1ZqGkfZ1lt4n1X/lbIN2J5RYgItlDUW0lrz+n6iu3zRLVIq1IS5PetGBmPX4E1Lznc35D5NQ5+shlm//FIvONRjHr6VUxdsgyjr06Cqt377ixJ8kVcjKhHdg7ajVI4xR5kFmThuONblBCDKBQjO92xsZpvYCvMyXB6mrmEGLHvFIiyO7vycHwpFr6+BoVBU3Dro0/i+Tc/xHfrV+G9Owa0+ZEMmTP1sGv/+e1Wcz2aP+VOOLu3gYjOQwyGqU+R5EBH3f3B22oVR7r2+cRBX06xOnvV9SzI5UpZWfjqrzvxicPy6ZP7sCNdySQ4W48zUq+BUazX26tdNKiQJB28IwKBonw4jsCUwoYjasYYGNyaowN5XKx3uMEe+DgGj+4iGJJ7BmuzlQSFHOt4hYc1B5tdBBjd5xOBZrgGTb98jO1/fbx5+Z8F2PrQTVj7l6WotSjBTsv2FYptsad0Jx6GcMBcmHOaGTacr68mOgoeENvfXQ+4yoTKr5/Dtvuvx6prrsCq+xbg6CENAq+81H5idHaaA9iy3MxO5+WVpADERntBysmC42RpIQmx8LJm4cQJJUEWEo8YbyAnq8tw9BRJChIBrAG27OxOA1iVqgY/v///cNvlszDhwom45Ip78dZuDUbecg1GKXladV2PUxqMaBS7sptBBM5O8YW7eBstdd2c6YmzJR+Rz1TPwx8RNeO3Af22+CRh6pVX4dIJcZ3+jHBlaQMQ4INQcSA/JeUCPPj9NPx+RGv+imIzEOyFEIcb1z1iveGFelR2vBFeBMjitSI47e4D0V0+e7nygfZQBbIPVNqXrJxGqDRSmyDc2Xq0sMnxrYgbuggdRMTihqwiIC7BfJqfYDZAoxdbrnU7tf3yDykEz3scQ+aNgu5Ub6IPtKIO8ipaypMDrfALkyEd343SDle9A2AIdodUUtDN3Lfd5fOExkPUtewkyvfvQ8WBX1B+4CDMbokIHBDRvEF23tB6iodqtUM91PC76yP87tPHESTaug2PSHiJCNQsgufOOV9fb3m4RW0+als7hjuQpGiE3fwHxI9oDntVtgY05R9AhTw3b0ND5/Mcd7Pf23lGIypIjtkzlYT2fOEj9if55a3tEojpkwfAdnAHtjg2emIsolGGnIxuxo6f0k/uFEdRTkbrDW4KSYrDrAcfxi0Tm8ckq2xmlGfuxp4MccrVaO74XndbD4V0EtXFolbxQzr0LnfKbzD8/YCaQoezzs7412NgAJCd3/nNc0TkejibRA9wNone5zd4Mib1D4JXsB61h46jtN1d3PVlQOyMWAweKaJcmxo+/cMx5bZYhBkLsGZJKaqV/KZSFRIujcOggVoRfGgRMCwaM+ZFwP1gOn5aVdthNokGnTdGXhwCP/dGNOg9EBBlQKC/JA7GljbTanWXz1SiQvwVCRicrBabp4Vfcigm3DsEU8fZcPSHMtQod+07Ww+ZPH5RkxiJYSMN0Jma4BbhheBYEThWmmBymK5NpdKiJrgGcyeKAGS7P/bVtq2jSmWGNWoaYscPga93E2zesQi5/AEMmOaD8g9fRIYcvNjVQp18GaJGJ8Nb0wApKBnhcx9E0vB65L75GoqK2+/zKnhPvBahsVo0VVmgC4+GISoC6to8NLaZTq67fDXQXiDKHTNAhMWNQGA8gqbfhSH3Xw3f/BXIO9bSD2wEEmYjesxg+OrFtvhFI3jWfRj4u0gYv3gJxw5XypVV8gqaOERcPR4GmxF1jd7wjBLlejWgrlSsx57PufrKAXfQZXcjzLIZR1MPdTG8IBzRD85H0rAgWCoboA2Mhs/oeRhweQqa1r2Do7+UimLbvra7/d5O0w8zb5+CeFstiht8EZMQh3jfBuQU1ir7aC08h1yL2VMGIkHUQxOWghl/+DPuHGfG939/Dql5rWdjfpNvwr3jdcg6VAW32H5ITGpZYuFenYHSOhUkvyRMEPtKolxO8njMukxsf/oelGmjEJ8QBfeabJTXy+VGYs4z/4vbx4TAVGaGISwWKVNvw4M3DYfph5fwmjyFRZv3o7t6NJPnNW4MnIX+4xPRuPM7lHXR4Su/N/5X/hVDkwpw/KOlKHecZcWBPPVhyrUFuL+/Hp+9G4D9p80Xham3X4fp8eJzm1bY4fuCiM4vnGe4BzjPcO9Th43EFTMHwVC5Fz/+cACVnfSF6i+Q5+eNRUK8B9ytFlQcLcCWD9NxrEDJINjn+x0ch+m3xCA+xh1asxlFe7Kx+sMcFJs6rlMeQhB/w2DMnB2AAF8NNOLgJ2Wm482HTqDK4UDYXT57uSlxuOTWGCTEekDX1Ijyw2L7PkrHcYd5kGXO1KOF5OWPyQtSMCrFE57ualFOA/Y8uQ4rD7Sti+Rdi3++konJ1SGY/2woNlW0e14Xjcg7H0DSmGR46EVAX5CGgu8+xIkNWW3n8DUkI+6e+xE/Ig7umjqYc/Yjd9kHyNhb0jawUaiT5mD4Q/MQFOULrUZuh3ycePQ2HD/ZNm93+ezl3n0fEkbGw93NgsbCNBT+tBjHVqW33T73OETd+UckXpQED08LLEXpKFz+MY6vOtYhSJUkN/hd/SSGzRkOg7fOHohaNvwNqS9tVXI4V19Jikfyv95G3PGnkfrKdnva6bgNvRGD7/gdAiIDoFM3wlKRj4oty3Dkk42o7yTQdWa/lyR3DLljEf5++0WI9tVBLbbL9NNjmPCX9UoOkcc7BTf9zwLMG5uIIJ0JJem78f17r+PjzUVt2m/k//sJ788LUR61kqRcfDz3Srx2VAW3K1/Ctr9NtO/j7UlSHj6edwVeS2t+LmDs3Xhy/lUYGSsCehGIV5fl4JeVH+KlV9cgt119nalHC8lrGsYvWoSomm+wSfxbVNVxCJD8k8yG8U9h2j0zIa19AD8t3tUmqG4hz80dM7kY7/yxFLbURMx5X+9wE2RbktdgXHXjaBgO/wdLt3QzEJ6I+jwGwz3AYJh+izwSy/H6nwtxkZseW34Mw2NfeKLuNAd9ot86dcJNmPzIgwhzy0XByhew5Zsdp054JJ8JGHr/AiSnhKB+1wvY8NY3MHZysiH5GDH/4UJcN6QBFdujcP8rvsjqrPe9Rdxk3DYzAXlrF2PNic7H4BPR+eN0Qx+JqI8ynwjE3Y8k4qnVHvAKt0CvpBP1RbaMT7HuL7di+7rj0IZHo81kMIZY+KgP4MibN2PFa50HwnZeFsRoPLHk5SRc82I3gbDgHeAPHSpQUtjFJMxEdN5gz3APsGeYiOj8It+rlzDjVlwSehzff7INJbyqQnTeYzDcAwyGiYiIiPo2DpMgIiIiIpfFYJiIiIiIXBaDYSIiIiJyWb/pMcNEREREROcSe4aJiIiIyGUxGCYiIiIil8VgmIiIiIhcFoNhIiIiInJZDIaJiIiIyGX1mWBY0nhArVEeEBERERH1gj4TDPvNWYK5H+/AnBffwvCLIpt/QJ6IiIiIqAc0ocGhTyt//6ZZSo+g+PBhNETNwsBZw2He8AMqGlTKs0REREREZ67P9AzbSg+jZN8POLB8Mxo1YfAOUp4gIiIiIjpLfe4GOm1gCNxQAmOJkkBEREREdJb6XDDsEx4NmLJRXaMkEBERERGdpT4XDHsFBAEVJTApj4mIiIiIzlafC4ar8rNhCxqG6P5RcPf0hFbvCbWGM0sQERER0ZlTDR44pE9FkhKi0e9Pb+HCUWHQqJpnkyj6ZAbWraqw/01ERERE5Kw+Fwx7THsDl90SitzP30VWfjVsNqCxaDeqKsQfRERERERnoM8NkwhOGQ5twRocXJmKokO7UHJkFwNhIiIiIjorfS4Yrq+pBrwDoVceExERERGdrT4XDNcU5gJ+0fDxVBKIiIiIiM5SnwuGG4rzYUEEvMKVBCIiIiKis9RngmFJ4wGtbz/EjBoELUywcKJhIiIiIuqhPhMM+81Zguve/AITJvmi5NuXkF6kPEFEREREdJb6zNRq6uAUBPpbYco/jjoTZ48gIiIiop7rc/MMExERERH1lj53Ax0RERERUW9hMExERERELovBMBERERG5LAbDREREROSyGAwTERERkctiMExERERELovBMBERERG5LAbDREREROSyGAwTERERkctiMExERERELovBMBERERG5LAbDREREROSyGAwTERERkctiMExERERELovBMBERERG5LAbDREREROSyGAwTERERkctiMExERERELovBMBERERG5LAbDREREROSyGAwTERERkctiMExERERELks1eOAQSaPVKA+JiIiIiFzHqWDYz89PSSIiIiIicg0cJkFERERELovBMBERERG5LAbDREREROSyGAwTERERkctiMExERERELovBMBERERG5LAbDREREROSyGAwTERERkctiMExERERELuvUL9BZm6xKEhERERGRazgVDBMRERERuRrVRSNHS8rfREREREQuxd4zrPxNRERERORSeAMdEREREbksBsNERERE5KKA/w/S/xc/T1sMNgAAAABJRU5ErkJggg==;" vertex="1" parent="1">
          <mxGeometry x="230" y="40" width="356.04" height="140" as="geometry" />
        </mxCell>
        <mxCell id="nRoSArOt20eBQi5jllFo-2" value="&lt;b&gt;UserService&lt;/b&gt;" style="text;html=1;align=center;verticalAlign=middle;whiteSpace=wrap;rounded=0;" vertex="1" parent="1">
          <mxGeometry x="240" width="60" height="30" as="geometry" />
        </mxCell>
        <mxCell id="nRoSArOt20eBQi5jllFo-6" style="edgeStyle=orthogonalEdgeStyle;rounded=0;orthogonalLoop=1;jettySize=auto;html=1;" edge="1" parent="1" source="nRoSArOt20eBQi5jllFo-4">
          <mxGeometry relative="1" as="geometry">
            <mxPoint x="180" y="75" as="targetPoint" />
          </mxGeometry>
        </mxCell>
        <mxCell id="nRoSArOt20eBQi5jllFo-4" value="" style="ellipse;html=1;shape=endState;fillColor=#000000;strokeColor=#ff0000;" vertex="1" parent="1">
          <mxGeometry x="230" y="70" width="10" height="10" as="geometry" />
        </mxCell>
        <mxCell id="nRoSArOt20eBQi5jllFo-7" value="@.. Cho phep admin truy cap, khong phai thi chan block" style="text;html=1;align=center;verticalAlign=middle;whiteSpace=wrap;rounded=0;" vertex="1" parent="1">
          <mxGeometry x="10" y="60" width="180" height="30" as="geometry" />
        </mxCell>
        <mxCell id="nRoSArOt20eBQi5jllFo-8" value="" style="shape=image;verticalLabelPosition=bottom;labelBackgroundColor=default;verticalAlign=top;aspect=fixed;imageAspect=0;image=data:image/png,iVBORw0KGgoAAAANSUhEUgAAA1cAAAC8CAYAAACUqVQsAAAAAXNSR0IArs4c6QAAAARnQU1BAACxjwv8YQUAAAAJcEhZcwAADsMAAA7DAcdvqGQAAJB5SURBVHhe7J0FYBxV+sB/sxvdbNzdkzbV1N1pSylQXA45juPg4LjDOewPhzvHHXDAweEOhWJ1L3X3phJ3d93M/81m0mzSpNm0KbTwfjDNzpu3T75n3zdPVhkxdKSKRCKRSCQSiUQikUhOCoP+VyKRSCQSiUQikUgkJ4E0riQSiUQikUgkEomkF5DGlUQikUgkEolEIpH0AtK4kkgkEolEIpFIJJJeQBpXEolEIpFIJBKJRNILSONKIpFIJBKJRCKRSHoBaVxJJBKJRCKRSCQSSS8gjSuJRCKRSCQSiUQi6QWkcSWRSCQSiUQikUgkvYA0riQSiUQikUgkEomkF5DGlUQikUgkEolEIpH0AtK4+g2gGkz4h/rg3KzqLqc/Z2KaT3dOB5nKcpVIJBKJRPJrRhpXvwWM3kQkBuGu354RnIlpPt05HWQqy1UikUgkEsmvGGVA0sB2r5BdXV2pra3V7yS/BlSnKMae5c2h77dSoCi66+nNmZjm053TQaayXCUSiUQikfya+VXNXDkpziS6DOUcrz8w3esqwpwTMCoO+tMzD1VVMbqacEIuoZL88sj6KJFIJBKJRHJ8fhUzVy6KK4GO4fRxTsbB6EppcxEWgwFXJ1/KLIVk1uykvD6PpuYG/RvtETojoUOm0Ndfd7ClIZvNy/dT3gtv2VXVTMKEEXikr2ZLRqPu2jUqwQw7ZzCe6etZtrtUd+05x5stUP37MiU5uGsruxfzr6EanXB1hvrqetTjhHncNB9TXiqWuhoqK0rJTz1MVrlFd//tYI9ceyZTG2oz2bAqhUol5KTrY09mrlTVmegxY4l1yWHr8n2Ucnz/tvS0rUkkEolEIpH0Bmf0zJWj+C/EGEmy8zjGus6in+sYXI0ewqAqIav+IAX1qRgcnAnzHE6o9zDMrsEoSudZNjg541SdyY5tO9tfuzKp0v2cPAYcRDyORjuVRDWflG272HWkTHc4BZRnsvNofg9TKhTa5oKUU5R/gV8fJk3sg59+e6K0K6/te0jJKKTaKYik8RMYFm1usRZ+S/SCXLtsA3uysb5u+Tnqoy3uYUT4OeHkFkaYv/2GVQs9bGsSiUQikUgkvcAZbVxFOcQT69iHMMdY3I0+NCgWipuLweiIRWkms24feTUHERYVPuY4/Lz64yYMrK5QaysoKixqfxXXiLAUVGGkmd3bL4lSMeLqbsbVUdPlFZzMZlwcVFSDI24+3niZHVHsUPI1LwZXD3z8vHFz0h2tqNRXlFHV2BJGuzhE0bl4euPt7ozhJAwJpaGKYj2vhQWl1DZDY3XJMflvRVsapjiZ8PL1Emk1WO87Ys2/SJuPrxlnY9tzg7MJd5FBRXHC5OGO2WTs9Pv2crS8CgrISTvCvg2r+Wl3Fd5JA4hy0z3paPEYtHT7eGJy7FzhPupH5M3s3Ja3Vrlr5dyK9sxoMmMS/lrubcvGEZOXiMd2RapDS9yunaxS1cLqSqb2lHlvyrXTNlDSWgc61Mdu2sTJ4hEWirnsMPvzDASFB3Talrqqa52hqkJ+Im1urmd0tyeRSCQSieQ0xhjoH/iI/tmKo6MjTU1N+t3pzdmmS2nEwmHLPuvVbDCQ2XhQKKi++JmicRAKbVVjMbmVOzE6eeDpGYtidKK88rAeQhueYfEENOdyKLdad+mAwZuk8aOJMeaTXlwvFFkF16jhTBziS2VaNhUWDxInjCPcUId/8gj6hgUSGpNAbIgzVYWFVFtXJjnjHxOBS2kqWWUtS9eMXtEMGzeCgQmhBAaGEpsQhY+lmJySOqGotoQZacnQ/bfch4k4goeMIDEsiPDYWCIDVIoyS2joatmU0YuIWFdKUnKptjGUjqUlfabydDJKjl1KpRrNRCaPZtTgGIIDgohOiCHIpYbC/Cqa9HANvnGMHjuMxEh//ENjiIv2pyk/i7IGkfq44QyP9RR1zBWvoGBC3GpJz620Gr/H0E2aOysvzVtDaRmGkESiXEpILaizumvpjkoew8jkWIIDg4npE0ewa50wKitoFMZLq59Iqx+Rt8AQouOjCTbVU5BfQdMx5aBhIHTYVAaZC0kt1OLRy9+hkdAhycRHRoqyDMejtpDa4GGMGxJNaGQ0sTFBUJJJib7ytnuZdl/mdsv1BGTang5y6KZNVFqOjcPeuqiqXsQKmZG+k93FrsTGeVGdmkOVXl4ax6trHduaqhrx7T+aMX09qczKoUKuFJRIJBKJRHIKOKNf4RqNrmRajpDXnCVyYqRBaSCzdi+7y5aQUb0TJ2cvgn2GEOSTrHmmuqHIOkPQJUYHEYyh/aU/UpqK2LM7H5f4/kSKIFSHQJISPSnZu5vshjaFzy8uisadK1m0YCmLFq7jcFMwgwdH4NzZW3fVhZDEGNwr97Nm4WIWL1jC8t1leCb1Jfw4b/79ovwpWLeEJYuXsmT1ERp9EkiKajfl1etoyffpO4y+7oVsWbrIGveiVSk0BA1iULSL7seNuIHxuBZuZfHCZSxduJTNWQYiYwMwigDKD6xl6fY8mpvy2LFoKcu25h5339WJoCg1FAtF38Xd3Rqnlm7fpGEkeZWwfelCka7FLFy+l5qAAQxN8LRmzOpH5K2ft+ZnkSiHxSxdm4oldCCD9bzZi1+YBxlrlrJ4/lI2pFkIHDSeIW5prBCyWLxwNfvKXIkThnRr2rqTaSvHK/NelWsnbUAxHFt3NextEyeC4h9KiFMp2Vm1NOdlk6/6ER7aNu3XXV2zxWpYJY1iWEgde9duJasr21EikUgkEonkJDmjjatmI1iUJiyqBQsqFoMi/jZRb6mmoDqF9NK1FFcdFPqiGU+fvpi84sR3ulb6jMGDOPucme2uSf289KfQmLObfYVmEvuFEdS3L36VB9iV3v7wj8a8FPbl17XMGjSVcWhnOrW+kYSbdQ82KEodGeuXsHRDOpWN2n0zNVn5lKvueHjrnjqhNvOgUBBbFMimsgyyyhXMwpg4pSghxEQqZOzaR5Ge5ebKDHanVeMbGoSDVaF1wlHov82WJkSRoDQ3UrRnLSt3FLRbWniqqa2rB1cXXLUbJZjoSAdy9uwhv0aTsUJzVRY7DhThGh3VskdJ8xMl/Oxu9QP1xYfY8tNmDhd3blh0RVXmYfKFfBRE3tNyqBYGf35GjqiVWn2oIjO3AsXNDauJb5dMW/i5yryzNjAsrOtuwp420VO0bPuHBeNYnEO2KErUQrJzm4ThGorTUZnYW9eMwoAdKfJQz951W8iUhpVEIpFIJJJTyBltXFlE6lXrARVCYRb6lHav6FlqbK6jojaXyoYiLA4GHEz+OLj50HycHFvyd7NsyfJ219qUts37itJI1s79lPsPIFkoaynb06nrYDTUVJS3nzWoKKWsyRW3TowrK44moUhHkzhoKKMmTGDqtCR8FCPG46Szvl7TOFvQDLTqqmZhQHaymac3cTdhNhgJTBrF6LFtV3K4MGFE5lrU/BLSDuRjiBzJ1OljGDowngh/0zEzCacaF2dnqKtrOYTB3YxZqaKspHU5XwuNxaXUCqPbXZsg6sSPZoTVlxdRWNH5CZNd0dhos6S2udlq7De0FZdwahatziBUfoFdMm3h5yrzztrAtmyR5i6wp030GGMA4cGOVFU14Onvi6+/j2hYlTT7hBJ6dOLZvrpmihrO8HgPqlP3kln589ZDiUQikUgkvz2Oo8Kf/rTMVKk0i0vbimE1tsSdhoPRBTe3EFyEUWVRVGoai6itL7EaYV3SWE9tTW27q67D3gxFO1FNk5rBEWenYwPTlPL2GISbUKo70euse6rGjWdYH2H41RaQcWA3m1buJqfbLW/Hy8Qpwpr+BkqyMkhPa7vSDuxl+55sasRTLe/VGVtZvngtOw8WUOvkT/zICUxIDmw3C3Mq0ZZaevs4U1dV1TKDIeJVNXl1FJm1nERt0ZOl+Tmm6I7BNg/CjO/WfzfYIdM2TjYyO+mkDTR1tnfKhu7aRE8xBofjb7RgCh3AkKFDrNfgGHchLi9Cw1tOKrG3rjmqhRxIKcUtYQjxXmd0dyeRSCQSieQM4IzWNppE6g1GR+u+EFV8Vo1C4TU44OjghrdnAoGBo/HwiqepqYrS0j2UVR6mSRhaJ4qqmogZHItz7k42pylED07AvcN+FLO3b7uT3BRvH3yN1Qhd/1jcAwl2r+LQuo3sSckkJ7+EikYHXE7xJNQJUVVJlcUJavPIyc45euUVllCQXUq9UHa1bBtNrhjry8hLO8zezWtZsbMI5/AIAq1TNTpdHId/smjxu4T2JdazivTU4hbHGi3d7vj5tReqi58vbg0VVGkTQpXir/Dj69/mRwvL5B9GmK+zuGtEm5Aye3i0PNBQPLUJr5PDDpn2iFMk1+NhT5voCarqKAwoP8jbxZIFi1mycIl+LWVjai0eYWGYRRnYW9fK0w+Ttn8rO/IciR/RH3+nE0+bRCKRSCQSSXec0cZVtVKDr2sMPs4RNCvNqA4u+HomERF6Fr6+g2ioL6cofwslBduss1cOZn+aLF3vB1GcXHFzd+twuRxdamSKHUC8WzH7dmdTuH832Y4xDIpzb1O4BapfLMnR3tY3+Ub3YPoNjsCYn9r5Xo+6OuqbzQSEebUcZ+3kSVSyyI/++LRCzedQagOh/QcT4eOszdvg7BlB8sTJTBzk3yIDxzCGTJrAyL5+uAgFV3HyIMjbDUNdNdWtK+7q6mkwehIY4o6rdbrjxGkrLy98g0OJHTSa8cm+1BzYzeEK3ZMln4OpdQT0G0ykSLd2RImLvyijRG/KD6VSrBkwIm+HhR//pGSihDFlwBFzSF+GjUwi2E2bCa0Vxnk9TiEJxAe5YzL7iHJKJPBkW489MrWXXpRrT7CnTfQI5xBh0DaTl5kn2nR747I0M4caN/Fc2wZpT13T0ZYu5u3YypHGEAYPi8LUbgZSIpFIJBKJpPc4o42rPeUrqFLLCPZOJjHkAvx8BuDlEUdjfRkFhZsoKdmN4uKGT9xMHD1CqSk7RE3+bv3bx2IISGLS5IntrokT+loPPVBdIxiU6EmZUCBzGhQUi6ZQ5uESP4hY9zYlsOLwQarChzF11kxmTBxAQO1hNm/LPnpUeTsaMtm9p0iEMYZps4X/Kcn4FWeQfxqehK8lv2zfRrbmORI3ajIzZ09n6vhE3MoOsGVPYYuHxix2bc9CiRjOlJkzmTljLP18qti76QBlrfkvS2NPejMhw8YzeXj4SS0XbC2viRNHMKRfNIGulRxet5K1KaUt6RFofypEurflOBI7agozRLonDxfGePpmthxusXiteTug+XEgZuRk4WcqE4cE0XB4K9vSG6zPi/bv5EilK3EjxjNhTD/8Kg5wuNz69RPGGm93MrWXXpSrvdjbJnqCa0Qo3k15ZOd3ss+rPItsUQYhET7WttNtXbNBsZRzYONeKtyF0ZzUfnZZIpFIJBKJpLdQBiQNbKdluLq6Ult7cqd9/VwYFUc8XULwc0/Ez3sAZo8YimuPkFO0gZqGEpzMQTiYfKyHXtRV51BTepiGqnyhFXa9Qf9EUVUPkqaNxfPIUtYdaRDxuuLYWEudPYaS0Qk3k4HaylqaT8HeGtUpirFneXPo+60U9ERh7wLrj9manIWCW0t9J/lTDQacXVwwNtVRW68d5daJsuvgiKG5AUsXm+B6O80aWrpcXRxpqKnrUs5a3lxNjjQKP5bO/DgYUBotJ37UeRd0J1N7OZ5cT4VMe0qv10U76ppEIpFIJBLJz8UZPXNlURspqU0ntXg1+/O+J6NoDbWNZTia/DD7JmLyisbSVE9ZznoqsjfSUJkrtLHeN6w6oul3FmGg2mVYaVgaqK7sWuE/3VBESutrujYClOZmYcDUUNsgZN2Fsqs2NXZpWJ0qtHTV1dQfV85a3jQ/nRpWGk3NvW5YaXQnU3v5JeT6S2JPXZNIJBKJRCL5uTijjatWGi21lJQf4GDGXPJLt+Pg5ouDk5nirNUUHplPXXkGzcKAkUgkEolEIpFIJJJThTHQP/AR/bMVR0dHmppO8vX5L4SqWqitzqW0YBvlhTtpqC3+WWaqWqi3HqmdU1ov0nGavUEXyTEq9ZQXVdJ4przdPxPTfLpzOshUlqtEIpFIJJJfMWf0niuJRCKRSCQSiUQiOV34VSwLlEgkEolEIpFIJJJfGmlcSSQSiUQikUgkEkkvII0riUQikUgkEolEIukFpHElkUgkEolEIpFIJL2ANK4kEolEIpFIJBKJpBeQxpVEIpFIJBKJRCKR9ALSuJL85lHc6hk3sB5Xtd2vEkh6GSln+1HNdYwb0IAbvSOr3g5PIpFIJBJJ50jjSnJaYNW3HX7e6qjSyOhLs/jh9QO8dkUVZt1d0rtIOZ8AvlXc/fB+Fr6Uw1UJvfCj7r0dnkQikUgkkk75VRhXqmrAJfkyBjz2X6Z88j1nf/UNU/71GAmjAnStvQXXy17lnG8XHb1mffklk19+lPhhfu38nSrMk68jYdYAjN3FNeAvTJm3UKTvQQJ6IV3dxavJZdbchwk0nnoZdIaqOuN/y3vM/GouQyaZdNdTi6o2MfnmNF69uIq8RdFc8pQ3hYqiPxXP8eGVr0ay+laPTu9bGfT3b9m64iFG/gz1x5Z+d33Dtp2bj16b1i/iqzfvYXass+7DfjqGtXXDk0zupfx0J+dWupJvRwyjYlgn/O38X1SnMk/+w0B2zh3Vcn0xnNWvJ/HC5Z4EGdr8qqoLd70ykm1fjOT98xx1N1fueGUEmz8dyWeXtMlQHRfLNi2+1jBbr/eiGWsT/6gbk63u869z013EdwdEsvKrAdwaeWw6u81vmg/X3x/J/IZK7nk4g78mNusP2mNvPbU3PIlEIpFIJCfHGW9caYaV+ZzHGfd/v8O3YStp77/Ejtc/JK8yjth7niQ+tk2RM4eEoOYvZ+eTj7BRXFtf/4JiZSDx9z9GTITu6RShqsEEnX85MQP9sOhunaGqjgTOnIRzVSWNjl64uOsPThB74tXkQkEO1b/YC21XXHzcUKuyKc+r091OLabhhTw8pZGdH0Vzw/tmDlR0aApCcW4UArO0yqTj/WmAWrmeV2+/iztuv5sHn/+ajNA5PPrmw0z26JlhlPb1kyIMLZy7eGZBru7aO3Qr51bslO/gfh64VTVR4enOiCjdsSNVpbzyzH5ue+kwb6yzMOCCRP53gzsuHYyxI5nV9Ev2wqy5h3oz1quSfXn6w1Z253D7swe47ZlMNtWpFG9MFZ9F2P/MY6/u5SjNKiGjfUnuEE+ndJNfRTFQlOLJ4w9F8b/cGv7wlyL62xiIR+kYThfh2h1eL2DwCGPAhMlMnZaErz2ykHSLJsaQ5ClMnZCIV2cvwYIHMvWsfvgdR96qf18mn9Uf/zOoTLTxMGLEBBJ9ZD2SSCRnDmf+zFXIRQy+fgA1n93Oykdf48j8peQs/pI9//ccWZXhBI+PtXpTVV/MoSbUjC1krvuJwvVryVvyGTte/o4aYwyBQ32t/k4dUbgFQU12mqbp6G6d4DmNyJFulK/9iXq8cfbT3U+Y48d7VC45mVTpbj83ilJG1uMXs/B3t3B4/6l/o67NpsyeWYxvrh/PfueEpdPyEEqqUFCbmlrT0/H+NKAxn11LlrN86XIWfvkf7rjzYzL8pnLF7J7V5erDG0UYK6zX5sxa3fXksU/OrXQvX1V1YlSSM6Wbi9ncYGLIAAf9SQcs9excX8qytSV88K4wjH6oJWxyCDPaJpWs1KdUkdrHi/HOQjcd4UXojkr2dghSKatlxYYylq6vpEAkra6gkmXiftm2Wko75ierihQvP2b11++Pi331SWlw4ZUP/CgJLuJ3wzpTMHtWT7sP78RRccYvcTiTxiXiLhR4Z0cHue68CxSDgsnd3frXXgxOzjh7RjO4ny+GjgaSwRFnJ6fjy1v4cXRyPCPKRMWD6AHxBLgJ+RiNGJqd8IruR0JQy0yzRCKRnM6c8WOf9znn4lnwHTs/PYTaquwYRbaa0qkqBAcnlxY3YWSYhZFRl5epafO6m6CikkbxR22ytNwLVMcQAq56iLFvfMr0L75hyn+ep9/USJQOA5oSPJ7EB19jyoffcva8H5nx4TuMvHkyrvobYVVVCPr7d9YliLO/+wdhJgX3S95oW5b48V3HvNk1zZiFr2EPWT+k0ySMKxcf/YGOqo4h+bOFTLiq7bW9NnsX+uCPzHruMpxEeD2LV5dLgYXQv7zE5E++ZfoH/2PEdSOtYdlir1z8/vYls16/icBJtzL6za+Y8dnnTHriZvx82/xpy7AiHl1wNE3aNfbSEP1pG6oaTcJ/Frbz13pN+9tI3VcLqmMw/lc+yJjXP2H6l98x7c1/MeC8vscqIsJsHRzfTMEOM3ubu1JuWpTURkt7pbXtvj0BM+7l3YUrWbduEV+/eRdTI9o3LS2/SZfez3/mzmflxrX8tPxbPnzuBkYH6h50VNWL4X94ig8XLmHdtk1sWr+Yb95+gHPju1cqmvftYV+9qAsRYbqLFp6C74hreOrDr1m8bg2rFn/FW49eRr8ezm61oonSJ/l3PPHeXBHeWtau+Io3/+8C4k2dhWePnFs5vnytmD0ZGqGyd38uu0Uz7t/PE4djyrY9WlPfs6+aGkdnogJ0Rx236grWFHowbpAD04aY2Li5EqOT/vBEaCjnp30OTBnv3iKo42JHfnUad5nZUNPEoL4NuostPaunGscP7yRwCiY2tJEja1exPv34r2q0eulkNuNqU61VITOjyYzJuUPbEUaBm6c3Pr5mnDuZtdFEbXD1wMfPG7dOyk97bjSJ5z4euIjvq0Zn3Nyd2/ULWtyKkwkvXy8RhsF6f6rw9PZh9mW/41xxaX+1e3tprqmB8EH0C+jixYINHfNtS4/kL9wNmmx8PDE5tm/HreG4OAi5CnXCRZSTdwfZttIxPZ2VQxsNVFS7kjhmFDFmB4KGjmVQQBNV1W3jtEQikZyunNHGlbbkza9/IDVbVlOFgho0mQEvfM7ML79n6kOX4yF0nLoifZ2PZwRmcV+Tnd5yr+M8LBl3sijeXWa9V1Vvgu94nmGzgqlY+i67X/0vWYXBRNz6GAl92gYWlUQSHrmPKP/DHH79cTY+/A92LS7GfcadJE1u3TekUDbvKesSxI1f7MCi5pP1RsuSRO3a9NRnlOo+NVQ1jsipCTRvW0RWRhn1zW64+HbYQxMYgZuLheqsDN1BIxK3ECNNOZk0WA3HHsSry0VNmkxg1QoOvPEG6amu+M25k8ThRt1TD+QijAP3EBGg0p/QoeVkffwqe7/dh6Hv+Qy8fKjmodUnRV882pKmt1dTq9ZTk5WjP7OlhJy3/3E07RuffJx9m4pFMFWU7knR/bTEG3T7CwyfHUrlig/Y/cprpKW6E3r9o/Qf3Wpg6zg24eMGeYXHM1gsNAgltampNb0d720wDOXyS1xY+Z+nefLN1dT1u4wnn7mWCBulwXX6Q7z+wCQcNn7ICw89xKOvfkNm7DW88OxVhLXzdzcvCKPRsvJtHr3nbu578n32ep/Nw//8C/06VUJsCAglRFSX0qIi3UEUQ/RVvPTKXxhS9xPvPPU4z320EceJd/Gfpy847hKirlAif8cLr/+VYU1rRXiP8fR7W3Cddj9vPDkLn47h2SXnVo4jXx2HQR70M1SzfVcd2w7U49zHg+H6s+PS2EyjaBOOHZLhYKhj2VYLI0eHMza2klUbVZx7vmWtDUeVlWvK8Rrhx+i2ptMF3ef3KBZH8kWD9fESXziGHtTTVo4b3knQkMGmZdtIK2sUrbs73IkdOZ5BYbbWkIHggeMZFde2X8zgG8eYqVOZMGYwg0eMY/K00UTZnIhi9IpmxLTpzJg6kiFDhzNx+lRGxnocfeGjOnoTP2Yy06eMYsiwkUyaNorYiHhGTUjC3+pD+DGaiRw6kenTxzFsyFDGnzWFcQODjllG2lsMHDECk1tLJrS/2r3dlB5ie6qF0MEDCBD1rSu0fMd1yHe0u+1wb5/8NdlEDZ3EWTPGM2yYkO/Msxg/KBS3o0tKW8LpHx3O0GlTGTdiCCMmTmbyuFjxpC199pSDLQp1lORlk1MuxmhnozDG6snPySW/QhpXEonk9OeMNq5Q4nAPtVBx6IBQrj2JuOk2Ql23su+5xzhQ2o/ggFoqs3VFMzIMExXUFGlv51wxugfgPvFPDLt6CI3rPiQ1tcUbMXNIHONK3ht3s+vzBeSs+IED//qGCiUQn742bxhjxxEcVEfOe8+TvmYjxds3kP3es2x+/nlSU1reGitKM3X71lqXIFZUO2JozqBoUcuSROu1K5Nmm1k0Zej5hAXXUrB0BRZLOQ3VYmDx6bAu0JqPfCozbQYZh0jcA4XhmJNmve1RvNbwLNQvf5mt731rze/+174VkvIUBpvNpnh75UI0pmChvxUtZvfz75G5YhkZH/5bGDrgEhCk+9HSWEfNLj09JSpO5FGZdayyoCjlVG1u8Vewbj3VHlPFYO9K+ZcPsW1xie5LkHgpSWMdyH7lTnZ9+qNI33wOPvs/8us98Okfo3vScdLiEzr3cXRLRaniH3/YwLnvtyyT63jfDo8yFjz4D975Zj7fvfMYd7+7D8ekcYyzWZ3X8NMzXDB5Djc9+zmLf1rHmgWf8vQnW3AaNI5RNmKOSErAXLWGt574mPmLV7Dk2w946LbbeOCVn6joaKMoQulwd8PN7IZv5Cj+8PhVDGjcxYL52boH6DPnfPo3LOGZW57j428X8N27z/CXf6/HZewcZrUVh90kXngBgxqW8sxftPDm8+07T3Lrv9ZjmnQZ54hyb4cdcm7luPLVGdrfA1NZNVtzYfuBSuo93Bne1b4rOzAIA2jHphKU8QEMP1zK0irFOul9whgVKn8qZqOrL7MG625dYE9+21CsBpODQ2ftowf19Chdh3cyKDSL/9r6s5NFVd2IGxiPa+FWFi9cxtKFS9mcZSAyNsB6OI92MElIYgzulftZs3AxixcsYfnuMjyT+hIu2oo2ox/YP5lY53w2L14kwhDX+gL848Os9bIlDmFk9h1GX/dCtixdxJLFS1m0KoWGoEEMiu7wUqaXcDq6mqKFjvfHx0Lp3u0caQxigDByOq4u0NDyHdBvMHEi35uO5ruQwJggup/vakML2jdpGEleJWxfulCEs5iFy/dSEzCAoQmeLR50/KL8Rf+8xCq/JauP0OiTQFJUi5TtKYeOqAZ/Bo9Jwr1oNweL60jffUR0jkMZEffzHHgkkUgkJ8OZbVwFh+PmlEdVujA0nIYi+nzyP3mO9LXryFq8nXpDDtX6RJVDeCguijDAHpzHzE/F9dGHjP/bdAyb/82Gl5bRpBsbrkOTcbPsJn+tzbIWoYVpikNjtY2bpUm4uOJ/0a3EzJ5O4JC+mMxFlK1eQUlmve6pDXNoCBRnU9XFShxt2VjIrPE4la8mfYP2/RLqK0W2vNsbVy5hoTg0i3zZTlwFheHm0EB15rEzP93Fq8nFmUPkrrTZyW+VhYXGioqWe4HdcnEPx12Mu2XrVuizaBpCi7XU0VAuMmRjTLZiCgvBYMmiqs0mOAZtHHeZcA8jbxLG8PePsf793e0MU/PIYbjW7CB/h248m0y49uuHu5OFmuzjBNwbVBzhkI34MtMyqBfGqZeNcWVRQjn772+xeNNa1q5dxRpxrXhoHAbFA29v3ZMgc+9BqsxjufHxm7h8zlTGJMfinb+JhfM3ktnUXnaK92z+aQ1rJUu+e4Vb+pXyzUMP8GGW7kEQoZV/TiopNueEVKSkUkwo4SdgmERq4WWlccSoGXUm69V4JJVCkb+ISN3TKUBTpEf0daLhYAXbxH3Trkr2Y2LIwJ6oi+0xavVnXxEfrCvhs4WlosWpnVXPHqFUl7Bwp4GJ47x7pMhKOsMJRyHEZtHXqqKLV5obKdqzlpU7Cqz797QXNBnrl7B0QzqVjVrX0kxNVj7lqjseWptyCBb1VSFnz14KRZeqiO9YylPZk1HdZgIqIcREKmTs2keRbo82V2awO60a31BhjHRivJwsh/btEf+2hqvq9/ajUMHBLQepD+zLgIhODDOjyHeY0ZrvoqP5PiLyXaN7sBMlmOhIBxHOHvLFV7Vwmquy2HGgCNfoKGxHptrMg2RVt+SpqSyDrHIFs7u79d6ucuiIpYBtS1az/Uglzdq+tPo89q1ZzrrDPcyDRCKR/AKc2caVNuuiKeWaoREWidkhm/KUltfkhpAgXOqFUZFvvcU9NBS1aj27H7yHdeJae+8tLL/2Uta8+D1V9W1dvDksDAozKbc1RoRB40qRMOJsjKbUL9n1wWrqvMcS94c7GPbIy0x+/1NGXhR/zB4kVTVjDhEWR65Iq+52DL4ziRziSt3apULJM2JwKBfGDTgLDd12/b9ZpIViEY5t+iLDRfpyqcjsebyaXKhMp6JYd9CIEMaaNpOU0TY7ZrdcxHdNlAu3lmWWGoqSz5F7zmfJi6t1l/a4BQVbTyusOs4Mh+PQvzDytgk0L3+aDf/d3O5wBO3NqJeIV3GbyNBPdOP502+Y8th5OO37kH1LynWfOkJM7SV1kjSrwsS0obnZGn5rCrX0jbn7Be6Y7MS6l+/llj/dzE3a9caW9t8T1Cx6jrteXkN14tn88d7HefW9z1i4+nv+/ft+x+6Bq1jNC1o4t7zB5lqVwvkv8PiPwsC2kY2jozBs9fQcRdVmGAw42LNarwNaeEq/P/G1biBar3evFKZaJ+H1ppw93RkqqmDKwWpUoXA7VFWxS7Rtbd9VZ2/v7UETk9Jcw7svHuK5n7Sdl72BhUVrS3EZ5stETfS6a6/Qa8LU6e3wep0S0g7kY4gcydTpYxg6MJ4If1P7n5RwNAkjKJrEQUMZNWGC9YRCH8XYMgPp5oZZqaa8tH1GK8uEwq5/xt2E2WAkMGkUo8e2XcnhruL7ZnTzoFdJP3SQJd/OY/uGdda/2n1Paa44zLb9Nfj1G0i4a4eCdBN5Uio7yXdFz+qjuxg/lCrKStovxWssLqXWQcjGxq6rr28bAzSjt7qqGaOD/nrBnnLogGaAtdBI3q5tpIkuvMWprW+TSCSS05Uz2rhyFQq/Q0EWlZpSHhyIS2MO1foMgjkyEiU7jQrRn2unjLmH+UH2HnJ3bKNk53ZK9x2ktrJ9127dLxTsBjkZ7YwR54hQHC2Zmg1yFEUMFqVfPsnam69g4cXns/DPd7F/txHfObOxmYjQicZN2A91uRldnphmnjUDHwcF11nPcs7XC5j19ack9VVQvH1p3QaizW65BWrGUjaVupuGKSIcY0MmVcdMXB0/3qNy6XBSoCZXoyX76OxYT+RiDA/DBd3gtQNV9cE95PinFRqTrmPUvbMwrn+eDf9eYzMj1oow6IKNNG1/12o4W68H7uKnv17F0r9/RGVjB/+1RsTYL3SHHqkaJ0F/Jozxo2b5f3jovaWsXb+RDeLamN42M9iKopSy8X8Pc+Olc5g6aixjpl7G3fOqGPXX27ig4+aEphIOrtvA+lVv8/q8XALPvY7zO6wibdTO5TYY2qskikE0fAuNXcxmHg8tPPXQl9zVaiDq159vvJt3d+qeWulFOTsO8qC/6K36/y6ZbV+MFtdArgpScOrjwVDdT5c4GXAUlkRjb9lP3VC9rpifDN7MHKBty+8NmvEQza+6tre6694O72SwVbgVbA/P0xTs6oytLF+8lp0HC6h18id+5AQmJAdaZ5S0E+USx41nWB9/HGoLyDiwm00rd5PT+pLGYhG1XNT1Dtk02LYHa/QNlGRlkJ7WdqUd2Mv2Pdn09jyJk5MzoZFRBGorEBwdrX+1e829J2hdYNWh7Ryo9KbvkChMHfKovTwRzbwdnZ9M2LX8RecsngqHjl+z9r+q9k7Jhs7C1rGnHLpAi6quooyaDrP2EolEcjpzOoyuJ4y7GJjU7PQWQ8PSjGoIxbNfAM5xZ5MwKZjKzWupsw4EEbgFGWgUfo9VzG3xwEEoHdqL0VZfmvIfPDwRNWUzhfrSKlUNJ+jqPxE9pMWMUprracreSUmmGIrr68VA0gGXUMzCa11upu7QHtUwgMgp0Vj2fcS6u25llX7tWF0Mnj5HjSthzmin6VoTdzR9BIv0RdG8dwuFHWd+uon3qFxy2svFHBZinaWqOKqM2icXDXdt2VilMP7aJq66IdK6R6tWpKFl0G6PEnMJwx+8DKddr7D+xaXUdTocmzC6CIWi6DDFuvFcvHMXdU5x+PYV6bF9060hjMo0YYRHxdTh2vHZKaGOeqFlG5ycji4V02azBvdPOKYBRp9zK3//82QCRbq0ZU61hYdZumgbpcZAQjvuadLR/G3+38dsN47g2mv7tctverawuIOjSbB5y+yeEIUv2WS07jO0oUGzuITS09V5DNbwzFCycYPVQNSu9YdKURyasHQ0XnpRzsP7eeBcV8Kz9+7kSv269sNSGtzdGRGte+oELdr+fd0wNdaTVqA7nmrqS1mwDcYPcuc4k7H2411Lko8m+652qPSQ3g7vhGi07sUze3i01VfFU5ssOYrmbF3iW19GXtph9or+fMXOIpzDIwjUKqh7IMHuVRxat5E9KZnk5JeIPssBl9ZGVl1OeZM7QaGuuoMWpgH/QO+2XqSqkiqLkENtHjmibrdeeYUlFGSXUn/c8cJ+NENx8KgxnPe7axh31kwGDBlO/yHDrH+1e8194LD2p592h6LUkrptH+UeiSRH2+xFqqyiqtmMr3+rIFpk6e3jZdPfdC9/ajTZuOPn1xaOhoufL24NFVTZLFg4LvaUg0QikfyKOGONK1U1YfI3U1+cr40ysOU7UtODiH/6I6a+cCueme+z/fMjLZ4dIjH7i7EiqxNtsh1ZlB4qRxl8OclXnk3QpHOIv/cZEvsWkP7pAhsDxITXhIvo88ebiBwzHN/BIwk8/076T/Wles1yjrEr1CaahcXl0n8GgWKA9deuPgFHBzXjqNmE+laS8/WnlKQcoFK/ijNLwcubNr24jOJ92ZB0MYMvn0bA2JnE//0J4qMyOfLJ0nZ7kKx0E2+rXKpt5NJ62p/abpbKPrloA6Y5VIR/vOWPAtU9Gl89PQETxuDlLmxj5+CW9I0aidmzJX2q8ygGPHw93vUbSFtRhnn4WN2PuOJs5wePUHqgEsex1zPoEpHX8dOI+uMTjHnmAeL7CC2sg1wUxZlFm11xGlTMlaG64ynlECtXZ+E88VZeuv0yZs06l2vue43bRjUfo3xXeyQx58a/8487L2PmWZOYNvsKHrhtBn6Ve9l5WPfUGblf8fb8YiIu+iNn2xyQceDrb9jlPJV7/n0nV5w7g3OvvYdX/jKamlVfM78TYyNr1wFKnYZz2e3nM3XqJCZr14iIoyenHZj7NTs8z+PRl2/l0tnTmHnpDTzz5tu88tBMAjpM0/SWnLX9ViOTnGjYU8pXKdXsPlhjvbYuKWF3s4mhAzsYCUZnBo7yZsoYH67+fSIvzXIla3keC6v15z1A9XJl0kgvpo5yJ0D0li4B7kwR91OSXfFubUcd0Krb0p9KUCNNnGz10pYE95tdwkDVg6Xr2iu5J0Jvh3fi1FJaWo9TSALxQe6YzD5EJScSaDsiOYYxZNIERvb1w0Vrxk4eBHm7Yairxnoid10d9cKICAjzwkmbgXHyFGHE0Hq8jkIRhw5U4Nl3BMnxYQQGBRM9aCQJ3pa2+Ro1n0OpDYT2H0yEj7P4jgFnzwiSJ05m4iDROXZRxj3FQ/Tjif0HYjR2/tpCc+87OBl3Ly/dxT6Umkx27C7G5GlrleaKsbCRwKTBRHo5iTwZcQtJIinYoS3f9sjfks/B1Drr4RiRQjbafLeLfyzJid6UH0qluON40wV2lYNEIpH8ijAG+gc+on+24ujoSFNTr7xvPcW443v2xXiXLyN1Uy5KcxHFS74jc/1asua9y4F5m2lo/W2diAkknBNP+Y9vkW+z2b8jiqJSvWsnjQEDCZp4FqHD+2Jq3Efaa8+Ssk2YTPpgoijFVGSomAeNJWzGLCImCWU/woHKZa+z/YPNNKkdBp2mLGqa4oTSP53IqVMImzCZAMddHF6fKcZuD8L/dBvBlh/Y/vrGdjNIlpAxxI9xo3jeYiqatA3cUH9gN/V+AwieNJOwUf0w1e3k8L+f5/CeTg6LOE68VnS5VFjl0vrdPoRdexbOuz8jdWvLSYv2ykX7zazgy8/DI20eKRu6FrRhwu1MvPMqa3pCx/bBRXzfOW4coeMnETIukcbV31BcKsKMnUW/85JwMoXjP3aS9Xnr5d2whrSj6bNQtWOHSN9gQidPJ2z0EDxNBeR98iw7vk9t+/0zGwqOOBE3tYCLhwqDYZMb6bXH+rGHoHFXMCcuhx/eXUl2azwxk/njDH92ff45m0q0clPJ3bqZQv/BTDp7FrOmDCawYhEvfNvMOZO82PrJV2wtb/lu1e6tpLomMP7s2Zw3ZzbTxyXhW7aJd//xLHPT2qYIA8ZczoUJuUfj1WavMg4bmHD1xQxTV/DFxpaTFNWynazeUUfMuJnMPv9sJvT1onDNmzzw2FdkNByb5+aMXaQY+jDtwku4eM4szp45g+l9Kvj2881UiHjUsl2s3lpPrDCwz59zLtOGRdC8/zuevf9l1nYyW9krcvby4S9XeZO74AhfHbRRx+qaCB0VzHS3at5dXWNd+hqcHMgF/T0YMc6PmcIIGuBnYceiNO59v4zSo+3SgbHnBBGXV8AHW22n25yZdpE/3gfy+HKvPv88LJJv7opg1jhPQh0UTKHezNTCHqKw8etSMvUyDxsWzLkBNXw+v4IS4WbJtRA/y59Ep0a2Lsxno16+PUFVm4mYmM+/ryqjfFE4D6127HJZsT30dnjHQ/EMIT7AQs7BfGo6iUNzqimtxME/jNi4GCJDhFGRt49sYxg+DVmkatPhFiHLGhdCE/rSJyGOuPgI/Iyl7N+ymzxt1kQ8L2/0JKJPXxITY4mJFMZQVgZVPr7CvjhEfrVCQ0kO+Q2u+IcEExLkjVNtOrvSFcKCDeSn5FItElJXlE+lKYQ+/UU81nCEeVZ8kO07s6jr2JefIBYxpubnZJF28MBxr8rSMpqbO19G6xkWT0BzLody278laCwvos4zjCC3WnJEnjR51xYXUm8Op0+/PiQkxhDuXU3Kvgp8gowU6PnuTv5aGdUL2VS5hgrDMMkq4+gQMzVp29l2sAyLMJu0NuMfE4FLaSpZZW1rNszBcQSRx+G8lrTaUw4SiUTya0EZkDSw3csjV1dXamvtOR74l0V7oRhw+1yGD1zN+htfpKTjvhqJpBtc4or59725jHByZc0PQdz9malTRVByckg59xzVo4o7b8vl0oH1lKwL4+Z/epJmOXGZ9XZ4vYqDAUXby9dFnVANBpxdXDA21VFbLxT4jv6MTriZDNRW1tLxKHhtnNBeboh/WxwEhvChzEiqZ+OCXe1mX6w/gmtyFpZALfVnwvtFO1CNjmhZqqtpEPnrXL7dyV9DKwNXF0caauqOkbE99KQcJBKJ5EznjJ250vrimkIngmZfSOSYCAyOrjh5B+Ia4kxTVvEpeyMr+fXQVGLiu+Ue5Dk1MijAyLL1LtTKetPrSDmfAL7VXD4cln0Uzv2fulF4sjMovR1eb6KdjHCc+qCdvmppbKTJ0oU/VTucpekY48G6r2fgeEZEQGFBGQ3CmHT0CCChbwweVRnsza5oZ1AoIgRLY5O2ffdXg6I209SoZeg45d2N/DW0MmjSDLATMqx6Vg4SiURypnPGzly14tD/IvpeMYuA2CCcXR1E7z2Pn65/lXLZWUskvwqmXnSj/unMZulXb+ifJD8bpmAGjuhPiFk76VLByUmhvjSDXRv3UtjJsljJKUKWg0Qi+Q1xxhtXEolEIpF0haoqOLq7Y3Y20FhbSU11k5wp+QWQ5SCRSH4rSONKIpFIJBKJRCKRSHqBM/YodolEIpFIJBKJRCI5nZDGlUQikUgkEolEIpH0AtK4kkgkEolEIpFIJJJeQBpXEolEIpFIJBKJRNILSONKIpFIJBKJRCKRSHoBaVxJJBKJRCKRSCQSSS8gjSuJRCKRSCQSiUQi6QWkcSWRSCQSiUQikUgkvYA0riQSiUQikUgkEomkF5DGlUQikQgUt3rGDazHVVV1F8nPhWquY9yABtw4dbK3FquTM4osX4lEIpGcQqRx9TOijekOp1B5kEgkPUelkdGXZvHD6wd47YoqzLr76YTVHnA4fbtrVSTQeDLJ863i7of3s/ClHK5KaNIdewfVEEb41a8x+42fuPzt14jz1B9IJBKJRHIKkMZVB5IjzmVn8nBGHeftZv/w2ewceWXbNWwMU7p5G6qqbvyh7yVsHX4Of3H7eQws89X/ZdZn9+Fvkza1z5+ZMu9z+g34edJwPFwufplzvl109Dr7i6+Y9MydhEU56T4kpyNadQqZHs/k6Z4Yuqj3kTdP4oH/JRJmW/dG9efueeOYGPnL171WVLWJyTen8erFVeQtiuaSp7wpVBT9aQtaFpwGXMLAp99myiffMeOTDxhz+4W4mzrPh3nydSTMGoCxC9n0FFV1xv+W95j51VyGTDLprqcPqqowfnJ/lt88mKcT2suuK9TQcOb/pT+3B+oySvPh+vsjmd9QyT0PZ/DXxOYW917ANO3/GHNWFFULn2DFM8+RWa0/kEgkEonkFCCNqxMgtWADt+1fab2eLqrUXbtDpaHZQoOlifqfQbfU9DpzaBDkZVGlu2kYI8JwQbhl6A6/IObQUNT85ex88hE2Pvko295dQl3oWQx84Aa8jD+DkCQniIGQCTGMmeCBg+5ypmIaXsjDUxrZ+VE0N7xv5kDFsV2isf+fGPXItfhUr+PQGy+x98dUXMbfyPDrRxyzxExVgwk6/3JiBvph0d1OHldcfNxQq7Ipz6vT3U4nFHxNjqh1dRwqt88ocvd2xot60kpb7hXFQFGKJ48/FMX/cmv4w1+K6G/onT7APSwSQ+lyds39gbzd+6mz2GcASiQSiURyIkjjqlOU4y7eq64vZFl5tvXaVGvfEhZFqeGjlLkM27qI/9b8HIN7KOYQJyw5mdToLhpuoSFQmU1lme7wC6GqXriHuKNmbSNz3U8Url9D3g//YfNnuyFgKAERukeJ5BShzVrNnlmMb64fz34n2kqHGSsNVXUl5KJzMR35kPWP/ZeMFcvIeP8xDmyz4JLYj2PnkaJwC4Ka7DSt0etuJ4eilJH1+MUs/N0tHN7fezM6vYWiNDPvx+1MfGs/b+Xbl+dYYVxRXUdave6gozS48MoHfpQEF/G7Yb1jXDXV14Kz6xn/IkAikUgkZwbKgKSB7UYwV1dXamvFYHSGoC3je883j/uPNHFRZAz9HJrJr07nldStLGzQPQlGRZ3Pm56ZXLt9C9t0pUf1HMXGRB8+3PED/65vcbOG55PHPamNXBoRS3/HZvJEeP8W4S22Ca+V+JCz+SqknNs2/cSyzpQzn7Fsj4vA2Pqs4TB/3rqenzrx62WK4/aIBMaa3DA315FRlcbrGbtY1km83aGqYxn8+f/h+f1NrPogVXczEPbQ9wzyfI8ld31Kg54GJXg8CddfQWifMJzdHWiuzKds7fvsfH0Ztc1t6VQdgwm45HriJ/TD7GemuSSV/O//w555e2m2yY/f375kRN8lbPnUkZgrJ+HhaaH+0Ap2v/gqRcUt/lQ1mf4fPE3gT3ex7I1dVjcNZfLDzLwtgkN//QMH03W/dsZrTz5UdRgDP34CvxXPkeI8i/gxcThZiihd8io73t18VCYaqmMIgZeJeMf3w83HhaaiQ+R/+W/2LklD1f21hue74hkOOs0mYVwcjk1FlC17g+3/W98uvN6Wsz1oS7b8pvbh7EuDCPZVqD6YxaJ1LlzyRzdW3LCWdQWt+VBxS4pi2u8jiI50wamxltx1qSx8O4tCvW2oyUnc+Ug4pk7SoKrN7HthIXNXtTzTlgVeNSyX967bT1arrEb15577vNj419WsbC1b1ZHIi/sy9Ww//H0cMTY2UHoojzX/3cduYZ+0Yk/6NNQ+ifz1mRAOvrwHdXofBsY60VhSwd6Pd7F4Rc3RctNQ1WqefP8wI1fHMe2tzpfbqWp/+r/3gqind7Dsv3t0V1GWZh+cjLXUl4kwMRB837cMHSMMhk5Qqxax4YrnKNbjtq99uBL52NcMGNz2/qvsw9/z0+c5+l0LPal/qlssEdf9mZjhcbg4VVA2/z8UxD5MX8NrLHxwXqfGZVdo9eri84dwd2Tbd/av28nvNx/bWamuJq4dF86cCBM+Sj3btqSzOjiRu10ymf5VAZUd4lUNVTz97hEGLU1g1nsuuuuJ4zr7XeZcUsra624j3aadSSQSiURyKviVzFwFcmWQI6uyN/FYVhrFrok8GZdE9InueVACuDrQidU5LeGViPCeik0i6kTCq9jD7QdWWZcQPl9kO4fUHtUpjhf7DGeyoYhPMjbwWHYqea5JPN9nCMNO5BCMoAjcXSxUZ6brDhqRuIUYacrOOKp0qSSS8Mh9RPkf5vDrj7Px4X+wa3Ex7jPuJGlym8KpzTQF3f4Cw2eHUrniA3a/8hppqe6EXv8o/Ue3KUCtM1Io/QkdWk7Wx6+y99t9GPqez8DLh2oeWjy6h+PuCTW5mS33AlV1wm9wEkr1AUp1Z7vjtTMfeAm5aCcWDJhCQPlSUt54jSP7jfheeBfxA40tfgSq6k3wHc8zbFYwFUvfZfer/yWrMJiIWx8joY+NgqaHpwyYRlDVCg688Qbpqa74zbmTxOE24fWynO3FEB/LJbeG41OYzfLX9rBmhzOjZvvSUcVUQqK4+B+JRDUVsPbN3cz/uhiHMf25+o4gTK1llprBdy9s56vnd7I1TUVNy+Cb57eJ+23MFe4b9rZ46wkOY/tw6TV+NG86yPfPb2XuG0fI8QjlvPsSCLJpb3alz4aYWeGw/iA/vJbCnlI3hv9tEKNC9YetODbh4wZ5hY66Q2fkU1vYjMuYS4ns66sVkNVVrSqhvrxWJEyTpELZvKfYqC1v/WIHFjWfrDe0pa4t16anPkNf/WYtX7vah6gxRV882hLG26upVeupyWpvWFmxt/6pAYTf+wwDRpso+f51dr05l8r+1xEdpVCXm9Ejw6qVzZsPce/3B7l3VTFFqoXMkg7TUAIVJ646O5E/R4jiEEbVk6sKyIkO43d+CuVltccYVlYsjuQLgfl49c7BFg011aIhmHA4eTtNIpFIJJJu+XUYV451/Hh4A+8UC+WvYBt/ycrDaA5h4vF0puPhWM/8I+3Dc3APYdIJhKc0lbFCX0K4taFrZSHSN4ZhxlxeOrCBt4sy+KFwN39LPUSxSxTnCV2sx0SGYhKKYWWmzc4Ph0jcA6E6x8bgih1HcFAdOe89T/qajRRv30D2e8+y+fnnSU2xWYKUeClJYx3IfuVOdn36Izkr5nPw2f+RX++BT/8Y3ZNGNKZgoR8VLWb38++RqS2j+vDfwkAAl4Ag3Y8gMlykr5aa4nqMJleMPuH4XfQQAya4Uf715xS2JtveeO3NR2SYiNdC7eKX2PbBD+SsXMDBf34plF8f3KM9dE+CmDkkjnEl74272fX5AhHvDxz41zdUKIH49PXRPQkiQnEV4dWtfIXN786z+tv/2rdU4CkMWZvwel3O9uE3Ogjf+kIWP36Azcvz2fnZLhasaTjGuAqYHkF4Yx7zH93PpmW57J67j0/fL8JxZDQD/Fv8KGVVHFyVz96VeRRUCIeKSlLE533CbZ9QmrOLeq6g+8Z54lxTwJrXM9i7tpADy9L57oktfP1RIXU267jsSV8bTlSs3MnCb3LZuzyDRc8eJsvoSUxyh4VhTprqD43H0eEVpZC0tz6g2DCcfk9/yPR3XmXIDbPxsjlxTlsWV7dvLYXr11JR7YihOYOiRdpS1xa3wl2ZNjOO9rUPRamjZpf+/RItnXlUZh1rRNpd/xLmEDdIIff1u9j1hajPy79hzxsbaPbSljDavoCxD0VRSc8pZ2VqOauE7eJBPRmdLTUOCuDSEJVFy1N4dnsJi1KKeHZVJapIWlbpscZYCwpaV+ng0El+7cBqnzoJY8rVhJNPIpEDY2nO3kGRPMhCIpFIJD8Dvw7jqrGCw436Z0FlfZVQLkwEdL5Kp3u6CM//FB5iF+FshroyDtgoes2Vm5mxcS4Pa4psD3EJC8PBkkO17cEVIeG4OdRTZfsG3NJEs1DP/C+6lZjZ0wkc0heTuYiy1SsoyWxTfswjh+Fas4P8HWqLMWQy4dqvH+5OFqGcZeu+BPqMVNm6FTZLkowinjoayis1razFJSwUFxFv+L3zmPmpuN59m5FXRFE19xE2fJ4qvLX4szteO/PhEB4qFNX95Apj4CjOziKFKhab5bCuQ5Nxs+wmf63NcSAGo1D7mmmsbnNziAjDmYPkrcg+mmZNORQJEtXIpuB6W8524uEtKq0wikpszkEozKgWuW2PT6AL5FVRbDQKvdRgvZqzKqlUXPEWxsCpouRQOfUmfyb8LY5h0/yJ7ivyW1IijLVSymwOHuhZ+hopzrRZnlZcTXGlBSf3E+sQmg98zPobrmXti2+RvrcBrxm3MurxP+DeyYELZm1PY3E2VV0t5bWzfdhiCgvBYMmiqpPit7f+uQ4egMmyh/x1NhaG8K9QRVVmie5wYoR7O+PYXEdaJ8ZVRLiZgOYKfkrruFesmYzSE1jvbBfh9HtkJZf+dxUXvfw2/dwWsPLJ1yjvRLYSiUQikfQ2v5JlgWoHZVG7P5mBtPPwTuXYbNTDto1XU5Y0lcR2n4i9tCh5WVTY6i/hYUK9z6U63SaW1C/Z9cFq6rzHEveHOxj2yMtMfv9TRl4Uf/QkNG2vlpdQ4hS3iQz9RDeGPv2GKY+dh9O+D9m3pNzqz4rwZ6KcqvQ2TUtR8jlyz/kseXG17qKd4BUKNZvY++A9rHvwDfKrVRpWv8LG9zfRpOe3R/HakQ8N91ARb3lm+wM9rLNoRULJbLNAzMI4pTCTclv5iTS7av7S24wh9xDtgJAMyot0B40IbdYwTzjbzBr2tpztRbGtUTpqc4f6LeqfqIBKfAI3fzqde1qvp2PwFs8Mp/AkgMaf9vPF+4U0xIQy7o/J/O6ZCdz20SQuu8Cj3THvPUufaK82uryiFPP9VUt459MOy3JF8J1Ip1OUhkLKVn7FgefvYM0bG1EjphPeT3+oo6pmzCHCcsptf0JnO+xsH7a4BQnrsSCHqk5m2Oytf9Z6n59Bhc1LI4Mw2lzIobptZe4JEe0lDN+KetJsqnsrcV6uor3VccjmmYMwxoKoJaM7m87ewjmGfFLfuoUlT97CspdfJNf5Asb8aQ4uNvVJIpFIJJJTxa/EuNLewNqi3QsFy2YstVg/d/AnlHiD8HesTtB5eKcSa/pEenpuRh2LqpowB7UoebYrYUwR4RgbhGGRqzsIFKWa0i+fZO3NV7Dw4vNZ+Oe72L/biO+c2VbFtQWhEAYbadr+rjCENGNIXA/cxU9/vYqlf/+Iysa2VBuFAdfdUe+aEWEO8YfsPeTu2Ebxjq/J3FqD09Ax+LQTgP3x2pMPbU+XOcxXyCWznfLrLIwmp2bhpq+Osu6LCXaDnIz2/oTS6mgR8jvqz0kYiX7CX/vwXMPDcbBkt5s17G0520tdtbAy3ByFUdiGm7fLMQ3fIiqgmpbGFw9u4AOb68OHtmlbl3pMs9aoOr4UMLS0t+Z2hk8j6V/t5qPbVvHSZYt4+ppVfLG0kZir+5DcJpheT5+VWiNVIi3uZpsE2aA6ROA38xz8otqvB65PTadB5OTY0ojGTdhBx9vDZE/7sEVVfYQBZULtUMc07K1/Wntz8RL1ubyE1tcHmpvvgCSUWmG02Uzi9hRVNRLpaaS5rI5U3a0V7bCScC8DlrJa2u389HHB2FRPepcz8s14iORW157Y8KQoDdQc2UjB3g3kb57L9pW7cR40gxC550oikUgkPwO/DuPK0YNYG/3H3cUND2ootJl1SK8TZoaTJ31s/MW6euCsVpPVcel/F+EVdPQnaNBekQtFqm3r+ImRWS/S5+xFH5u38Ip5KItHXMSj7j017ITy0mEJo0oIIcOjaN69mSLdmlTVcIKu/hPRQ1q0WKW5nqbsnZRk1ggNst7G6DRhFIpJc9FhYQhto2Tndop37qLOKQ7fviFaQLo/7Q259ia9u6PeWw/WSKdOMyiVZgo2bKHJawRB/W2VUvvitT8fkcLoFFVexNmqTmuzDYFDEyB1F4VHJzY8cBDKnRZ8a2o0JTd4eCJqymYKj05wReAmwmvMEcq2jTJtnTUszDw6S3Aq5Gwv+XuFQu0RzMTfB+Dn64RnUhjTprof86qgJF9kSlNod5eQvrPUeqVlNKAYVSw2sx2tWA0kkeXOTQgoLawFTzP+NvsFfSLccWiuozRPdxD4Toxn+uX+mEXeNBE2ldWQsqaYGiEIzwDdk6Cn6bMLYZykibRExdTh2pls3YYS/+e/0ndM27pDzZjwmjAK19qdFO3THVtxCcUsirjO5pCWjtjXPmyJtO7RqtX2SdrUsRbsq38a9VWiPGInEzs8AievEHxn/40+I0Vi84812nqGC+GeIhhhQLXOOLdhwCz6UUuTMKh1F9XgzPQYk3U263BX1dm7liQf0Wdn9846bAdnzapqajH4JRKJRCI5xRgD/QMf0T9bcXR0pKnpODu8TzOCPRO5wNkBT3dvoRIbCXeP4a7QaPxrD/JcXiFl+oBfVa8yJKAPMz1dsTQ7EuPZl3tCQmgq2c6TpRU06v6s4bk44Wf2wnyc8FqpNPhymX8ooUod1QY3olw8iHZqJre+waps+AnNaJTJk2jhnugezhiThcyaJjw0f86KUNTrrIpRWYPCiMBEZnmaMAgFLsQtnL+E96FvUyovZueQrXZUXI5HPUrcDMJH98Gs1KD6JhJ8xa3E9Ssh9WXtuOdWVSeY8FvvJH6wH42l9Tj4huMx8nL6ntePpmVvsH97odDntHgrcOhzLmGj+gr1X1isvtH4nfVHBt58EZ7Z88k60PJDytrbcL9zbyCocTX7F+3u+gQyh2SirhuHuvZdMve2qHZqnhHv88/Ct34raVsLrW72xmt3PhyGEP37sShNjvj5OaF6xRJ4wa0kjHai4L1/kpneajVVYkgU8Y5MxN1Yj+on5HfZrcQn15L56r/Iy9fbh8iHFl7zT/8T+WiZI7Se9nfR7/ArWcjeFYd0hbh35dwTLBkVlPkHkHxOJKPmxDBc5DVlXTURiQ6kfZdJVnVLGVUXKESfH8OARAPNBge8EgMZd9NAJo9pZv+3RVTY1D/tMANjXCiDh7rhWN2EU4gwoiKFYVhaTbV+LHp9kYHImZEkDXTEYjHiMySSsy70x7glhYUrq44q4sb+MZx3bTghrhaaTM74xvoy7JJI0Y5K2fBePsX6viu70+fnx8iz3ClZnsqhbn5zSVEcqPCv4LLxddSs82ZbZQf/dfW4jjub4MEDcDFaMPjFEXjeXxgwM4Tyj54lZY+wkGzruDGKkIvG4tZcRU2DO6awcNzM9dQUijou/NnbPlR3Ue5DkjBr348ZQdhkYdSn76DWGIybtv+qMosGTc521j+tvGryG/AdM42wmRcQM2cmPnVbKXUcgDnnR/atSRN+ji8rW1RhrIyJcCPW24UoPy/O6utGU3EFxYozUd6OONfXU9ykhdeMb1gAU6NcCRXWuJOHidkjgpni7YxLYSEvH2o9bbEN7cj9fpfkcHOCKx+/6cOOXvhNQPeh1xIXnsGhb5ZT1YN8SiQSiURyIvw6jCvXfP6ZbeGc8H5c7OVFc81hnjqyi802v2miNJexuqKeMI8IzvOPYoLJgdSSrdyXmUG+zfv31vD+laWF15+Lugivlea6Qg6oPpwVmMAlAdHMEmHPdK1nXkGBdQP1hIhzeCEimpl+UcKwcgSDO8PFZ+1+pnszq/JyydMUIEsJq8rrCfEI52y/GKZ7uGOpPsIzR7axuofFoSlTtfv3YQkaSOCE6YSOEMp6/S4O/+s5DmvGjK5gaHtRKjJUzIPGEjZjFhGTxuAf4UDlstfZ/sFmmnSFVVEsVO3YQWPAYEInTyds9BA8TQXkffIsO75PtdkTFkXw5efhkTaPlA1ZulsnhI0nYXYCFT/8l/xWb015GPpcRFhSA3nfbrIanPbGa28+iJpIwqwYSt76DzWjridh5lg83fLJ/eBZ9izJsglPpXrXThHvQIImnkXocCG/xn2kvSYU6m02CnXEBBLOiafix7dEPlpl0Iewa8/CefdnpG5t2QjT+3K2H0VponBDJhsX5LJ/bSZr3j9MijD4J44W9d/GuFIryzi014LfiDAGTwuj7wAzHMli4YsppHY0OgTlKRUoCUEMnhHOoAkh9B3ti7rNxqCpLufwfgu+ySEMnBJCYqwT5ZsPMu+NbMpsljfWHyymwNmD+InCWJsSRtJQL9wqi1n7yj6257S+BOhB+npgXGkUHHEibmoBFw+FA5vcSK9t+472470lm4WBEibqwdiphI4ciNkxm+wPnmH3j0eO/c2xpixqmoQBNn46kVOnEDZhMgGOot2tb53Jsq99GCbczsQ7r7J+P3RsH1xEPM5x4wgdP4mQcYk0rv6G4lIRt531z0rpPjJ/+J7sDT+ROfdtUhY4E/yHicLY/YiMnXZPo1lxjo/g45mhTE/05ax4M74ifT4Bog9M8GVavBtVKQVsEkaRJp7U/Fq8g7yYnOjD6AAjqdtLqIr3wikjhy9FH2uL9ltpERPz+fdVZZQvCueh1cIwP4E63xGPEX8kxmevyPNaanshPIlEIpFIjsev5EeE87lh6wY2yIFTcjwmPsTZd4Rw4MabOJL3260r5gtG8rdrLHx3+SZ22vwA728Vl7hi/n1vLiOcXFnzQxB3f2ai5tfelyTeyORnz6LoH5eya2ubEftLoXpUcedtuVw6sJ6SdWHc/E9P0mxOizwZ3C/4mNnnw/5/3s/elDwaqmtP6EWFRCKRSCT28Cs50OLkzgaU/DZwCw1Bacyh2mbPz28BQ5An8aP8rVefGfHMmeNFw958Uo/uHfttU3fIlxtuj+PhxS6YgxvbHf7xqyEwCf9RY8Q1lqCzrmLI7efhlPodaTtOk41I5kYijCbefymei5/vPcNKo2LBS+w65E3CnV9w4RuvEuepP5BIJBKJ5BTwK5m5yuNPWzeyXr6NlByHwLvnMTRqHitvfpvq31Bd0WaqbrvO27qfxVJdT+GeTJa9fojUYtlefiu4X/cOEy4IFXWgiaaKAqq2zWffu59RenI/cXXGoB1E4hgQg6efgeqU/dT1ovEmkUgkEoktZ7xxJZFIJBKJRCKRSCSnA7+SZYESiUQikUgkEolE8ssijSuJRCKRSCQSiUQi6QWkcSWRSCQSiUQikUgkvcAZaVyFJo/XP0kkEolEIpFIJBLJ6YGcuZJIJBKJRCKRSCSSXkAaVxKJRCKRSCQSiUTSC0jjSiKRSCQSiUQikUh6AWlcSSQSiUQikUgkEkkvII0riUQikUgkEolEIukFpHElkUgkEskZguJWz7iB9biqqu4ikUjOGNyiCewfj/EUtl/VrQ+BSRE4IPuIXwppXEkkEolEcpqj0sjoS7P44fUDvHZFFWbdXfLLoKpGHBz0G8lRNJvBYJRKfUdUfAi44EVm//NzplwyBkfdvTNUIUTjyWjnPpMZet+XnP/0U8THyZ7il0AZkDSwXStwdXWltrZWvzs90X7nKnvbav1OIukZqqowKGAAU8jilYJimhRFfyLpDVQ1kTt/+JArQ5vZ9c/ZXPdeoXBL4PYf3uWKIEcO//dCrnwjU/f920NTPkJnxJNIASsXltF8EvUv8uZJXDUsl/eu20+WHo46qj/33OfFxr+uZmX6L1u3g66bwB8vMOl3YKmtp+RALj+9dYDdGVIBsxdVbWLyLam8OMnC9u9CeWaeGwcqzpx3o/3u+oYPrwnT76CppoSMnUt455mX+f5wve565qCqEfz+g4/4W9883rruYl7bfWw7U1VHBl5yE5NZwWtf7DyjxxnV0cyI2wcyeogZs6uCQeSl4IvVvPlBte6jBVV1ZfSzY5kaW8ea+0T/c7D38qxOGMj9d5pZfdNPrMltCde2f1HVZhrK6ijck8XK/x0htcjq3CNa4gjG2KGs1MpMPr5yN6nHKcPO0teKqnoRfMM7TBpvomD+S2z5YRHllc360/Zo+sn4yUk82d+RtYt28PeU7vtJNTScBRd4suiLXbyUr4gwjLjEn0P/a/5GQmg+u5++nl0HT2+9/teGnLmS/AYx0N+nH3/w8cFZd5H0PqlHjtBv7ETMmjURPZGxPvvYl6E//E1jIGRCDGMmePBbePGtVhex/MktfCaub97OoDgwnPMf7U+8WRpX9mIaXsjDUxrZ+VE0N7xvPqMMq1bUyvW8evtd3HH73Tz4/NdkhM7h0TcfZrLHmVgPLDTU1dPQUEe9RXc6Bkf6zbyG389MOuPHGY/Z/ThrlIEj723ni6e2WtvygqWdKesqTUIgTY0WGju3HXodtaKApSI9nz+1jflf56MOjOfS+6LxPZFldzuP6Pk7SFqdStX6fda8fv5COnm6lxPBIfk2Rk30o+DzP7P8k/ldGlYtKPiaHFHr6jhUbp8Q3b2d8aKetNKWe0WxUH/oWzY/fit78qLo96eb8DbI/vbnRBpXEonklFC/cw9pg0czzgWCJ48hZP1W9jnpDyW/HZpqyFpXwMH1hexbdJgvn0ml2DuYkZNkZbAHbdZq9sxifHP9ePY7Jyxn6gxIYz67lixn+dLlLPzyP9xx58dk+E3litm+uoczB0XJ5pM/TWPU2Kt5e98ZWh49wCfIhFJWyPYf863tWLsyco5V/BWljs3/t5xnrljH2sM/k1yaao/2L7u/OcAn7xdhiAsiIVB/3gOUsioOiXBS1pVRIYzmxsKylvxuraL2BNudqpqJnDEd1/yv2Tr/MGo34ShKM/N+3M7Et/bzVr59ccYK44rqOtI6TAIrDXvZ9el86oLOJ3GIXMP6cyKNK8lpjeqWzOIRF/B/vmE80Odc1g27hBUDp3C/j7ndhlBtjbKPWwJP9TmHZcMuZUPyLN6OiibB5m2N6jGc1SOuYNeoy/i7l+i0vEawbtTv2DnySnaOuJwXfNr8joo6n52DhpBsG4fnKDaMmMWtzjZudqYvOeJcdiYP5zyvIXww8GI2DpnDvIQhTDtB/XLk/y1g66J7GGSbvqmPsnbHl9wSb+OmejH8D0/x4cIlrNu2iU3rF/PN2w9wbnz7Fd9aMD7Jv+OJ9+ayeN1a1q74ijf/7wLiTW1haaiD72L+jsU8eN4U7nvvW1ZvXMWS79/k77Mij9mgayrfwpq8IYwd48eU8XFsXLkdY4dXuNoykqRL7+c/c+ezcuNaflr+LR8+dwOjOwyMg/7+LVtXPMQ5U+/g7R+Xs07kY95b9zA9wqj7aMFef6civ92hJidxx7wZPPTddGYOVFAG9uOe787mwW9n8sC86Vw4oS08LWhT/yjmPDuev306jbveGcdVt4YTdIKzPdoSpYiLBnLdW1O4Z+4M7vtsMjc90RcRRTu0dmTqG8l5z2jxnsXdH4h4bw7F36bOa6h9Erl13mRmTglgxtMTuPuLadz2xgimT3RF6UYu6uFy8hoUPIPblgvaHa+d+Qi7YQIPfJBEv1EJXPWm8Cv8/fnxRPoE6x507JVza3j9xyZy7VtTuedTEe+jiSQG6R50elvOLdQzOL6Zgh1m9jZ3rmydCf1BR5r37WFfvYHQiLblgvbGa387V/AdcQ1Pffi1CG8NqxZ/xVuPXka/DrNldsvl7KfZvGMT23Zutl5bVz/MmA75VMc9xArhZ/uuVdw7QrTzEXezZteWFv87NvDs2W3+7U6fHXJWHSfy1OpNLHtiQjvZqw6TeOqnTcy/f6gWoe7aPZpPo8mAk7gcrXq5AQc3o/Veu4w2+6q0JXH3ib5N68us/dlH/YjuJC7725GC31lJXCPa7t2fT+HGh2OIdNEfdkNDVQNNCLnr2q3q4Mecj2Zwx21+7fom1ejPnE9mcOuNXlqEuqt99Cx9g/CPdaRG1IeyLtqvFt5F5w1l/a3Djl7vDutcOVBdTVxzViJzr09mxR+TeCnZjVh3MbCW13FI92NL854V5Ne64ZfYV3eR/BxI40pyBqAwKjAWpXQXjx3ZzoIGTy6PHc21Noq64pzIP/sOYbiay/9SN/BkbgEu3qN4KyYSn9aOs+YgDx9awz0H1zK3WrhVH+Shg6vFvbiE+/uVLd56TvfpayGQKwMdWJG9icdzsqk3J/J0XF8ie9ix9wTX6Xfzwt9GYln5No/eczf3Pfk+e73P5uF//oV+NvEqkb/jhdf/yrCmtbzz1GM8/d4WXKfdzxtPzmqT31EMjLx8DsqyN3nysddZVBzNpY89xtUdFEgHhwyWr6lgxPSbGZu0izXLm3HuIBPX6Q/x+gOTcNj4IS889BCPvvoNmbHX8MKzVxHWMV7jUK64zI1VbzzDE68uoDj2Eh5/9jqiTsDfqchvt6Rm8N0L2/nq+Z1sTVNR0zL45vlt4n4bc4X7hr26P4ESGsmlDycQ0VDA2jd3seDbIowjk7jqzlBMx6SvexzG9uHSa/xo3nSQ75/fytw3jpDjEcp59yUQZCuXkCgu/kciUU1avLuZ/3UxDmP6c/UdQZ3GGzMrHNYf5IfXUthT6sbwvw1iVKj+sCu8TXgKvaGmtE53sD9ee/NhxeDHiFkOHPpsDz9+lE1VuDCi7o5uV749krMiwpvpQMqne/nx83wa46O4QITnfQLp65GcHZvwcYO8wuNtgbePX7I/OIaAUEJEf1Ba1LY5pkfx2tPOo6/ipVf+wpC6n0R4j/PcRxtxnHgX/3n6Avxs/NkrFza/x5133M0dt9/FC0u62NSz/0se/fsD/P3ef/DNIdHOD83j4XvvF/f3c59w/3Cb7k9gb/pa6EbODauYJ9LkNfkcptgo+s6TpzPOnMuibzeLCO2bCbESHM11n5wlDKDpXH6Ws6j+kVwlPmv32nX9lTYHJRxdTreFRWu72UNnRzsyJMZz6c1huOdksuy1Pazb78bYc7zodJGcyJOj1ehzxD0ugJmXBmLZnM7OXP15YxHb1zbgOjKERJvxxzgySBjtdexZVtozuQh6lD5HP1xchbpRdPx9xps3H+Le7w9y76piilQLmSXHylHFiavOTuTPEaLb3ZLOk6sKyIkO43d+CuVltVR2lg9LDtVloo57+usOkp8DaVxJzgCcyStax+P5afxYcpCnDu9hh+igx3i1vdnp4x/HYEsGTx7cwofF6czL28wtmbmYfBI5V/emNJWxrCST+cWZpDQKh8ZSlhRnsEC4LSjJYkdjzzrYNrpPnxXHOuYf3sDbIn3f5m3ijpwinMwhjD95nalLIpISMFet4a0nPmb+4hUs+fYDHrrtNh545ScqbOJNvPACBjUs5Zm/PMfH387n23ee5NZ/rcc06TLO6fC2HzzI//ERnnzve+Z/9zHP3PUuOx36MnqMp/68BaODkZ0r1qLMnM2wvatZVm7E2P7FMg0/PcMFk+dw07Ofs/indaxZ8ClPf7IFp0HjGOWhe2rFvZj5DzzKe/MW8P0HL/DX/2zE0HccEzq89bTH36nIb3doS04Orspn78o8CiqEQ0UlKeLzPuG2TwyS2UVt9S/wrHBCG/OY/+h+Ni3LZ/fX+/n0/SIchkQw0E/31AN84zxxrilgzesZ7F1byIFl6Xz3xBa+/qiQOpvVIgHTIwg/Gm8uu+fus8brODKaAceMzU5UrNzJwm9y2bs8g0XPHibL6ElMcoflJ4pBV34MmEJ8GHNHNGGiLe5Z1WZc2Ruvvfmw4lbP7hf3sH6pkN+3KXz+cTGG2EASbOTXIzmbG9jzz92sW6Klby9fzi3HGOePSNJRTomcnTSVSnRXTS23J8Mv2R+gGHFxd8PN7IZv5Cj+8PhVDGgUBu38bN1DD+O1o533mXM+/RuW8MwtWngL+O7dZ/jLv9fjMnYOs2z82SsXpXAfK5euYLm4tuW01V9blKJ9LJu/iAU/LuVAiXAoSWHpjwtZKNwWzl/Czry2dm5v+lo4vpwVRWXdlwvJdhvLrJktho+qOjF5xljcUhfy7S6rk/0U5fL9Qxv54MENLNrQgFom6qv4rN1r17eL2vZctS6nsy4XzO9yE1oLdrSjgNEBeNcVsOTxFLasyGfnZ7tYstnS6R5VxTuCK60G31T++sJgEqqP8NmzWVTphob2J3VhNqWmAAaMbxmAtJmixPEBOGVmszPF6tQjepI+HB3RYm1u0pSOztHKLj2nnJWp5ayq1kq6ngxhEB1DUACXhqgsWp7Cs9tLWJRSxLOrKlHFWJlV2pVR24BF9B0G4ylUNCTHII0ryRlAPem1Nh1HQyXpQtMw2awxi3QWg0l9OamKA25Cg9euxrpyCjATccwMUm/TffqsNFZw0KZ/zayrEt90xusU9nmZew9SZR7LjY/fxOVzpjImORbv/E1ikN9IZlPbIB8ZGiJ65zSOGDXlx2S9Go+kUqiEEhGpezpKOelHivXPgoIMMRDU4ebZfu+EQZQFm3/kw8Wr+eLzJWh6RscXaxYR/tl/f4vFm9aydu0q1ohrxUPjxHc98PbWPbVSnsbhAv2zoDIzhwr8CeyohNjh71TktzfxDnQV8VRRYFOt6tIrqcIVL5H0nlJyqJx6kz8T/hbHsGn+RPc14VpSIoy6UsosbYXiE+gCeVUUi/bTuvynOauSSsUV72OU6kaKMxv0z4LiaoorLThpS1RsUDzCuFx/233H6yOYHNfA1pe3szFf9yCwN15782GlqpJCfYO3Rl1eNXWivZltjJceyVmEl28zWVGWXU2TCM/kozsITo2ce49fsj9QvGfzT2sbX8mS717hln6lfPPQA3yYpXsQ9CheO9p5hBZeTiopNnZQRUoqxYQSbjOzZq9ceht709eCHXLePZcfDjoz5pxZeGozQS4TmT7WxP7533G4h7MzSmMdeTtLSRdXfmmzdW9T/o4S67125eXbd9jCMdjRjrQDGiirpsRmvCzMqLYuVeyIWp7PQqvBt5EvXj1CfmAsl9wV0nKQUisHM9mVZiR2YggumruzP/2SHchbnU1RD+Wi0ZP09ZRwEbZjcx1pnRhXEeFmApor+Cmto+ybySi16YslvzjSuJKcAajtptsVJZcHt33BlblVugs4GkRVdh/EvGGXsa716teXMJST+70Iu+g+fS2096et89bulY79ZC9Ss+g57np5DdWJZ/PHex/n1fc+Y+Hq7/n37/vhZDP4ODoaUfr9ia91A8d6vXulGOINOBxj/Il026RZUVbzfxPHc9XrqbqLjhi0lOZdvH/PXTy/oFB3bENVDYy5+wXumOzEupfv5ZY/3cxN2vXGlvZyakUkt93gJdKvivLV/m+HHf5OSX57EaNRJLa5XS70fIhOu9PXo8en8af9fPF+IQ0xoYz7YzK/e2YCt300icsu8MBgUw+0eJX4BG7WjSHr9XQMmp17bLwiPe3kUsz3Vy3hnU9rdJcW1KoCFmnKzyMp1hO4KlbtY8FKoU3aKDX2xmtvPqyI23Yu1vv2laVHctbdjyK+19wS6FFOiZzbR3FS/JL9gVqxmhe09n3LG2yuVSmc/wKP/5jTrh70KN6OcrGWjwjLpoi18LTEtffXLMqtfXj2yqW3sTd9LXQvZ0XJ4OvvdmIcNpNzAsF01nRGu+xh/rfpuo/TADvakbVKtHcSX+sgp1Yswgi0Gn0lpCw6xOfPpdMwIokpY9oqgqLUsm15KUr/UAYIW9RxTAjRzuXsXta+r7KXHqWvY//SDdFeLsLCrietkwnAOC9XYWPXccjmmYMwxoKoJUN7e9kpLXLoIHXJKUYaV5JfBY3aqFN1gDv2LuZPtte+Vbzb/qc47MJi7YeEAmS90xE9qkF0UN0sevhZsFhEfhVD+wYsDExFDFMWmwQqSikb//cwN146h6mjxjJm6mXcPa+KUX+9jQts3uA3NlpQD33JXa0Gjn79+ca7eXen7qnX6c+EMX7ULP8PD723lLXrN7JBXBvTtTVznSAKo2N5aPm1VfCt2OHvl8mv/Vi0Cmholws9H+KZzdvSZq2srSO9DeJ7Wj1tr4g1kv7Vbj66bRUvXbaIp69ZxRdLG4m5ug/JNjOEWrxqWhpf2Cz/0a4PH9qmba06MYTyo73xTttyhJVLa/GcHMsAL/2Zjr3x2psPK8fUA+1/EY+NjmGvnO3llMi51kiVKEt3c8eK3sYZ0R80lXBw3QbWr3qb1+flEnjudZzfYellj+I9pnw7b+ctcrDBKicLjTYv+u2VS29jb/p6Qt4337HJMpCzz41n2vRROG5biGbDnklY22iH8lWEXNrJqQua95eRb3HAL9xm45mgckkWac1e9Jtips9YPxz2ZrPLZuazJ/QoffVVNIg66eTW/TJy7fepIj2NNJfV0fHVnXZYTriXqBlltdiaypE+Lhib6ulq2ARPnN1EXavp+LJXciqRxpXkV0G66MC0Bc8llQWsryy0XutqG0SH10yTjTLVgjCQrJ1jixLVGel1wiJz8qSPzdvDWFcPnNVqsrpa2vwzkpGdC76xJNoM/DHxMThbcsi22Tcbfc6t/P3PkwkUo4Emi9rCwyxdtI1SYyChNsuP0rPF6GsW8tu4wWrgaNf6Q6UoDk0npGTaRx31QoEwODkdXauuzWYN7p/QecfkGUVsgP5Z4B4eggdFFNgsL7Nih79Tll+PeCbPuYDZ46JwtdXiO2A1fDoMzraU5NeBv5kAmxV2LpHuIsm1lNosoyotrBX5NePvrjsIfCLccWiuo9Tmh1l8J8Yz/XJ/61IZzRZrKqshZU0xNUYXPG1kZY1XDMTVu9uW/6RliHZkFG3mJOuBFm/GV6lkGH0Zc4FQNGzkY2+89ubDitkdfxuDxiXYhAv1VNssSbJXzvZySuSsOpEmyjIqpq7LOnUm9QdavJv/9zHbjSO49tp+7epBj+K1t50HR5Ngo2e7J0ThSzYZNtqrvXLpGcKw1dp5R+PJBnvT1yPKFvDt6hqSZtzHRaOMbPjxR4q1ytgZdvZXPzeV2v4hLzd8bMZf/wi3LuVoixLjgZ9oRxWFoo3ZUpnHjs1NhIzrz9DBCqkrc6jpSi7d0KP0qYcpF3XSM3qgHSfMuhAuusZ8YUAd+6PTBswiPotQaFrfH6gGZ6bHmKyzWYe7CtprAN5eUJF7om/HJCeCMdA/8BH9sxVHR0eamnph5+wpxCM4UrQT+WukvwmcgrkmwIv0on2saui6IyyqVxgd0o/ZbgYsihPhbmHcGDmaW31UluXlkmvT7WmbR53corlAKKVulibcXDyIc3XHqbGCQv2o1Kp6lSEBfZjp6SoGSEdiPPtyT0gITSXbebK0gsbWjs/O9AV7JnKBqYrvcrPJav2uSxg3+LmyM/8gGzvuF+mGqlwDyRddyswxAULpMBMz4Rru+v1Impb8m6cXpR1Nn9Ow6/jH386lr1sDTWZ/opJGc8UNlzLMdQcf/msJR/RDPIpzHBl19dWcM9CExehB+OCp3HDfQ/xlWjPL3v+JXFVPX9AYrrogjozv32d1Vldp9mPM7y4kNvN7PlrdemSTRgRT/zgT7x2f8dUW7TVbKQ0RZ3Ph7DH0dxV9jk8Moy++nStHueHr3cTWT75ia3lLHEHjrmBOmCteyQm4G0yEDz+fO/40A/+0uTz/7lbK9Pza669389uG14CJTEjww+zvSuXuFAo7KVet/hnjQhk81A3H6iacQoRxFGnCWFpNtajHGtWFCjGzo+if5IC2TdpncLhQ2kNw3nWQHxdWHi3f+iIDkTMjSRroiMVixGdIJGdd6I9xSwoLV1YdHaCN/WM479pwQlwtNJmchR7uy7BLIolyKWXDe/kU6+msLlCIPj+GAYkGmg0OeCUGMu6mgUwe08z+b4uoaJWLnx8jz3KnZHkqh47zWyzm5EiGRNewc24h5VpaqiuoCopgxGQTxQtyKdTrn73x2psPj6GRDA52wDXJjItQbr36hzLtslDcszNY9HXp0d+ssVfO1vAibfKhERbA2PEuZM/PIF2vp70uZ4GiOFDhX8Fl4+uoWefNtsq2Z62c3v0BBIy5nAsTcvnh3ZVka2mpPEBx+ByuOCecjC8WckjvO+2N1+52nuvEmCsuZ8YQD1G+HkSPvoi7bpyB26Y3eOKLA0frgb1y8es3npEDY4iOiSJh6CRGRzaSmVaDh7iPDjFSlFFCgx6mojTh2O9c5owLw62yDreIGOLiw3EqSaWotmfp60k/pMWbWhvBpVdPILJpLW88NI+DXRzWZE9/peE1PIqBIVXsmCfqZmuabDDF+RKVYMY3zI2g/kHEhjRTmt2Es7j3FQZ/dW6D9ffZ7G1HNXUu9D87lNgEozAkHPEfKcaGsW54ejQLGWSSUdXiz9q/xKlCjhZcRVzBg0OZ8sdowupzWfzffEpt8q31u0V1JoafH4BvUxErX86msMN+OtXLTPxgT/yEhRM71gf3yiqKG53wDTBQm1N/tD+1N30aiiLqhO9MEsbG0bDhG4o6TCCpzi6MEYZZrLcLUX5enNXXjabiCmEQOxPl7YhzfT3F1nQ2C/kGMDXKldDmZpw8TMweEcwUb2dcCgt5+VCtFllLoDray0rvOQ8yKD6HlHc+orim/XPJqUMaV5LTGzuNF1V0lqsqG4n1imGOfyxnebjTXHOYpw9v56dOBozcqjIM5nDmBMZxrl8UZ/kEopa1xaE0l7G6op4wjwjO849igsmB1JKt3JeZQb7t+6lfyLhSqvfz05ZqwkaexblzZjIu3pm0BS9z/7OLKLAZMKp2byXVNYHxZ8/mvDmzmT4uCd+yTbz7j2eZm9b2Zk8t28XqrfXETjqH8+ecy7RhETTv/45n73+ZtbYba3vRuNIGu9ytmyn0H8yks2cxa8pgAisW8cK3zZwzyetY4yp6I/96o56z/3odF06IRT3wHc88+B+2VLS9srPXX+/mt42GZjfCI31RCvezdW8+dV28ay1PEflPCGLwjHAGTQih72hf1G1thopaUcbBfRZ8h4YyaGoICXFOVG4+xDevZVFmqyhVl3N4v/CXHMLAKSEkxjpRvvkg897Ibuev/mAxBc4exE8URt2UMJKGegmFr5i1r+xju82PgaqVZRzaa8FvRBiDp4XRd4AZjmSx8MUUUm2V+hM0rrSqXyK67rjzI4hS89m6q2U6wt547c2HVYkLK2TpZyr9r45l6HB31NRMFvzzEJk2io+9crZXKex1OesUHHEibmoBFw+FA5vcSNeV81ZO7/7gWONKmx3KOGxgwtUXM0xdwRcbWzaM2Buv/e18J6t31BEzbiazzz+bCX29KFzzJg889hUZNv21vXIZf++nPHfL2cyYOZ0xMSYUp1CGic/a/fRhKqs++In81vohyNt1WBjckzn/4jnMPnsaU6cNh3VtsrI3fT3th5rTFfpeO52g1a/zyPdHuvzhaXv7q+6Mq7gbxnHJ70LpPz6E2HAHFEcTUeKzdt9vQDMH9e/Z247UolLSS52IHCnCnOBPsKGEFcub6D/UqZ3xovUvQwd7EaPFMy6Y+D4m1IwcFr24n5ROTspXc4Qo5wTjuSWF71ZUH/uDviP6cNM9CQyY4IuXg4JTmH9LHoYqpH5VcNRotzd9rdSmFeEx8Qrik/0o3rKWqrq2OuocH8HHM0OZnujLWfHCQBVx+AT4cFaCL9Pi3ahKKWCTMIq0qFPza/EO8mJyog+jA4ykbi+hKt4LJ5HnL7Ns1v8KtCWGbmMfYeIVQ6lf+g/Wr80+xviSnDqUAUkD200murq6UlvbdsTm6Uho8niyt63W7yQSya8d7UdD35mxiZsmPcrG4wwQ9vqT/LrRfqz02vFFfHj1HtJ/JfXAJa6Yf9+bywgnV9b8EMTdn5lOeFnTmY5s58dHGX4P89+awca/Tuf/VrZXun/T9E/kr0+EcuTxZXy/SXf7mTDEXMXE228lyCmTnAXPsWbu+i6N3pNF9RjHoJvvIrFfALUbn2PFa3Op6uELXMnJIfdcSSSSMwMxNtg1PNjrT/Lr5ldWCeoO+XLD7XE8vNgFc3Ajrrr7bxbZzjtFWwo2/vyzCChewferT+9VSD8n2nan2KkhuJflsWtLuzmFn4XmIx+y7O/Xsm5ZCg7B4Uf3GZ8S3CLxMOxk76tXM/9f0rD6JZDGlUQikUgkZwJVLnzzYSjXvuzV9SEFkt82LpOYPdmLvEXfs1HfQywROPszaJQTZWuySf+F5KIt30377H6WvvYl9aew/Sq5H7Hmyf9jz/rDp2x2THJ85LJAiUQikUgkEolEIukF5MyVRCKRSCQSiUQikfQC0riSSCQSiUQikUgkkl5AGlcSiUQikUgkEolE0gtI40oikUgkEolEIpFIegFpXEkkEolEIpFIJBJJLyCNK4lEIpFIJBKJRCLpBaRxJZFIJBKJRCKRSCS9gDSuJBKJRCKRSCQSiaQXkMaVRCKRSCQSiUQikfQC0riSSCQSiUQikUgkkl5AGlcSieT0wi2awP7xGFVVd+gcxSGUZJ8InG38qQ5RJHsF49rNdyUSya+LzvoDieSXxN7xSHXrQ2BSBA50489cx7gBDbh140/yyyONK4lEclqg4kPABS8y+5+fM+WSMTjq7h1RVQ8GxNzFqxOe44H4wZh0dysuI/j98Od5fczfOMfDVXeU/JbR9BqDUSojp5pfSs7H7Q8kkl8Se8cjn8kMve9Lzn/6KeLjzLpjJ/hWcffD+1n4Ug5XJTTpjpLTEWVA0sB2vaGrqyu1tbX63elJaPJ4sret1u8kkt7HdN5w7vijr37Xhqo2s++FhcxdpRB03QT+eEHbUK7WZfP5JTs5qCi6y6lBDY7mhtcTCOoiHnXnHp57IIMG8TzshglcO6GID6/aQ/opTtfJoKpeBN/wDpPGmyiY/xJbflhEeWWz/rQNVTUzvN9j3BPqwr7UD3knfS1pjW1dmKoa8PacwCV9r2KGuYi5mx7m44p6/amkt+hY9y219ZQcyOWntw6wO+PUKtiaEh86I55ECli5sIzm49RrVXVl9LNjmRpbx5r7VrPy4KltA/b0G2cKp7OcW+m2P8CHV7+KZ9CKfYz/d8Ux962MujGZN4cWc+0N6WzT86mOjGbjPWY+vGMn/04/c8qtt9HqwaDpYUyhhFcWVdPUC+OI6ujK1X+N4fdD3PB3UVBEmIe/3M4FH9fpPk4f1HGxbL/dhddv2c0beXrdsLNe2TseqaoRl/hz6H/N30gIzWf309ez6+CxerjWj/gnVnLj9blcFubEW49G8a8Dco7kdESWikTSBapawYZntvDZk23X509t5aedLc9Llu466r5g9c/4QqIkj0UiHS1xp3CkRqVi7b6jafn8wwIada9nCg7JtzFqoh8Fn/+Z5Z/M79Sw0nDxv5o/h3pz4OAT/OPgmnaKlIaiNFNWsYI3Nz3JNzWhXDDwYuLE0CfpfdTqIpbrde6btzMoDgzn/Ef7E28+1fI2EDIhhjETPHDQXbpGpaneQlOjhcbOq1Sv012/ceZwestZo7v+QBQGIklYWl/yd7yX2IFC/3Gh/GGcG866y8kSPCuKu0YaWP/+QW5/9gC3PbOfp1Y06E/PAOysV/aOR4piof7Qt2x+/Fb25EXR70834W3ozJ+BohRPHn8oiv/l1vCHvxTRvxN/kl8eaVxJJF1ST8GmAg6uL7S5isgva3l71ZBRetQ9Le/nG62V+loy9HhT1pVRITr1pvy2tBzcX4/aC28Xfy60t8+RM6bjmv81W+cf7jLt2tvxCeFj8KxZwjtpmcd9k640H+GTA6spd53CLH+j7nrqiBwxjnDX39gg11RD1rqW9rFv0WG+fCaVYu9gRk5y0j388ihKHZv/bznPXLGOtYd/rjZx/H7j18gvIWf7+gOh9Iquuamp1eLreC/5JYgMcsVQVs5XC0pYtqHMem3MOZPKpGf1yt7xSGnYy65P51MXdD6JQ7p+paE0uPDKB36UBBfxu2HSuDodkcaV5FeBtnTB1D+KOc+O52+fTuOud8Zx1a3hBHV4i672SeTWeZOZOSWAGU9P4O4vpnHbGyOYPtEVRQvkFKGqjkRcNJDr3prCPXNncN9nk7npib6IJLdDFWkw9Y3kvGe0fJzF3R+IfNwcir/zyaXNfVwfrn1rKvd8KuJ9NJHEIP2Bjr1ysUfO5gtG8sArcfgKz6pDMJeJ/N55W8tSKTUqjhu/HsoAJ9v8DMI/1pGaXasoaz6eYibS7e1ASfEWjtC9AtdUspldFhN9vGN0l1NH4iXPMPfHD3n8jxN7xchKjjiXncnDOc9rCB8MvJiNQ+YwL2EI0zrYLVp98XFL4Kk+57Bs2KVsSJ7F21HRJNi8zQwInMbO/v2J1cqDKF4bfgVrooOtz1TX/swbPok54snJoh4uJ69BwTO4bblg5M2TeOB/iYTZ1qFR/bl73jgmRra5actXH/ggif5jE7usp2pyEnfMm8FD301n5kAFZWA/7vnubB78diYPzJvOhRNs4pgwkPuEX+2Z9flH/Yi2SYOGagrjqnmTOO/aJG76ZBq3PBhO6Ig+3PDxNG5/sS/xPjbhie/2VrtUVScGPjSFBz4cQpJX2/c9Zw8TcpnM+WPaK18uieGc88R4/irSePcHE7n+/jjiO7ZfO9PXKud+oxK46k3RF4l+6M+PJ9KnpTpY6W05a2hO9vTP9tSDNuzpD1qU3kZLeyW47b5naMu3RlwQyyevD2XjFyPZ+tEQvn00ivMidQ861nbZJ5CnnhjAso+Gs+GdAbx9ox8JHcpDTYxg8VdD+L9J3jzw+EDWfTKcFa/04f7xzt0e6NMZyX8YyM53RHrGRPDB68PYKOrYvIcjmBbYIV5x69svkGeeGmhN39o3B/C/W/zp79bmTx0cxeqvRrLr65H8fYCQ74BY1n09mp1zR7HzqxG8MK5n6dN8u5gU3MTl6qDdGXBxM1jvtcvFZr+ePenT0JZz7nwzgmQbWWnLOTd8NYBbbfoX++WiEDc1ivdfG8qGj4fyzYMhjHRtSXt7el6v7B2PmvesIL/WDb/EvrpL5zTuMrOhpolBfbue8XOJmcgV1/+B3186mhCrzCU/F9K4kvwqUEIjufThBCIaCkRHvIsF3xZhHJnEVXeGYupkkIqZFQ7rD/LDaynsKXVj+N8GMSpUf3gUBQdXI04mQ9ulrYs4gUHPYWwfLr3Gj+ZNB/n++a3MfeMIOR6hnHdfAkE24SkhUVz8j0SimrR87Gb+18U4jOnP1XcEdZoPu1D8GDHTgZRP9/Lj5/k0xkdxwd3ReJ+AXOyRc2VmFfUBJny0m2h3fKsbaA7zwF08V0JNeBVWUmC77NzRDxcxgFUXZeoOXaB44yX0zuLaAt2hG9RCikU8Hk7WlJxSFj32ex7+Opc+1z3Xi0ZWIFcGOrAiexOP52RTb07k6bi+RNrWF+dE/tl3CMPVXP6XuoEncwtw8R7FWzGR+Oj+8msrqHTxwKr/uXkR3VSHxcXLWu8UZw9C6stJOdmkanib8BTGX03pCe6b6K6epmbw3Qvb+er5nWxNE4ZiWgbfPL9N3G9jrnDfsLfFm5WdR/hCXzq7aO3x9tw5EBZcz5r387AMjefCs1WhCGdQEhzB1HPbNpb3rF0ev99QlAZ2/Hsfh/DnrBsCrafbqV7BzLzSl4Y1u1nwk9DSdNTAcC5+JIlEl2I2vb2LHz7KpiIy2pqWcJsXFD1Kn0HIeZYDhz7bw48ivKpwYfQIObfWl1Mh5x71z/b2V3b1BxYahDibmlq/2/G+Z7iOjuSlq7ywbM7kkRcOcO9/s9nj4c+j94TT3yZ9SnAQ//y/SIZbyvnffw/z5LwKXMbE8tZtvm1yPorCqLP9UTZm89jr6SwoM3H5X2K5NkR/3FMMHlw53ciKz4/w+Jcl1McG8/SdIe37jdBAXn4wkqENZdb0Pf1DOU7DY3jjdj/8Wv2l5vPwSync8+JB5qYLt/Q8HnrxgLgX10sHeX9fize7CQrmgw9GsO7DkfxrqmgQfkG8IT5r99r1yWVtBz7Ylb6eYodcHBLC+OdNgQTk5PPSG6m8f8CFP8x041iT6QTqlb3jkSWH6jJR1zz9dYcusDiSXwo+Xm39RUeMJjMuDgYcxV9Xqe3/rEhxS34VBJ4VTmhjHvMf3c+mZfns/no/n75fhMOQCAb66Z6O4kTFyp0s/CaXvcszWPTsYbKMnsQkt5+GV8Qgf/YH07nn07br7ieiOM5ZPl3iG+eJc00Ba17PYO/aQg4sS+e7J7bw9UeF1NlEGzA9gvCj+chl99x91nw4joxmQDd9bZeYG9jzz92sW6KFt5cv55ZjjPNHJKkD3cvFLjmnV1PsbMJXpNdRGFdue4rJCzUTqIBXqBuGrGoKda9WHB3R3tU3N3WzU8xotO79aFLt3VHWQIMYFR2UrpdXdIc27hpdTbiZ21/OHd8CVhzkx3/dw8Uzr+Shr7JJvPZZ3ciaQPiJzjo61jH/8AbeLk7n27xN3JFThJM5hPE2xyj28Y9jsCWDJw9u4UPhb17eZm7JzMXkk8i5rbNcteVkGNyIFPcmkydelQXsc/VCey8a7mrGobZMKPongCIGbbcWI8IU4sOYO6IJaypjz6oTNK66qadKWRUHV+Wzd2UeBdqe8YpKUsTnfcJt36oCsovaZi80v4f0JXkZ+RbdtTMM5K07zK4fj3Ag25Gy7UfYsegQu4VAPAPddD89a5f29BtKWS7fvVOAcVwSU4a40OeGPsQ15jL/PwXU2yxv854URqRjMUse3iPkIvK+4BBf/CuTqqAQBvbXPQl61G+41bP7xT2sXyra77cpfP5xMYbYQBL09nsq5Nyj/tne/sqO/kBRqvjHHzZw7vste2I73veUyDg33GtKefO/+fy4vozFK/J58Kl9/P2TUsptupk+ZwUyuLGYJx9P58MVJcz7Jp1bPizFNDyIc48ZjxzIW3WYx78t5seVBTz1fBY7HNwZM7jr5WPHxa2J+f8+wtvLSvj2mzTumFeJU6wX423k13dKAAMbRPqeaEnft/My+PNHpbgkBzK7tR6U17JsTSnzV5eQYq0H1SwRnxcIN+3aUdxWD+yiuJhHHtnDnx7ezXMbRZmVFfGU+Kzda9dDS9uMc3vS12PskEviKC8i6ot5/ulMPl1ZwtwvjvDiVlWMjO05sXpl73jUYN27ZTB2dV5uK4rVoHM4zoxU1a4f+fjjL/j4oyUcbuhheUlOCmlcSX4VeAe6QkFVuxmRuvRKqnDF65g3gI0UZ9pMpRcLY6DSgpN7++26qlrG2kc28MGDbdeHr+dSrT/vCSWHyqk3+TPhb3EMm+ZPdF8TriUlQlkppczS1un5BLpAXhXFQnFofevdnFVJpeKKt83SnR5RVUl+kf5ZUJZdTRPOQgHXHY7SvVzsknNBJcU14j4UgiLdKEnLp6jGncAgYWQGu1CeWXnc/VKnF/5c8/ZK1qxd1e56YY4op86oPMSCV/7OxWdfzv1fFTP0zw9xTbL+rKc0VnDQRm/MrKuiXpSbl82YG+ksVPb6clLFgO0m6ox2NdaVUyBU+YjWYmuoIK3JnXCR5D6uHmRWZ5Ju8SRePI9xMZNTV2Y9WbKnKB5hXK4bD3e8PoLJcQ1sfXk7G/N1Dz3F7nram6g0Ww9BUGkStoFqXdYj3ISTdoJZKz1pl/b2G9VLdrNoo8Lgm0cxfSzseWMfKVXty8EnQMRbXEF+pe4gUHfv45ULl/PDVt1B0KN+Q8i5sFT/LKjLq6ZOyNl8oi9v7KBH/fMvUg/sI+NwDZUmb/58axhXTvFibB8XvEsrhbFRRaZNPx4ZIBpXfi2pDm3L3hqzailQXIg4ph9vIj3LZvahtJ500e+azN0p111QXctBG/llZteJfsMRL2/dQRCh1ZfCWlJsyqMivZYiXAg/0XGmG5RGYTTvqmK9uA6WinbW1MD+nZXWe+3and9mJJyS9Nkhl0AvUW6ldWTY9LspmbWdzFydGSiKSn1lOdUdD3qRnHKkcSX5VWA0ioFN04hsUbU9JqKSH/OiSLjb9JaKUsz3Vy3hnU9rdJdWhLGxu4T0naVt16ETOyyi8af9fPF+IQ0xoYz7YzK/e2YCt300icsu8MBgsyxBy4cSn8DNNm+973k6Bq3/PzYfdqLL4ShCTs2aSwdx2SMX++RcRUmuEz4hLgSEO1KYXkhJtgn/GCdhXDlSJIyrdnQMr0s65KNbDNadGD39VntKmP/4Ldz0p5vbXS+vtBn1O6Caoznrquv5w8Wj8CraxYE8/UGP0crJBiFn7V6xcXQ0iC7cfRDzhl3GutarX1/CRM6NR3v3MtLqnAlzcSXBxZnDtdmk1roTZ3IWxpmT+Fyu++sZalUBizTj4ZEUEb5Kxap9LFhZp1Uc3UcPsbue/vz0rF3a128oSiN75udTJwwoj6IcNq8/du+EopWhTf+goRl9qnWSqC28HqWvo0it9ydYZnbSo/7Z7npwci37RKhZm8YdH5ZSHeXLDdcn8J8nB7P0vWReO9+Ek005OTqI/MZFMM9m2du6J0Jb2uUx9UXkr12/W86Dv9/MlV903cccF6u8bBDp0uRnW8LW9Al/7eRn9ddZ+n5+Tkn67JCLtYmKSG3jVTum44SxdzxqSZHdsfZO4iS9jDSuJL8KLBbRwxhsu0mB6Ck1F4u9q8hOIZoilf7Vbj66bRUvXbaIp69ZxRdLG4m5ug/JNm/OtHyoaWl8YfPW2/rm+6Ft2laoXxx75Kwo9RTmWPAKDsQ/vJaiIxZx34R/VAA+QXUUpbUb4qC+yrpcwsntmHWK7WmqRVt04ebg3nLfLW64OUJt04nMNbagHZGbt3cjG9a3vw62W9eo4xHP2bc+zZfzP+WxC/zZ+cYtnHvO7XyZ1kFevUijppVVHeCOvYv5k+21bxXv6tlWlFoO1zUJ4yqceNdKDtc0cbi+gRjXUCJdqjlSc7xlc8fBUkf+jhLSthxh5dJaPCfHMsBLf6ZjNdY7GBVa/TEIjcBWoTzdORXtUjV6MPm6MBxSSsnzCmfaRW7Csb2mZJVfx/bWCT1KnwiuXYjWe/H9U6iknZL+ucf9Qddos5aaFNrLRaunIn02k0paf7Dh6yP88a6dTLpyIyP/sJ3blzUx6neRXGRT9xu1vTfpudxhs+zNej2yn3dPg37cmj5RHsfmV6W71dk/B/amr+X8iO7LzV6sbUAEZhue0jEdJ4y945EnzqIraKyp0u+7ohkP4a+6VqrxpyOyVCRnBkJxnTznAmaPi8K1Ey2gJL8O/M1oqzFacYl0xyyG39Is3eEUYtGm3UUn3FWD8p0Yz/TL/TGLtIu+n6ayGlLWFFNjdMEzQPcksOZD6zBt3nynZTSgGNXTwki0V86F2TV4RPnj71JBQR7kZ1bhEyuMK48qCtJ1T62ohynPF0NK9MBuTsjKJKcGQjwSrIcAdItzHLEinbk13RyU0QvEX/YcX8//iP+b7c3W124WRtWfeOqTLRQ19c6w3BXpwjDVNp6UVBawvrLQeq2rFfVFacZ2b/WhugoCTaHEGMs5VA/7ayuINIcR7ljBoY4Ttj1Eq88ZX6WSYfRlzAXCQLYpm5J8of56uhNk8wLBT9QXB4uoL7m6wwlgNcxEvKdWum30drvURBR+zUBGBlWw5t8b+eG7WoIvHcSY6PY5Ki0UheXjQaCt/dCvD7fOm8I5Q2zl3IP0md3xtykPl2ATLtRTbbNkqpXekvOp6Z972B8ch8wiIWcvF2Jt5BwV7opzcz3ZNudlxEwI4/5LvQgU8Wn1vrasjqVrKyg1OhJq04+na+sfRXmU7Glb9rYuw2Itj9PBeLGmz9+VBJvycI90xY86MrJ1BxusRozI8M/V3uxNX3qBqFdervSxMWxjhT9nSx1ZJ7A8Ob9MxOvtQoTNiswEUQ96RVG2dzzyGoC3yE9FbjdWuHctST5CBtkdd4RJTgekcSU5I/BK6E98kB/B/foR7aI72lCwOIMspyDOfjCRYZMD6T+nD5df7UfD5gx22+wv6BnOBAwPIH6Uv83lR6DN8cmtlB0oo8bRj+G/DyWx1e8A16PGQr3Zk+TL+3P+dRH0HeNP4qRwZl4bgrm6jGwbY6NgUQaZ7uGc90A8QycF0HdGDBc8NporbgnC/QTexPU29sq5JKMKNd6ToJxqtFVxdelV1Cd4E1RQSWGH1U+KcojMrRkYBlxEfHDXw7eiZLI2PxcH/2nMcjv+MK8dqRsbMY0EDrMhr0R3PXWEhDqz8ZU//2xGVSv7Cw+x3TGOx+MHcrlvGGf7JfF84nRei4oi0PpWt4X0mkpUN18S68rRDvmqqKmgys2fPuL+4MnppS0UZvLTygZ8Z8SSZHNyQ+WqTFLrfZjwYBIjpgQz8JL+XHS+u9U95QSVTM1wLMgURltsKBPPDqLvhEBx+RPo0ZYRU5zv0TYbEWgEoytho/W2nGzqsTLes3bZfb9h7JvA7HNNFMzdxbp0ldyPdrOpyJ3xf4nBz+YY/ZIVmaQ3+TLtH/0YPS2QpJlxXPLXcMx5uezao3sS9Ch9lc70v7Mfo6aK9ntuApde4Ufz4XxSOhhXvSnnU9E/96Q/6I68NYVsbvTilr9HcdVEH86fE8Vz55kp21iE7W/bVrm5ceGl0Tx+bQBnj/LirIkBPHS1P/5V1ezI0D0J9i/OZ7s5kMfvDefyid6cfVYIz/+jP6/dJOrBadCP71+Sz04nX+6/L4Lfifyed24k/7nSm5rN+fzQoTy0fTvaviNi/PjrDF9mjvMWlxdJNvWgt7E3fflrClhf78lN90dzzSQfLrgomhfONVOwupClJ9C/HNhQRqaLL3f9XSs3Ed4lMdw10sgJzu0fxd7xSFUNeM+cgz97yNrY2fKIFrSj/vvNLmGg6sHSdV2vk1TVMCb9/o/ccMHgEz9tWHJCSONKckZQkZVBYW0DtbkZ5Nbrjjao2Wl88Y8DpLsEMu7GAcyc44dl414+ejGbGu0V4wmgKB6MvHcol93fdl163xDGDtQ92NC89SBff1qG29QkLhR+rH7/GELri9DKH3Yx9+tyTBPiOe+uIVx4czxxhmKWPbWPA/Vt6VNz0vjykRSyzMGMv2kQs68Oxycnna8ePECWzYbpXwp75axmVFNqckTNFEq85q6dIOjhiHN2h5MCdUq/f1V46cvAv91HkFfX3dLhtE9Z1xjDpYOvZ4hT5/LQBqig4D9zZ3Qw+Rkf82Od/uAUsvLFv/6sRlUrav0Bbtu/jR3GCG6MHMMj4bGEC7e79m9li8175ubacjIdnFBry8i3vnIvJ93JGbNmXOl+TgYtyMNfpJLj7M/YOTZHmBfnMPcf+zho8WPMn/oxfZYXlct28tF/Ck7oEI1WMj/Zxer9DvS/fhAX3ZXMhXf2J9nmN+MiL2ppg9o1fYwzismPia1t+NZwobz0jJ60y+76DdXRk6l/i8I76wjff15lFZ7SVM7yVzOojI3l3MuE/HRFSMnL5KtH9pIiDNTh1w/gnKtC8chMs8o040T7DUshG+c3E395P2t4ZhHeN8+lUtJJefSWnE9F/6xhT39gF4UF3P1kBhsdPPnjDbH8fbY7tRtTufm1Yspt0pc//wj3zKvCe1wEj96ZyDM3hjPWUMbLz6ax2LY8cvO47bF0drj7cOMNcTxyVQDhubnc9XA6W477W34/D2pOHn97PJ3Nzt4t+T3Pg8bNR7jx5SKKOymPrZ8f4fX9RmZeF8ezdyTy7O0xXNTht716E3vTpxQXc8/jqaxu8uC6P8Zy9wxhWC0/yI1vlFJ9AvWq6UAWt7+RT2FoILffFM31/Rr5YH6HPcI9xN7xSPsNNbexjzBuViSVS18lpQvbSlWbiZiYx/PnVpO1KIBPjvdLBO7eaGd01BTmnlQ7k/QcZUDSwHbmrKurK7W12krm05fQ5PFkb1ut30kkkl8DhpirmHj7rQQ5ZZKz4DnWzF2PpZMBwcnjHO5LvpL+hjy2pf+PFw/vpk73pzomc03/a5jh50d53v94Ytcycn62xSwSyemN9iO9144v4sOr95D+K1G2jtcfSCS/JPaOR6rHOAbdfBeJ/QKEUf8cK16bS1UnL1NVjyruvC2XSwfWU7IujJv/6Una8V66Rk3k9zNiyFr6HksO2SxlkJxy5MyVRCI5LWg+8iHL/n4t65al4BAcbv0Nm85oqPiBf/z0AP/JTMdkCsZmWT44BhNsPMi3O+7nzp3SsJJIjuFX1iSO2x9IJL8k9o5HbpF4GHay99Wrmf+vzg0rK+ZGIowm3n8pnouf78awErj7eONICQW5J7uwUdJT5MyVRCKRSCS/AawzVxOK+PCqX8/MlUQiORZtZXHM9GuZFpjCvA/WUiDb+8+KNK4kEolEIpFIJBKJpBeQywIlEolEIpFIJBKJpBeQxpVEIpFIJBKJRCKR9ALSuJJIJBKJRCKRSCSSXuCMNK7kfiuJRCKRSCQSiURyuiFnriQSiUQikUgkEomkF5DGlUQikUgkEolEIpH0AtK4kkgkEolEIpFIJJJeQBpXEolEIpFIJBKJRNILSONKIpFIJBKJRCKRSHqBM964Uo0uGIz6jUQikUgkEolEIpH8QpzxxpXXhe9z2bvrufD510geESqsLVV/IpFIJBKJRCKRSCT/397ds1QZhgEcv+wcyyO+lZoa2iI0aEWCbdHQEC4tDY19hb5Cn6CpGhpriKZAGioigjYJgkqHWhI5pUcQlU7mS8fCnqW528fOw+833S+f4M/zcN35KQ30D9zM1ntaW1tjZ2cn2/3/tpfnYml2NjaHp2JsaiJ+vJqOlc2W7BYAACAfTf/lqrE8G7W30/HuyevYKg1GZ192AQAAkKPCDLQo9x6Pw1GLb7XsAAAAIEeFiauuoZGI+nysrWcHAAAAOSpMXHUc64tYqUU92wMAAOSpMHG1Wp2PRt+5GDk1HEfa26NcaY9DJZMDAQCAfLScGTv7V4FUKpXY2NjIds1jN0Zi9MbdOD85GKWWP9MCFx9cjpfPVvbWAAAA+6kwcdV26XZcuT4QCw/vxefqWjQaEVuLb2J15fcCAABgnxXmt8D+8Ykof3kR758+j8UPM1GbmxFWAABAbgoTVxvraxGdvVHJ9gAAAHkqTFytf12I6BmJrvbsAAAAIEeFiavNpWpsx4noGMoOAAAActT0cbVbaoty92icnDwd5ajHtoeuAACAA9D0cdVz9X5cu/MoLlzsjtrjW/FpMbsAAADIUdOPYj/UPx69R39GvfoxvtdNBwQAAA5GYd65AgAAOEiFGWgBAABwkMQVAABAAuIKAAAgAXEFAACQgLgCAABIQFwBAAAkIK4AAAASEFcAAAAJiCsAAIAExBUAAEAC4goAACABcQUAAJCAuAIAAEhAXAEAACQgrgAAABIQVwAAAAmIKwAAgATEFQAAQALiCgAAIAFxBQAAkIC4AgAASEBcAQAA/LOIX9YRgfapgqDjAAAAAElFTkSuQmCC;" vertex="1" parent="1">
          <mxGeometry x="230" y="190" width="363.83" height="80" as="geometry" />
        </mxCell>
        <mxCell id="nRoSArOt20eBQi5jllFo-9" value="" style="ellipse;html=1;shape=startState;fillColor=#000000;strokeColor=#ff0000;" vertex="1" parent="1">
          <mxGeometry x="230" y="200" width="20" height="20" as="geometry" />
        </mxCell>
        <mxCell id="nRoSArOt20eBQi5jllFo-10" value="" style="edgeStyle=orthogonalEdgeStyle;html=1;verticalAlign=bottom;endArrow=open;endSize=8;strokeColor=#ff0000;rounded=0;" edge="1" source="nRoSArOt20eBQi5jllFo-9" parent="1">
          <mxGeometry relative="1" as="geometry">
            <mxPoint x="120" y="210" as="targetPoint" />
          </mxGeometry>
        </mxCell>
        <mxCell id="nRoSArOt20eBQi5jllFo-11" value="&amp;gt;&amp;lt;" style="text;html=1;align=center;verticalAlign=middle;whiteSpace=wrap;rounded=0;" vertex="1" parent="1">
          <mxGeometry x="70" y="195" width="60" height="30" as="geometry" />
        </mxCell>
      </root>
    </mxGraphModel>
  </diagram>
</mxfile>
